CommissionerLoud-ExtraBold.ufo
<glyph name="numbersign" format="2">
  <advance width="706.078947368421"/>
  <unicode hex="0023"/>
  <outline>
    <contour>
      <point x="11.842105263157896" y="112.71052631578948" type="line"/>
      <point x="83.71052631578948" y="115.3421052631579"/>
      <point x="158.05263157894737" y="117.97368421052632"/>
      <point x="211.0" y="119.60526315789474" type="curve"/>
      <point x="447.9473684210526" y="119.60526315789474" type="line"/>
      <point x="500.89473684210526" y="117.97368421052632"/>
      <point x="575.2368421052631" y="115.3421052631579"/>
      <point x="647.1052631578947" y="112.71052631578948" type="curve"/>
      <point x="647.1052631578947" y="262.1842105263158" type="line"/>
      <point x="575.2368421052631" y="259.5526315789474"/>
      <point x="500.89473684210526" y="256.92105263157896"/>
      <point x="447.9473684210526" y="255.28947368421052" type="curve"/>
      <point x="211.0" y="255.28947368421052" type="line"/>
      <point x="158.05263157894737" y="256.92105263157896"/>
      <point x="83.71052631578948" y="259.5526315789474"/>
      <point x="11.842105263157896" y="262.1842105263158" type="curve"/>
    </contour>
    <contour>
      <point x="85.57894736842105" y="0.0" type="curve"/>
      <point x="250.28947368421052" y="0.0" type="line"/>
      <point x="257.7631578947369" y="68.63157894736841"/>
      <point x="264.86842105263156" y="132.3421052631579"/>
      <point x="274.5263157894737" y="217.1578947368421" type="curve"/>
      <point x="313.7368421052632" y="447.86842105263156" type="line"/>
      <point x="333.55263157894734" y="538.1315789473683"/>
      <point x="346.7368421052632" y="596.3157894736842"/>
      <point x="362.7368421052631" y="669.3157894736842" type="curve"/>
      <point x="199.65789473684208" y="669.3157894736842" type="line"/>
      <point x="191.3684210526316" y="592.7894736842105"/>
      <point x="185.89473684210526" y="537.0526315789474"/>
      <point x="175.8684210526316" y="448.2368421052632" type="curve"/>
      <point x="136.6578947368421" y="217.1578947368421" type="line"/>
      <point x="116.02631578947368" y="130.71052631578948"/>
      <point x="100.57894736842105" y="65.36842105263158"/>
    </contour>
    <contour>
      <point x="58.973684210526315" y="404.13157894736844" type="line"/>
      <point x="130.8421052631579" y="406.7631578947368"/>
      <point x="205.18421052631578" y="409.39473684210526"/>
      <point x="258.13157894736844" y="411.0263157894737" type="curve"/>
      <point x="495.07894736842104" y="411.0263157894737" type="line"/>
      <point x="548.0263157894736" y="409.39473684210526"/>
      <point x="622.3684210526316" y="406.7631578947368"/>
      <point x="694.2368421052631" y="404.13157894736844" type="curve"/>
      <point x="694.2368421052631" y="553.6052631578948" type="line"/>
      <point x="622.3684210526316" y="550.9736842105262"/>
      <point x="548.0263157894736" y="548.3421052631579"/>
      <point x="495.07894736842104" y="546.7105263157895" type="curve"/>
      <point x="258.13157894736844" y="546.7105263157895" type="line"/>
      <point x="205.18421052631578" y="548.3421052631579"/>
      <point x="130.8421052631579" y="550.9736842105262"/>
      <point x="58.973684210526315" y="553.6052631578948" type="curve"/>
    </contour>
    <contour>
      <point x="340.05263157894734" y="0.0" type="curve"/>
      <point x="504.7631578947369" y="0.0" type="line"/>
      <point x="512.2368421052631" y="68.63157894736841"/>
      <point x="519.3421052631579" y="132.3421052631579"/>
      <point x="529.0" y="217.1578947368421" type="curve"/>
      <point x="568.2105263157895" y="447.86842105263156" type="line"/>
      <point x="588.0263157894738" y="538.1315789473683"/>
      <point x="601.2105263157894" y="596.3157894736842"/>
      <point x="617.2105263157895" y="669.3157894736842" type="curve"/>
      <point x="454.13157894736844" y="669.3157894736842" type="line"/>
      <point x="445.84210526315786" y="592.7894736842105"/>
      <point x="440.36842105263156" y="537.0526315789474"/>
      <point x="430.3421052631579" y="448.2368421052632" type="curve"/>
      <point x="391.13157894736844" y="217.1578947368421" type="line"/>
      <point x="370.5" y="130.71052631578948"/>
      <point x="355.05263157894734" y="65.36842105263158"/>
    </contour>
  </outline>
</glyph>
<glyph name="dollar" format="2">
  <advance width="581.3684210526316"/>
  <unicode hex="0024"/>
  <outline>
    <contour>
      <point x="282.6578947368421" y="-13.894736842105264" type="curve" smooth="yes"/>
      <point x="473.89473684210526" y="-13.894736842105264"/>
      <point x="557.0263157894736" y="67.21052631578948"/>
      <point x="557.0263157894736" y="201.4736842105263" type="curve" smooth="yes"/>
      <point x="557.0263157894736" y="313.9473684210526"/>
      <point x="504.39473684210526" y="364.39473684210526"/>
      <point x="342.8421052631579" y="410.42105263157896" type="curve" smooth="yes"/>
      <point x="270.8421052631579" y="431.7631578947368"/>
      <point x="239.94736842105263" y="446.2631578947368"/>
      <point x="239.94736842105263" y="484.6578947368421" type="curve" smooth="yes"/>
      <point x="239.94736842105263" y="525.1052631578948"/>
      <point x="274.0" y="542.078947368421"/>
      <point x="320.7631578947368" y="542.4473684210526" type="curve"/>
      <point x="337.86842105263156" y="542.4473684210526"/>
      <point x="424.50000000000006" y="517.078947368421"/>
      <point x="505.57894736842104" y="487.0789473684211" type="curve"/>
      <point x="519.1052631578947" y="658.5" type="line"/>
      <point x="448.07894736842104" y="673.8684210526316"/>
      <point x="335.47368421052636" y="699.2631578947369"/>
      <point x="280.5263157894737" y="699.2631578947369" type="curve" smooth="yes"/>
      <point x="110.63157894736842" y="699.2631578947369"/>
      <point x="32.55263157894737" y="613.2894736842105"/>
      <point x="32.55263157894737" y="486.2894736842105" type="curve" smooth="yes"/>
      <point x="32.55263157894737" y="365.4473684210526"/>
      <point x="102.84210526315789" y="316.2894736842105"/>
      <point x="223.78947368421052" y="282.89473684210526" type="curve" smooth="yes"/>
      <point x="299.2894736842105" y="261.6578947368421"/>
      <point x="350.4473684210526" y="244.78947368421052"/>
      <point x="350.4473684210526" y="201.6578947368421" type="curve" smooth="yes"/>
      <point x="350.4473684210526" y="158.63157894736844"/>
      <point x="319.8421052631579" y="140.0263157894737"/>
      <point x="266.3421052631579" y="139.6578947368421" type="curve"/>
      <point x="244.44736842105263" y="139.6578947368421"/>
      <point x="150.5" y="165.47368421052633"/>
      <point x="57.78947368421053" y="196.8421052631579" type="curve"/>
      <point x="43.81578947368421" y="21.973684210526315" type="line"/>
      <point x="129.3421052631579" y="3.947368421052632"/>
      <point x="235.47368421052633" y="-13.894736842105264"/>
    </contour>
    <contour>
      <point x="220.76315789473685" y="-137.0" type="curve"/>
      <point x="375.5" y="-137.0" type="line"/>
      <point x="373.05263157894734" y="-62.71052631578947"/>
      <point x="370.4210526315789" y="15.842105263157894"/>
      <point x="367.9736842105263" y="77.52631578947368" type="curve"/>
      <point x="228.28947368421052" y="77.52631578947368" type="line"/>
      <point x="225.8421052631579" y="15.842105263157894"/>
      <point x="223.21052631578948" y="-62.71052631578947"/>
    </contour>
    <contour>
      <point x="226.6578947368421" y="617.078947368421" type="curve"/>
      <point x="369.60526315789474" y="617.078947368421" type="line"/>
      <point x="371.2368421052631" y="672.9473684210527"/>
      <point x="373.86842105263156" y="739.7894736842105"/>
      <point x="375.5" y="803.0" type="curve"/>
      <point x="220.76315789473685" y="803.0" type="line"/>
      <point x="222.39473684210526" y="739.7894736842105"/>
      <point x="225.0263157894737" y="672.9473684210527"/>
    </contour>
  </outline>
</glyph>
<glyph name="ampersand" format="2">
  <advance width="785.0097087378641"/>
  <unicode hex="0026"/>
  <outline>
    <contour>
      <point x="536.4466019417476" y="0.0" type="curve"/>
      <point x="793.5728155339806" y="0.0" type="line"/>
      <point x="718.9902912621359" y="76.5631067961165"/>
      <point x="644.4077669902912" y="153.126213592233"/>
      <point x="569.4854368932039" y="229.6893203883495" type="curve"/>
      <point x="367.9902912621359" y="450.40776699029124" type="line" smooth="yes"/>
      <point x="329.19417475728153" y="492.18446601941747"/>
      <point x="311.49514563106794" y="519.2815533980582"/>
      <point x="311.49514563106794" y="553.3592233009708" type="curve" smooth="yes"/>
      <point x="311.49514563106794" y="586.5145631067962"/>
      <point x="335.2330097087379" y="608.2718446601941"/>
      <point x="366.4077669902913" y="611.9320388349514" type="curve"/>
      <point x="397.8834951456311" y="608.2718446601941"/>
      <point x="420.0194174757282" y="585.8543689320388"/>
      <point x="420.0194174757282" y="553.7378640776699" type="curve" smooth="yes"/>
      <point x="420.0194174757282" y="535.9611650485436"/>
      <point x="383.16504854368935" y="491.2233009708738"/>
      <point x="347.97087378640776" y="452.80582524271847" type="curve"/>
      <point x="436.0776699029126" y="366.67961165048547" type="line"/>
      <point x="498.9126213592233" y="431.71844660194176"/>
      <point x="571.2718446601942" y="503.9805825242718"/>
      <point x="571.2718446601942" y="562.0194174757282" type="curve" smooth="yes"/>
      <point x="571.2718446601942" y="668.0"/>
      <point x="482.9514563106796" y="728.3203883495146"/>
      <point x="357.1067961165048" y="728.3203883495146" type="curve" smooth="yes"/>
      <point x="232.94174757281553" y="728.3203883495146"/>
      <point x="132.41747572815532" y="667.6407766990291"/>
      <point x="132.41747572815532" y="547.7378640776699" type="curve" smooth="yes"/>
      <point x="132.41747572815532" y="481.6990291262136"/>
      <point x="164.79611650485435" y="426.6990291262136"/>
      <point x="216.19417475728156" y="369.6601941747573" type="curve" smooth="yes"/>
      <point x="427.6504854368932" y="136.0" type="line"/>
      <point x="464.02912621359224" y="91.0"/>
      <point x="500.4077669902913" y="44.66019417475728"/>
    </contour>
    <contour>
      <point x="254.7572815533981" y="-12.980582524271846" type="curve" smooth="yes"/>
      <point x="307.2718446601941" y="-12.980582524271846"/>
      <point x="384.7572815533981" y="22.417475728155345"/>
      <point x="468.87378640776706" y="70.89320388349515" type="curve"/>
      <point x="483.8543689320389" y="70.89320388349515" type="line"/>
      <point x="481.15533980582524" y="101.81553398058252" type="line"/>
      <point x="404.7281553398058" y="184.32038834951453" type="line"/>
      <point x="358.07766990291265" y="155.06796116504853"/>
      <point x="311.5825242718447" y="131.89320388349515"/>
      <point x="297.50485436893206" y="131.89320388349515" type="curve"/>
      <point x="240.65048543689318" y="134.89320388349515"/>
      <point x="208.49514563106794" y="168.33009708737865"/>
      <point x="208.49514563106794" y="215.18446601941747" type="curve" smooth="yes"/>
      <point x="208.49514563106794" y="254.77669902912623"/>
      <point x="231.70873786407765" y="290.2330097087378"/>
      <point x="275.621359223301" y="315.95145631067965" type="curve"/>
      <point x="198.2135922330097" y="414.03883495145635" type="line"/>
      <point x="106.55339805825241" y="373.37864077669906"/>
      <point x="27.47572815533981" y="304.378640776699"/>
      <point x="27.47572815533981" y="186.33980582524273" type="curve" smooth="yes"/>
      <point x="27.47572815533981" y="72.35922330097087"/>
      <point x="103.45631067961165" y="-12.980582524271846"/>
    </contour>
    <contour>
      <point x="596.0291262135922" y="168.7378640776699" type="line"/>
      <point x="651.9708737864078" y="224.43689320388353"/>
      <point x="706.5728155339805" y="279.45631067961165"/>
      <point x="762.1747572815533" y="336.1553398058252" type="curve"/>
      <point x="595.757281553398" y="444.7669902912622" type="line"/>
      <point x="562.3980582524273" y="385.747572815534"/>
      <point x="529.7184466019418" y="327.747572815534"/>
      <point x="496.3592233009709" y="268.3883495145631" type="curve"/>
    </contour>
  </outline>
</glyph>
<glyph name="quotesingle" format="2">
  <advance width="239.28947368421052"/>
  <unicode hex="0027"/>
  <outline>
    <contour>
      <point x="47.05263157894737" y="378.7105263157895" type="curve"/>
      <point x="182.3684210526316" y="379.7105263157895" type="line"/>
      <point x="191.3421052631579" y="502.89473684210526"/>
      <point x="202.23684210526318" y="624.4473684210526"/>
      <point x="211.5" y="744.8157894736842" type="curve"/>
      <point x="16.92105263157895" y="740.5526315789474" type="line"/>
      <point x="27.184210526315788" y="621.0"/>
      <point x="38.078947368421055" y="500.4473684210526"/>
    </contour>
  </outline>
</glyph>
<glyph name="parenleft" format="2">
  <advance width="426.8157894736842"/>
  <unicode hex="0028"/>
  <outline>
    <contour>
      <point x="264.86842105263156" y="-138.92105263157896" type="curve"/>
      <point x="413.7105263157895" y="-85.57894736842105" type="line"/>
      <point x="312.5263157894737" y="52.815789473684205"/>
      <point x="226.0" y="172.15789473684214"/>
      <point x="226.0" y="323.1842105263158" type="curve" smooth="yes"/>
      <point x="226.0" y="474.3947368421052"/>
      <point x="312.5263157894737" y="593.5526315789474"/>
      <point x="413.7105263157895" y="731.9473684210526" type="curve"/>
      <point x="264.86842105263156" y="785.2894736842105" type="line"/>
      <point x="177.4736842105263" y="671.2631578947369"/>
      <point x="37.36842105263158" y="525.6315789473683"/>
      <point x="37.36842105263158" y="323.1842105263158" type="curve" smooth="yes"/>
      <point x="37.36842105263158" y="120.92105263157893"/>
      <point x="177.4736842105263" y="-24.894736842105264"/>
    </contour>
  </outline>
</glyph>
<glyph name="asterisk" format="2">
  <advance width="502.86842105263156"/>
  <unicode hex="002A"/>
  <outline>
    <contour>
      <point x="420.60526315789474" y="344.2105263157895" type="curve"/>
      <point x="483.65789473684214" y="452.5263157894737" type="line"/>
      <point x="412.3157894736842" y="484.0"/>
      <point x="339.9736842105263" y="513.8421052631579"/>
      <point x="268.63157894736844" y="545.3157894736842" type="curve"/>
      <point x="206.44736842105263" y="592.2105263157895"/>
      <point x="144.26315789473685" y="640.5526315789474"/>
      <point x="82.26315789473684" y="687.2631578947368" type="curve"/>
      <point x="19.210526315789476" y="578.1315789473684" type="line"/>
      <point x="90.55263157894737" y="546.6578947368422"/>
      <point x="162.07894736842104" y="516.8157894736843"/>
      <point x="234.42105263157896" y="485.1578947368421" type="curve"/>
      <point x="296.42105263157896" y="438.4473684210526"/>
      <point x="358.60526315789474" y="390.92105263157896"/>
    </contour>
    <contour>
      <point x="83.07894736842105" y="343.39473684210526" type="line"/>
      <point x="145.07894736842104" y="390.92105263157896"/>
      <point x="206.44736842105263" y="438.4473684210526"/>
      <point x="268.63157894736844" y="486.1578947368421" type="curve"/>
      <point x="339.9736842105263" y="516.8157894736843"/>
      <point x="411.5" y="548.2894736842106"/>
      <point x="482.8421052631579" y="578.9473684210526" type="curve"/>
      <point x="419.7894736842105" y="688.0789473684209" type="line"/>
      <point x="357.7894736842105" y="640.5526315789474"/>
      <point x="296.42105263157896" y="593.0263157894736"/>
      <point x="234.42105263157896" y="545.5" type="curve"/>
      <point x="162.89473684210526" y="514.6578947368421"/>
      <point x="90.55263157894737" y="484.0"/>
      <point x="19.210526315789476" y="453.3421052631579" type="curve"/>
    </contour>
    <contour>
      <point x="188.1578947368421" y="283.39473684210526" type="curve"/>
      <point x="314.7105263157895" y="283.39473684210526" type="line"/>
      <point x="305.3684210526316" y="360.8421052631579"/>
      <point x="295.2105263157895" y="438.2894736842105"/>
      <point x="285.86842105263156" y="515.921052631579" type="curve"/>
      <point x="295.2105263157895" y="593.1842105263158"/>
      <point x="304.5526315789474" y="670.6315789473684"/>
      <point x="313.89473684210526" y="748.078947368421" type="curve"/>
      <point x="188.1578947368421" y="748.078947368421" type="line"/>
      <point x="197.5" y="670.6315789473684"/>
      <point x="207.6578947368421" y="593.1842105263158"/>
      <point x="217.0" y="515.921052631579" type="curve"/>
      <point x="207.6578947368421" y="438.2894736842105"/>
      <point x="197.5" y="360.8421052631579"/>
    </contour>
  </outline>
</glyph>
<glyph name="plus" format="2">
  <advance width="604.4736842105264"/>
  <unicode hex="002B"/>
  <outline>
    <contour>
      <point x="212.63157894736844" y="47.868421052631575" type="curve"/>
      <point x="391.84210526315786" y="47.868421052631575" type="line"/>
      <point x="389.2105263157895" y="119.73684210526316"/>
      <point x="386.57894736842104" y="194.07894736842104"/>
      <point x="384.9473684210526" y="247.0263157894737" type="curve"/>
      <point x="384.9473684210526" y="365.8157894736842" type="line"/>
      <point x="386.57894736842104" y="418.7631578947368"/>
      <point x="389.2105263157895" y="493.10526315789474"/>
      <point x="391.84210526315786" y="564.9736842105264" type="curve"/>
      <point x="212.63157894736844" y="564.9736842105264" type="line"/>
      <point x="215.26315789473685" y="493.10526315789474"/>
      <point x="217.8947368421053" y="418.7631578947368"/>
      <point x="219.5263157894737" y="365.8157894736842" type="curve"/>
      <point x="219.5263157894737" y="247.0263157894737" type="line"/>
      <point x="217.8947368421053" y="194.07894736842104"/>
      <point x="215.26315789473685" y="119.73684210526316"/>
    </contour>
    <contour>
      <point x="45.526315789473685" y="219.26315789473685" type="line"/>
      <point x="117.39473684210526" y="221.89473684210526"/>
      <point x="191.73684210526315" y="224.5263157894737"/>
      <point x="244.68421052631578" y="226.1578947368421" type="curve"/>
      <point x="359.7894736842105" y="226.1578947368421" type="line"/>
      <point x="412.7368421052632" y="224.5263157894737"/>
      <point x="487.07894736842104" y="221.89473684210526"/>
      <point x="558.9473684210526" y="219.26315789473685" type="curve"/>
      <point x="558.9473684210526" y="393.57894736842104" type="line"/>
      <point x="487.07894736842104" y="390.94736842105266"/>
      <point x="412.7368421052632" y="388.3157894736842"/>
      <point x="359.7894736842105" y="386.6842105263158" type="curve"/>
      <point x="244.68421052631578" y="386.6842105263158" type="line"/>
      <point x="191.73684210526315" y="388.3157894736842"/>
      <point x="117.39473684210526" y="390.94736842105266"/>
      <point x="45.526315789473685" y="393.57894736842104" type="curve"/>
    </contour>
  </outline>
</glyph>
<glyph name="comma" format="2">
  <advance width="263.7631578947369"/>
  <unicode hex="002C"/>
  <outline>
    <contour>
      <point x="18.842105263157897" y="-157.0" type="curve"/>
      <point x="107.10526315789474" y="-155.18421052631578" type="line"/>
      <point x="142.44736842105263" y="-105.31578947368422"/>
      <point x="231.94736842105263" y="21.236842105263158"/>
      <point x="231.94736842105263" y="79.07894736842105" type="curve" smooth="yes"/>
      <point x="231.94736842105263" y="139.78947368421052"/>
      <point x="204.6315789473684" y="186.9736842105263"/>
      <point x="139.39473684210526" y="195.31578947368422" type="curve"/>
      <point x="40.78947368421053" y="187.78947368421052" type="line"/>
      <point x="47.5" y="138.5"/>
      <point x="53.578947368421055" y="89.21052631578948"/>
      <point x="57.8421052631579" y="44.815789473684205" type="curve"/>
      <point x="47.47368421052632" y="-17.078947368421055"/>
      <point x="31.39473684210526" y="-98.8157894736842"/>
    </contour>
  </outline>
</glyph>
<glyph name="hyphen" format="2">
  <advance width="428.1578947368421"/>
  <unicode hex="002D"/>
  <outline>
    <contour>
      <point x="45.526315789473685" y="215.18421052631578" type="line"/>
      <point x="106.3157894736842" y="217.8157894736842"/>
      <point x="169.21052631578948" y="220.44736842105263"/>
      <point x="214.07894736842104" y="222.07894736842104" type="curve"/>
      <point x="258.9473684210526" y="220.44736842105263"/>
      <point x="321.8421052631579" y="217.8157894736842"/>
      <point x="382.63157894736844" y="215.18421052631578" type="curve"/>
      <point x="382.63157894736844" y="389.5" type="line"/>
      <point x="321.8421052631579" y="386.8684210526316"/>
      <point x="258.9473684210526" y="384.2368421052632"/>
      <point x="214.07894736842104" y="382.60526315789474" type="curve"/>
      <point x="169.21052631578948" y="384.2368421052632"/>
      <point x="106.3157894736842" y="386.8684210526316"/>
      <point x="45.526315789473685" y="389.5" type="curve"/>
    </contour>
  </outline>
</glyph>
<glyph name="period" format="2">
  <advance width="279.89473684210526"/>
  <unicode hex="002E"/>
  <outline>
    <contour>
      <point x="139.6315789473684" y="-14.710526315789473" type="curve" smooth="yes"/>
      <point x="207.60526315789474" y="-14.710526315789473"/>
      <point x="248.26315789473682" y="22.947368421052634"/>
      <point x="248.26315789473682" y="99.36842105263159" type="curve" smooth="yes"/>
      <point x="248.26315789473682" y="158.55263157894737"/>
      <point x="207.60526315789474" y="193.57894736842104"/>
      <point x="140.44736842105263" y="193.57894736842104" type="curve" smooth="yes"/>
      <point x="72.65789473684211" y="193.57894736842104"/>
      <point x="31.815789473684212" y="158.55263157894737"/>
      <point x="31.815789473684212" y="99.36842105263159" type="curve" smooth="yes"/>
      <point x="31.815789473684212" y="22.947368421052634"/>
      <point x="72.65789473684211" y="-14.710526315789473"/>
    </contour>
  </outline>
</glyph>
<glyph name="slash" format="2">
  <advance width="476.3421052631579"/>
  <unicode hex="002F"/>
  <outline>
    <contour>
      <point x="3.7368421052631597" y="0.0" type="curve"/>
      <point x="209.60526315789474" y="0.0" type="line"/>
      <point x="232.8157894736842" y="74.0"/>
      <point x="251.84210526315786" y="136.0"/>
      <point x="280.60526315789474" y="228.0" type="curve"/>
      <point x="371.39473684210526" y="474.0" type="line"/>
      <point x="411.31578947368416" y="569.0"/>
      <point x="438.0526315789474" y="632.1842105263158"/>
      <point x="472.60526315789474" y="713.0" type="curve"/>
      <point x="267.55263157894734" y="713.0" type="line"/>
      <point x="243.34210526315792" y="636.1842105263158"/>
      <point x="223.31578947368422" y="571.1842105263158"/>
      <point x="193.36842105263156" y="476.0" type="curve"/>
      <point x="101.57894736842105" y="228.0" type="line"/>
      <point x="62.657894736842096" y="138.44736842105263"/>
      <point x="36.10526315789473" y="75.44736842105263"/>
    </contour>
  </outline>
</glyph>
<glyph name="zero" format="2">
  <advance width="671.5526315789474"/>
  <unicode hex="0030"/>
  <outline>
    <contour>
      <point x="338.6842105263158" y="-13.894736842105264" type="curve" smooth="yes"/>
      <point x="541.1052631578947" y="-13.894736842105264"/>
      <point x="635.1052631578947" y="130.07894736842104"/>
      <point x="635.1052631578947" y="344.8157894736842" type="curve" smooth="yes"/>
      <point x="635.1052631578947" y="553.5526315789474"/>
      <point x="545.921052631579" y="704.1578947368421"/>
      <point x="334.2368421052632" y="704.1578947368421" type="curve" smooth="yes"/>
      <point x="123.92105263157895" y="704.1578947368421"/>
      <point x="36.44736842105263" y="553.921052631579"/>
      <point x="36.44736842105263" y="344.0" type="curve" smooth="yes"/>
      <point x="36.44736842105263" y="145.9736842105263"/>
      <point x="118.1842105263158" y="-13.894736842105264"/>
    </contour>
    <contour>
      <point x="336.6842105263158" y="144.55263157894737" type="curve"/>
      <point x="263.15789473684214" y="150.81578947368422"/>
      <point x="235.68421052631578" y="228.9736842105263"/>
      <point x="235.68421052631578" y="344.8157894736842" type="curve" smooth="yes"/>
      <point x="235.68421052631578" y="463.55263157894734"/>
      <point x="266.15789473684214" y="538.6315789473683"/>
      <point x="336.6842105263158" y="544.8947368421052" type="curve"/>
      <point x="404.84210526315786" y="538.6315789473683"/>
      <point x="436.6842105263158" y="464.7631578947368"/>
      <point x="436.6842105263158" y="344.8157894736842" type="curve" smooth="yes"/>
      <point x="436.6842105263158" y="229.52631578947367"/>
      <point x="408.57894736842104" y="150.81578947368422"/>
    </contour>
  </outline>
</glyph>
<glyph name="one" format="2">
  <advance width="474.89473684210526"/>
  <unicode hex="0031"/>
  <outline>
    <contour>
      <point x="63.86842105263158" y="402.2631578947368" type="line"/>
      <point x="140.76315789473685" y="442.81578947368416"/>
      <point x="216.21052631578948" y="482.5526315789474"/>
      <point x="294.7368421052632" y="523.921052631579" type="curve"/>
      <point x="302.07894736842104" y="694.1578947368421" type="line"/>
      <point x="204.8684210526316" y="653.6052631578947"/>
      <point x="109.28947368421053" y="614.0526315789474"/>
      <point x="12.078947368421053" y="573.5" type="curve"/>
    </contour>
    <contour>
      <point x="186.55263157894737" y="0.0" type="curve"/>
      <point x="410.0" y="0.0" type="line"/>
      <point x="404.9210526315789" y="70.92105263157895"/>
      <point x="400.6578947368421" y="131.0263157894737"/>
      <point x="394.7631578947368" y="214.47368421052633" type="curve"/>
      <point x="394.7631578947368" y="448.63157894736844" type="line"/>
      <point x="399.84210526315786" y="528.7368421052631"/>
      <point x="404.92105263157896" y="607.921052631579"/>
      <point x="410.0" y="688.8947368421053" type="curve"/>
      <point x="302.07894736842104" y="694.1578947368421" type="line"/>
      <point x="193.26315789473685" y="610.078947368421" type="line"/>
      <point x="195.71052631578948" y="542.6052631578948"/>
      <point x="199.1578947368421" y="474.1052631578947"/>
      <point x="201.60526315789474" y="408.6578947368421" type="curve"/>
      <point x="201.60526315789474" y="214.47368421052633" type="line"/>
      <point x="195.71052631578948" y="131.0263157894737"/>
      <point x="191.6315789473684" y="70.92105263157895"/>
    </contour>
  </outline>
</glyph>
<glyph name="two" format="2">
  <advance width="577.2631578947369"/>
  <unicode hex="0032"/>
  <outline>
    <contour>
      <point x="39.94736842105263" y="0.0" type="line"/>
      <point x="537.6578947368421" y="0.0" type="line"/>
      <point x="537.6578947368421" y="182.28947368421052" type="line"/>
      <point x="475.2368421052632" y="176.39473684210526"/>
      <point x="413.44736842105266" y="170.5"/>
      <point x="347.7631578947368" y="163.78947368421052" type="curve"/>
      <point x="231.8421052631579" y="163.78947368421052" type="line"/>
      <point x="254.52631578947367" y="127.23684210526315" type="line"/>
      <point x="346.1578947368421" y="195.26315789473682" type="line"/>
      <point x="474.7105263157895" y="290.5"/>
      <point x="532.078947368421" y="389.0"/>
      <point x="532.078947368421" y="491.6842105263158" type="curve" smooth="yes"/>
      <point x="532.078947368421" y="624.6315789473684"/>
      <point x="445.2105263157895" y="704.1578947368421"/>
      <point x="284.7631578947368" y="704.1578947368421" type="curve" smooth="yes"/>
      <point x="243.0263157894737" y="704.1578947368421"/>
      <point x="100.55263157894737" y="671.3157894736842"/>
      <point x="36.131578947368425" y="654.578947368421" type="curve"/>
      <point x="51.921052631578945" y="469.92105263157896" type="line"/>
      <point x="119.07894736842107" y="499.578947368421"/>
      <point x="229.3947368421053" y="543.2631578947369"/>
      <point x="243.9736842105263" y="543.2631578947369" type="curve"/>
      <point x="303.13157894736844" y="540.6315789473684"/>
      <point x="333.0263157894737" y="517.1842105263158"/>
      <point x="333.0263157894737" y="465.39473684210526" type="curve" smooth="yes"/>
      <point x="333.0263157894737" y="385.6578947368421"/>
      <point x="256.52631578947364" y="312.7368421052632"/>
      <point x="141.94736842105263" y="212.71052631578948" type="curve"/>
      <point x="107.73684210526315" y="188.57894736842107"/>
      <point x="74.15789473684211" y="165.07894736842104"/>
      <point x="39.94736842105263" y="140.94736842105263" type="curve"/>
    </contour>
  </outline>
</glyph>
<glyph name="three" format="2">
  <advance width="589.5436893203884"/>
  <unicode hex="0033"/>
  <outline>
    <contour>
      <point x="281.3009708737864" y="-14.640776699029125" type="curve" smooth="yes"/>
      <point x="470.80582524271847" y="-14.640776699029125"/>
      <point x="555.7669902912621" y="71.01941747572815"/>
      <point x="555.7669902912621" y="191.94174757281553" type="curve" smooth="yes"/>
      <point x="555.7669902912621" y="296.9805825242719"/>
      <point x="487.00970873786406" y="347.3398058252427"/>
      <point x="415.66990291262135" y="360.3398058252427" type="curve"/>
      <point x="415.66990291262135" y="374.3009708737864" type="line"/>
      <point x="485.3495145631068" y="388.32038834951453"/>
      <point x="539.3883495145631" y="436.0582524271844"/>
      <point x="539.3883495145631" y="522.0582524271845" type="curve" smooth="yes"/>
      <point x="539.3883495145631" y="632.6796116504854"/>
      <point x="451.0679611650486" y="704.3009708737865"/>
      <point x="286.3009708737864" y="704.3009708737865" type="curve" smooth="yes"/>
      <point x="245.621359223301" y="704.3009708737865"/>
      <point x="106.71844660194178" y="671.2427184466019"/>
      <point x="44.09708737864078" y="654.2233009708738" type="curve"/>
      <point x="59.71844660194175" y="478.4854368932039" type="line"/>
      <point x="126.8155339805825" y="505.54368932038835"/>
      <point x="236.73786407766994" y="543.1844660194175"/>
      <point x="251.45631067961168" y="543.1844660194175" type="curve"/>
      <point x="305.9514563106796" y="540.5242718446602"/>
      <point x="340.4466019417476" y="521.4466019417476"/>
      <point x="340.4466019417476" y="477.27184466019423" type="curve" smooth="yes"/>
      <point x="340.4466019417476" y="435.09708737864077"/>
      <point x="309.63106796116506" y="413.9029126213592"/>
      <point x="239.60194174757282" y="411.24271844660194" type="curve"/>
      <point x="211.32038834951456" y="413.9029126213592"/>
      <point x="183.35922330097088" y="416.5631067961165"/>
      <point x="155.75728155339806" y="418.88349514563106" type="curve"/>
      <point x="155.75728155339806" y="272.9320388349514" type="line"/>
      <point x="189.3398058252427" y="275.25242718446606"/>
      <point x="217.9611650485437" y="277.25242718446606"/>
      <point x="251.88349514563106" y="279.5728155339806" type="curve"/>
      <point x="320.9126213592233" y="276.91262135922335"/>
      <point x="357.4854368932039" y="257.4174757281553"/>
      <point x="357.4854368932039" y="212.16504854368932" type="curve" smooth="yes"/>
      <point x="357.4854368932039" y="172.63106796116503"/>
      <point x="330.34951456310677" y="148.79611650485433"/>
      <point x="260.0582524271844" y="146.13592233009706" type="curve"/>
      <point x="239.26213592233006" y="146.13592233009706"/>
      <point x="121.4368932038835" y="182.09708737864077"/>
      <point x="47.69902912621359" y="206.4757281553398" type="curve"/>
      <point x="32.73786407766991" y="27.75728155339806" type="line"/>
      <point x="102.79611650485438" y="11.699029126213595"/>
      <point x="239.60194174757282" y="-14.640776699029125"/>
    </contour>
  </outline>
</glyph>
<glyph name="four" format="2">
  <advance width="621.5242718446602"/>
  <unicode hex="0034"/>
  <outline>
    <contour>
      <point x="303.9902912621358" y="0.0" type="curve"/>
      <point x="527.5145631067961" y="0.0" type="line"/>
      <point x="522.5339805825242" y="67.64077669902913"/>
      <point x="518.2135922330096" y="124.2621359223301"/>
      <point x="512.2330097087379" y="207.2233009708738" type="curve"/>
      <point x="512.2330097087379" y="447.9805825242719" type="line"/>
      <point x="517.5533980582524" y="525.9805825242718"/>
      <point x="522.5339805825242" y="605.9805825242718"/>
      <point x="527.5145631067961" y="688.9805825242718" type="curve"/>
      <point x="309.63106796116506" y="688.9805825242718" type="line"/>
      <point x="284.9320388349514" y="648.621359223301"/>
      <point x="259.2330097087379" y="606.9223300970874"/>
      <point x="234.53398058252424" y="566.5631067961166" type="curve"/>
      <point x="154.81553398058253" y="453.4854368932039" type="line"/>
      <point x="114.11650485436893" y="400.42718446601947"/>
      <point x="58.757281553398066" y="329.0291262135923"/>
      <point x="21.058252427184463" y="279.31067961165047" type="curve"/>
      <point x="21.058252427184463" y="137.1359223300971" type="line"/>
      <point x="384.41747572815535" y="137.1359223300971" type="line"/>
      <point x="447.0194174757282" y="133.81553398058253"/>
      <point x="537.9223300970874" y="129.8349514563107"/>
      <point x="594.8640776699029" y="127.1747572815534" type="curve"/>
      <point x="594.8640776699029" y="311.19417475728153" type="line"/>
      <point x="537.9223300970874" y="308.53398058252424"/>
      <point x="447.0194174757282" y="304.21359223300965"/>
      <point x="384.41747572815535" y="300.8932038834951" type="curve"/>
      <point x="367.43689320388347" y="287.68932038834953" type="line"/>
      <point x="171.53398058252426" y="287.68932038834953" type="line"/>
      <point x="185.49514563106794" y="264.83495145631065" type="line"/>
      <point x="211.19417475728156" y="304.53398058252424"/>
      <point x="234.89320388349512" y="343.2330097087378"/>
      <point x="260.5922330097087" y="383.9320388349514" type="curve"/>
      <point x="365.68932038834953" y="533.7281553398059" type="line"/>
      <point x="398.0485436893204" y="574.1262135922331"/>
      <point x="429.74757281553394" y="614.5242718446602"/>
      <point x="463.1067961165048" y="655.9223300970873" type="curve"/>
      <point x="321.2135922330097" y="608.8932038834952" type="line"/>
      <point x="325.53398058252424" y="541.5339805825242"/>
      <point x="329.8543689320388" y="474.495145631068"/>
      <point x="333.83495145631065" y="407.81553398058253" type="curve"/>
      <point x="333.83495145631065" y="232.1650485436893" type="line"/>
      <point x="319.2718446601941" y="207.2233009708738" type="line"/>
      <point x="313.29126213592224" y="124.2621359223301"/>
      <point x="308.9708737864077" y="67.64077669902913"/>
    </contour>
  </outline>
</glyph>
<glyph name="seven" format="2">
  <advance width="561.578947368421"/>
  <unicode hex="0037"/>
  <outline>
    <contour>
      <point x="74.05263157894738" y="0.0" type="curve"/>
      <point x="311.47368421052624" y="0.0" type="line"/>
      <point x="336.60526315789474" y="73.76315789473685"/>
      <point x="360.10526315789474" y="145.26315789473685"/>
      <point x="385.0526315789474" y="218.6578947368421" type="curve"/>
      <point x="439.1842105263158" y="344.2631578947368" type="line"/>
      <point x="471.2105263157895" y="412.86842105263156"/>
      <point x="501.0526315789474" y="475.92105263157896"/>
      <point x="532.8947368421052" y="543.7894736842105" type="curve"/>
      <point x="532.8947368421052" y="688.8947368421053" type="line"/>
      <point x="25.0" y="688.8947368421053" type="line"/>
      <point x="25.0" y="504.1578947368422" type="line"/>
      <point x="97.6842105263158" y="510.86842105263156"/>
      <point x="171.18421052631578" y="518.3947368421053"/>
      <point x="243.68421052631578" y="525.1052631578948" type="curve"/>
      <point x="366.57894736842104" y="525.1052631578948" type="line"/>
      <point x="316.15789473684214" y="562.0263157894736" type="line"/>
      <point x="300.1315789473684" y="517.0"/>
      <point x="284.2894736842106" y="471.3421052631579"/>
      <point x="268.4473684210526" y="426.3157894736842" type="curve"/>
      <point x="186.0263157894737" y="240.76315789473685" type="line"/>
      <point x="149.36842105263156" y="161.6315789473684"/>
      <point x="111.71052631578948" y="80.3157894736842"/>
    </contour>
  </outline>
</glyph>
<glyph name="less" format="2">
  <advance width="584.4736842105264"/>
  <unicode hex="003C"/>
  <outline>
    <contour>
      <point x="538.9473684210526" y="34.60526315789474" type="curve"/>
      <point x="538.9473684210526" y="220.4473684210526" type="line"/>
      <point x="486.05263157894734" y="236.5"/>
      <point x="431.6842105263158" y="253.28947368421052"/>
      <point x="378.42105263157896" y="269.5263157894737" type="curve"/>
      <point x="293.92105263157896" y="299.1578947368421" type="line"/>
      <point x="293.92105263157896" y="313.3157894736842" type="line"/>
      <point x="378.42105263157896" y="342.94736842105266" type="line"/>
      <point x="431.6842105263158" y="359.1842105263158"/>
      <point x="486.05263157894734" y="375.97368421052636"/>
      <point x="538.9473684210526" y="392.0263157894737" type="curve"/>
      <point x="538.9473684210526" y="577.8684210526316" type="line"/>
      <point x="465.4473684210526" y="547.6052631578948"/>
      <point x="398.47368421052636" y="519.7894736842105"/>
      <point x="339.60526315789474" y="495.5263157894737" type="curve"/>
      <point x="244.5" y="460.3157894736842" type="line"/>
      <point x="185.07894736842104" y="440.94736842105266"/>
      <point x="117.21052631578948" y="418.57894736842104"/>
      <point x="45.526315789473685" y="395.2105263157895" type="curve"/>
      <point x="45.526315789473685" y="217.26315789473685" type="line"/>
      <point x="117.21052631578948" y="194.07894736842104"/>
      <point x="185.44736842105263" y="171.52631578947367"/>
      <point x="244.5" y="152.1578947368421" type="curve"/>
      <point x="339.60526315789474" y="116.94736842105263" type="line"/>
      <point x="398.8421052631579" y="92.5"/>
      <point x="465.81578947368416" y="64.6842105263158"/>
    </contour>
  </outline>
</glyph>
<glyph name="equal" format="2">
  <advance width="584.4736842105264"/>
  <unicode hex="003D"/>
  <outline>
    <contour>
      <point x="53.684210526315795" y="93.86842105263159" type="line"/>
      <point x="125.55263157894737" y="96.50000000000001"/>
      <point x="199.89473684210526" y="99.13157894736842"/>
      <point x="252.8421052631579" y="100.76315789473685" type="curve"/>
      <point x="331.63157894736844" y="100.76315789473685" type="line"/>
      <point x="384.57894736842104" y="99.13157894736842"/>
      <point x="458.92105263157896" y="96.50000000000001"/>
      <point x="530.7894736842105" y="93.86842105263159" type="curve"/>
      <point x="530.7894736842105" y="268.1842105263158" type="line"/>
      <point x="458.92105263157896" y="265.5526315789474"/>
      <point x="384.57894736842104" y="262.92105263157896"/>
      <point x="331.63157894736844" y="261.2894736842105" type="curve"/>
      <point x="252.8421052631579" y="261.2894736842105" type="line"/>
      <point x="199.89473684210526" y="262.92105263157896"/>
      <point x="125.55263157894737" y="265.5526315789474"/>
      <point x="53.684210526315795" y="268.1842105263158" type="curve"/>
    </contour>
    <contour>
      <point x="53.684210526315795" y="344.65789473684214" type="line"/>
      <point x="125.55263157894737" y="347.2894736842105"/>
      <point x="199.89473684210526" y="349.92105263157896"/>
      <point x="252.8421052631579" y="351.5526315789474" type="curve"/>
      <point x="331.63157894736844" y="351.5526315789474" type="line"/>
      <point x="384.57894736842104" y="349.92105263157896"/>
      <point x="458.92105263157896" y="347.2894736842105"/>
      <point x="530.7894736842105" y="344.65789473684214" type="curve"/>
      <point x="530.7894736842105" y="518.9736842105264" type="line"/>
      <point x="458.92105263157896" y="516.3421052631578"/>
      <point x="384.57894736842104" y="513.7105263157895"/>
      <point x="331.63157894736844" y="512.078947368421" type="curve"/>
      <point x="252.8421052631579" y="512.078947368421" type="line"/>
      <point x="199.89473684210526" y="513.7105263157895"/>
      <point x="125.55263157894737" y="516.3421052631578"/>
      <point x="53.684210526315795" y="518.9736842105264" type="curve"/>
    </contour>
  </outline>
</glyph>
<glyph name="greater" format="2">
  <advance width="584.4736842105264"/>
  <unicode hex="003E"/>
  <outline>
    <contour>
      <point x="45.526315789473685" y="34.60526315789474" type="line"/>
      <point x="119.02631578947368" y="64.86842105263158"/>
      <point x="186.0" y="92.6842105263158"/>
      <point x="244.8684210526316" y="116.94736842105263" type="curve"/>
      <point x="339.9736842105263" y="152.1578947368421" type="line"/>
      <point x="399.39473684210526" y="171.52631578947367"/>
      <point x="467.2631578947368" y="193.89473684210526"/>
      <point x="538.9473684210526" y="217.26315789473685" type="curve"/>
      <point x="538.9473684210526" y="395.2105263157895" type="line"/>
      <point x="467.2631578947368" y="418.39473684210526"/>
      <point x="399.0263157894737" y="440.94736842105266"/>
      <point x="339.9736842105263" y="460.3157894736842" type="curve"/>
      <point x="244.8684210526316" y="495.5263157894737" type="line"/>
      <point x="185.6315789473684" y="519.9736842105262"/>
      <point x="118.65789473684211" y="547.7894736842106"/>
      <point x="45.526315789473685" y="577.8684210526316" type="curve"/>
      <point x="45.526315789473685" y="392.0263157894737" type="line"/>
      <point x="98.42105263157895" y="375.97368421052636"/>
      <point x="152.78947368421052" y="359.1842105263158"/>
      <point x="206.05263157894737" y="342.94736842105266" type="curve"/>
      <point x="290.5526315789474" y="313.3157894736842" type="line"/>
      <point x="290.5526315789474" y="299.1578947368421" type="line"/>
      <point x="206.05263157894737" y="269.5263157894737" type="line"/>
      <point x="152.78947368421052" y="253.28947368421052"/>
      <point x="98.42105263157895" y="236.5"/>
      <point x="45.526315789473685" y="220.4473684210526" type="curve"/>
    </contour>
  </outline>
</glyph>
<glyph name="at" format="2">
  <advance width="897.0263157894736"/>
  <unicode hex="0040"/>
  <outline>
    <contour>
      <point x="478.1578947368421" y="-150.55263157894737" type="curve" smooth="yes"/>
      <point x="543.7894736842105" y="-150.55263157894737"/>
      <point x="668.3421052631578" y="-111.26315789473686"/>
      <point x="761.7894736842105" y="-85.9736842105263" type="curve"/>
      <point x="761.7894736842105" y="35.05263157894737" type="line"/>
      <point x="641.0" y="-11.026315789473685"/>
      <point x="516.1052631578948" y="-44.131578947368425"/>
      <point x="478.1578947368421" y="-46.94736842105263" type="curve"/>
      <point x="220.52631578947367" y="-42.31578947368421"/>
      <point x="103.94736842105263" y="118.63157894736842"/>
      <point x="152.21052631578948" y="337.07894736842104" type="curve" smooth="yes"/>
      <point x="186.42105263157896" y="493.2368421052631"/>
      <point x="291.0" y="598.2631578947369"/>
      <point x="473.1578947368421" y="602.8947368421053" type="curve"/>
      <point x="670.4210526315788" y="598.2631578947369"/>
      <point x="781.7368421052631" y="478.6578947368421"/>
      <point x="746.0" y="279.8157894736842" type="curve" smooth="yes"/>
      <point x="742.078947368421" y="258.2105263157895"/>
      <point x="684.6842105263158" y="186.0"/>
      <point x="654.7631578947369" y="174.57894736842107" type="curve"/>
      <point x="617.5263157894738" y="178.39473684210526"/>
      <point x="606.578947368421" y="211.4736842105263"/>
      <point x="617.1315789473684" y="260.9736842105263" type="curve"/>
      <point x="633.0" y="336.7631578947368" type="line"/>
      <point x="649.5263157894736" y="387.6315789473685"/>
      <point x="666.6052631578948" y="439.7105263157894"/>
      <point x="683.5" y="487.7894736842105" type="curve"/>
      <point x="538.921052631579" y="480.7105263157895" type="line"/>
      <point x="521.4736842105264" y="432.6842105263158" type="line"/>
      <point x="509.94736842105266" y="432.6842105263158" type="line"/>
      <point x="475.7631578947368" y="468.2105263157895"/>
      <point x="432.52631578947364" y="492.9736842105263"/>
      <point x="404.6578947368421" y="492.9736842105263" type="curve" smooth="yes"/>
      <point x="312.2894736842105" y="492.9736842105263"/>
      <point x="248.89473684210526" y="410.10526315789474"/>
      <point x="228.9736842105263" y="311.42105263157896" type="curve" smooth="yes"/>
      <point x="203.1578947368421" y="182.81578947368422"/>
      <point x="258.94736842105266" y="68.10526315789474"/>
      <point x="368.5263157894737" y="68.10526315789474" type="curve" smooth="yes"/>
      <point x="391.10526315789474" y="68.10526315789474"/>
      <point x="435.2368421052631" y="94.39473684210527"/>
      <point x="482.6842105263158" y="128.68421052631578" type="curve"/>
      <point x="493.39473684210526" y="128.68421052631578" type="line"/>
      <point x="515.078947368421" y="91.76315789473685"/>
      <point x="572.078947368421" y="59.73684210526316"/>
      <point x="659.3157894736842" y="59.73684210526316" type="curve" smooth="yes"/>
      <point x="703.2894736842105" y="59.73684210526316"/>
      <point x="839.8684210526317" y="175.5526315789474"/>
      <point x="855.9473684210526" y="257.5" type="curve" smooth="yes"/>
      <point x="904.6578947368421" y="506.5263157894737"/>
      <point x="739.8947368421052" y="706.5"/>
      <point x="474.9736842105263" y="706.5" type="curve" smooth="yes"/>
      <point x="278.44736842105266" y="706.5"/>
      <point x="93.60526315789474" y="600.6052631578947"/>
      <point x="42.89473684210526" y="361.4736842105263" type="curve" smooth="yes"/>
      <point x="-15.526315789473685" y="87.42105263157895"/>
      <point x="147.8684210526316" y="-150.55263157894737"/>
    </contour>
    <contour>
      <point x="414.13157894736844" y="196.81578947368422" type="curve"/>
      <point x="378.39473684210526" y="198.81578947368422"/>
      <point x="362.60526315789474" y="240.21052631578948"/>
      <point x="371.7368421052631" y="284.7631578947368" type="curve" smooth="yes"/>
      <point x="380.9473684210526" y="328.89473684210526"/>
      <point x="406.2105263157895" y="358.8157894736842"/>
      <point x="443.36842105263156" y="361.63157894736844" type="curve"/>
      <point x="460.1578947368421" y="359.0"/>
      <point x="476.3684210526316" y="350.02631578947364"/>
      <point x="487.8157894736842" y="339.0526315789474" type="curve"/>
      <point x="464.57894736842104" y="230.71052631578948" type="line"/>
      <point x="448.57894736842104" y="210.1578947368421"/>
      <point x="430.63157894736844" y="201.26315789473685"/>
    </contour>
  </outline>
</glyph>
<glyph name="A" format="2">
  <advance width="737.3421052631579"/>
  <unicode hex="0041"/>
  <anchor x="369.07894736842104" y="0.0" name="bottom"/>
  <anchor x="731.4473684210527" y="0.0" name="ogonek"/>
  <anchor x="369.07894736842104" y="713.0" name="top"/>
  <outline>
    <contour>
      <point x="2.4473684210526336" y="0.0" type="curve"/>
      <point x="243.5" y="0.0" type="line"/>
      <point x="255.4736842105263" y="72.86842105263158"/>
      <point x="268.0" y="147.8421052631579"/>
      <point x="279.7894736842105" y="220.3421052631579" type="curve"/>
      <point x="360.7368421052632" y="540.7631578947369" type="line"/>
      <point x="374.89473684210526" y="540.7631578947369" type="line"/>
      <point x="454.8421052631579" y="216.5263157894737" type="line"/>
      <point x="466.2631578947369" y="148.0263157894737"/>
      <point x="479.4210526315789" y="69.42105263157895"/>
      <point x="491.2105263157895" y="0.0" type="curve"/>
      <point x="736.3421052631579" y="0.0" type="line"/>
      <point x="707.9736842105264" y="76.8157894736842"/>
      <point x="676.421052631579" y="161.81578947368422"/>
      <point x="646.8684210526316" y="241.0" type="curve"/>
      <point x="571.6315789473684" y="486.1842105263158" type="line"/>
      <point x="551.8684210526317" y="571.5526315789474"/>
      <point x="536.6578947368421" y="638.7368421052631"/>
      <point x="519.6315789473684" y="713.0" type="curve"/>
      <point x="220.89473684210526" y="713.0" type="line"/>
      <point x="203.6842105263158" y="638.3684210526316"/>
      <point x="187.84210526315792" y="571.921052631579"/>
      <point x="167.89473684210526" y="486.1842105263158" type="curve"/>
      <point x="92.47368421052632" y="241.18421052631578" type="line"/>
      <point x="63.92105263157896" y="164.3684210526316"/>
      <point x="31.184210526315784" y="77.1842105263158"/>
    </contour>
    <contour>
      <point x="212.05263157894737" y="132.0263157894737" type="line"/>
      <point x="548.3157894736843" y="132.0263157894737" type="line"/>
      <point x="529.5526315789474" y="284.39473684210526" type="line"/>
      <point x="234.89473684210523" y="284.39473684210526" type="line"/>
    </contour>
  </outline>
</glyph>
<glyph name="C" format="2">
  <advance width="681.921052631579"/>
  <unicode hex="0043"/>
  <anchor x="394.4736842105263" y="0.0" name="bottom"/>
  <anchor x="392.63157894736844" y="713.0" name="top"/>
  <outline>
    <contour>
      <point x="412.92105263157896" y="-14.710526315789473" type="curve" smooth="yes"/>
      <point x="452.7631578947368" y="-14.710526315789473"/>
      <point x="578.4999999999999" y="6.131578947368421"/>
      <point x="638.8684210526316" y="24.23684210526316" type="curve"/>
      <point x="628.7894736842105" y="216.60526315789474" type="line"/>
      <point x="564.578947368421" y="188.3157894736842"/>
      <point x="465.1315789473684" y="152.89473684210526"/>
      <point x="440.2894736842105" y="152.89473684210526" type="curve"/>
      <point x="308.42105263157896" y="156.71052631578948"/>
      <point x="245.55263157894737" y="247.23684210526315"/>
      <point x="245.55263157894737" y="355.55263157894734" type="curve" smooth="yes"/>
      <point x="245.55263157894737" y="487.39473684210526"/>
      <point x="322.1578947368421" y="551.1315789473684"/>
      <point x="398.7368421052632" y="554.9473684210526" type="curve"/>
      <point x="419.39473684210526" y="554.9473684210526"/>
      <point x="529.1842105263158" y="524.6842105263157"/>
      <point x="627.6315789473684" y="488.2368421052632" type="curve"/>
      <point x="642.421052631579" y="680.4210526315788" type="line"/>
      <point x="561.578947368421" y="703.3157894736842"/>
      <point x="441.0263157894737" y="728.2631578947369"/>
      <point x="400.55263157894734" y="728.2631578947369" type="curve" smooth="yes"/>
      <point x="162.94736842105263" y="728.2631578947369"/>
      <point x="30.63157894736842" y="568.6578947368421"/>
      <point x="30.63157894736842" y="354.92105263157896" type="curve" smooth="yes"/>
      <point x="30.63157894736842" y="130.1578947368421"/>
      <point x="177.8684210526316" y="-14.710526315789473"/>
    </contour>
  </outline>
</glyph>
<glyph name="D" format="2">
  <advance width="735.7368421052631"/>
  <unicode hex="0044"/>
  <anchor x="354.07894736842104" y="0.0" name="bottom"/>
  <anchor x="368.3684210526316" y="357.0" name="center"/>
  <anchor x="354.07894736842104" y="713.0" name="top"/>
  <outline>
    <contour>
      <point x="46.0" y="0.0" type="curve"/>
      <point x="126.26315789473685" y="-1.631578947368421"/>
      <point x="214.78947368421052" y="-4.2631578947368425"/>
      <point x="322.34210526315786" y="-7.526315789473684" type="curve"/>
      <point x="605.921052631579" y="-7.526315789473684"/>
      <point x="705.1052631578947" y="156.55263157894737"/>
      <point x="705.1052631578947" y="358.36842105263156" type="curve" smooth="yes"/>
      <point x="705.1052631578947" y="585.7105263157895"/>
      <point x="579.6578947368421" y="718.8947368421053"/>
      <point x="364.1842105263158" y="718.8947368421053" type="curve"/>
      <point x="247.9473684210526" y="716.4473684210527"/>
      <point x="131.2105263157895" y="714.6315789473684"/>
      <point x="46.0" y="713.0" type="curve"/>
      <point x="51.078947368421055" y="635.2631578947369"/>
      <point x="55.15789473684211" y="570.1578947368421"/>
      <point x="61.86842105263158" y="474.1842105263158" type="curve"/>
      <point x="61.86842105263158" y="230.6578947368421" type="line"/>
      <point x="55.97368421052632" y="139.57894736842104"/>
      <point x="51.078947368421055" y="74.47368421052632"/>
    </contour>
    <contour>
      <point x="272.89473684210526" y="163.1578947368421" type="line"/>
      <point x="271.89473684210526" y="197.71052631578948"/>
      <point x="269.4473684210526" y="233.78947368421052"/>
      <point x="268.4473684210526" y="282.86842105263156" type="curve"/>
      <point x="268.4473684210526" y="423.60526315789474" type="line"/>
      <point x="270.2631578947368" y="475.9473684210526"/>
      <point x="271.89473684210526" y="512.8421052631579"/>
      <point x="272.89473684210526" y="549.8421052631579" type="curve"/>
      <point x="328.1842105263158" y="549.8421052631579" type="line"/>
      <point x="451.02631578947364" y="544.3947368421053"/>
      <point x="490.1842105263158" y="473.60526315789474"/>
      <point x="490.1842105263158" y="361.0" type="curve" smooth="yes"/>
      <point x="490.1842105263158" y="247.23684210526315"/>
      <point x="455.6842105263158" y="169.42105263157896"/>
      <point x="321.7105263157895" y="163.1578947368421" type="curve"/>
    </contour>
  </outline>
</glyph>
<glyph name="E" format="2">
  <advance width="602.2815533980581"/>
  <unicode hex="0045"/>
  <anchor x="309.3592233009709" y="0.0" name="bottom"/>
  <anchor x="553.2233009708739" y="0.0" name="ogonek"/>
  <anchor x="309.3592233009709" y="713.0" name="top"/>
  <anchor x="37.66019417475728" y="713.0" name="topleft"/>
  <outline>
    <contour>
      <point x="45.93203883495146" y="0.0" type="curve"/>
      <point x="279.757281553398" y="0.0" type="line"/>
      <point x="279.757281553398" y="33.20388349514563" type="line"/>
      <point x="274.43689320388347" y="108.5631067961165"/>
      <point x="269.45631067961165" y="173.92233009708738"/>
      <point x="263.47572815533977" y="263.90291262135923" type="curve"/>
      <point x="263.47572815533977" y="441.13592233009706" type="line"/>
      <point x="269.45631067961165" y="534.4368932038834"/>
      <point x="274.43689320388347" y="602.1165048543689"/>
      <point x="279.757281553398" y="679.7961165048544" type="curve"/>
      <point x="279.757281553398" y="713.0" type="line"/>
      <point x="45.93203883495146" y="713.0" type="line"/>
      <point x="50.9126213592233" y="635.3203883495146"/>
      <point x="55.23300970873786" y="570.3009708737864"/>
      <point x="61.873786407766985" y="474.3398058252427" type="curve"/>
      <point x="61.873786407766985" y="230.6990291262136" type="line"/>
      <point x="55.89320388349514" y="139.71844660194174"/>
      <point x="50.9126213592233" y="74.35922330097087"/>
    </contour>
    <contour>
      <point x="241.21359223300968" y="0.0" type="line"/>
      <point x="558.2038834951456" y="0.0" type="line"/>
      <point x="558.2038834951456" y="180.07766990291262" type="line"/>
      <point x="495.8058252427184" y="174.75728155339803"/>
      <point x="429.40776699029124" y="169.7766990291262"/>
      <point x="354.33009708737865" y="164.45631067961165" type="curve"/>
      <point x="241.21359223300968" y="164.45631067961165" type="line"/>
    </contour>
    <contour>
      <point x="215.9902912621359" y="283.5728155339806" type="line"/>
      <point x="342.06796116504853" y="283.5728155339806" type="line"/>
      <point x="423.7864077669903" y="279.59223300970876"/>
      <point x="479.4854368932039" y="276.93203883495147"/>
      <point x="539.5242718446601" y="274.6116504854369" type="curve"/>
      <point x="539.5242718446601" y="443.1067961165049" type="line"/>
      <point x="482.4854368932038" y="440.4466019417476"/>
      <point x="426.7864077669903" y="437.126213592233"/>
      <point x="342.06796116504853" y="432.80582524271847" type="curve"/>
      <point x="215.9902912621359" y="432.80582524271847" type="line"/>
    </contour>
    <contour>
      <point x="228.27184466019415" y="548.5436893203884" type="line"/>
      <point x="340.36893203883494" y="548.5436893203884" type="line"/>
      <point x="430.78640776699024" y="541.5631067961166"/>
      <point x="493.84466019417476" y="537.5825242718448"/>
      <point x="552.5631067961164" y="532.9223300970873" type="curve"/>
      <point x="552.5631067961164" y="713.0" type="line"/>
      <point x="228.27184466019415" y="713.0" type="line"/>
    </contour>
  </outline>
</glyph>
<glyph name="F" format="2">
  <advance width="583.2368421052631"/>
  <unicode hex="0046"/>
  <outline>
    <contour>
      <point x="46.0" y="0.0" type="curve"/>
      <point x="279.60526315789474" y="0.0" type="line"/>
      <point x="274.52631578947364" y="75.28947368421052"/>
      <point x="269.4473684210526" y="140.39473684210526"/>
      <point x="263.55263157894734" y="230.6578947368421" type="curve"/>
      <point x="263.55263157894734" y="441.0" type="line"/>
      <point x="269.4473684210526" y="534.5263157894736"/>
      <point x="274.52631578947364" y="602.078947368421"/>
      <point x="279.60526315789474" y="679.8157894736842" type="curve"/>
      <point x="279.60526315789474" y="713.0" type="line"/>
      <point x="46.0" y="713.0" type="line"/>
      <point x="51.078947368421055" y="635.2631578947369"/>
      <point x="55.15789473684211" y="570.1578947368421"/>
      <point x="61.86842105263158" y="474.1842105263158" type="curve"/>
      <point x="61.86842105263158" y="230.6578947368421" type="line"/>
      <point x="55.97368421052632" y="139.57894736842104"/>
      <point x="51.078947368421055" y="74.47368421052632"/>
    </contour>
    <contour>
      <point x="211.05263157894734" y="263.7894736842105" type="line"/>
      <point x="335.2631578947368" y="263.7894736842105" type="line"/>
      <point x="417.02631578947364" y="259.7105263157895"/>
      <point x="472.6842105263158" y="257.07894736842104"/>
      <point x="532.7105263157895" y="254.6315789473684" type="curve"/>
      <point x="532.7105263157895" y="437.2894736842105" type="line"/>
      <point x="475.86842105263156" y="434.6578947368421"/>
      <point x="419.84210526315786" y="431.2105263157894"/>
      <point x="335.4473684210526" y="426.9473684210526" type="curve"/>
      <point x="211.05263157894734" y="426.9473684210526" type="line"/>
    </contour>
    <contour>
      <point x="224.10526315789474" y="542.5" type="line"/>
      <point x="334.60526315789474" y="542.5" type="line"/>
      <point x="425.02631578947364" y="535.7894736842105"/>
      <point x="487.9736842105263" y="531.3421052631579"/>
      <point x="546.7368421052631" y="527.078947368421" type="curve"/>
      <point x="546.7368421052631" y="713.0" type="line"/>
      <point x="224.10526315789474" y="713.0" type="line"/>
    </contour>
  </outline>
</glyph>
<glyph name="G" format="2">
  <advance width="724.7631578947368"/>
  <unicode hex="0047"/>
  <anchor x="394.4736842105263" y="0.0" name="bottom"/>
  <anchor x="394.4736842105263" y="713.0" name="top"/>
  <outline>
    <contour>
      <point x="418.0526315789474" y="-13.894736842105264" type="curve" smooth="yes"/>
      <point x="458.63157894736844" y="-13.894736842105264"/>
      <point x="619.1052631578947" y="3.7631578947368434"/>
      <point x="684.4736842105264" y="17.05263157894737" type="curve"/>
      <point x="650.7368421052631" y="202.07894736842104" type="line"/>
      <point x="577.4473684210526" y="177.78947368421052"/>
      <point x="467.7368421052631" y="148.81578947368422"/>
      <point x="436.8157894736842" y="148.81578947368422" type="curve"/>
      <point x="306.3157894736842" y="152.63157894736844"/>
      <point x="243.92105263157893" y="243.42105263157896"/>
      <point x="243.92105263157893" y="354.92105263157896" type="curve" smooth="yes"/>
      <point x="243.92105263157893" y="489.39473684210526"/>
      <point x="326.86842105263156" y="551.9473684210526"/>
      <point x="399.8421052631579" y="554.9473684210526" type="curve"/>
      <point x="422.3157894736842" y="554.9473684210526"/>
      <point x="542.4473684210527" y="525.5"/>
      <point x="649.7894736842105" y="489.0526315789474" type="curve"/>
      <point x="664.578947368421" y="677.9736842105262" type="line"/>
      <point x="576.8421052631579" y="702.5"/>
      <point x="445.57894736842104" y="728.2631578947369"/>
      <point x="401.4736842105263" y="728.2631578947369" type="curve" smooth="yes"/>
      <point x="169.3684210526316" y="728.2631578947369"/>
      <point x="30.63157894736842" y="575.2631578947369"/>
      <point x="30.63157894736842" y="355.7368421052632" type="curve" smooth="yes"/>
      <point x="30.63157894736842" y="138.31578947368422"/>
      <point x="173.94736842105263" y="-13.894736842105264"/>
    </contour>
    <contour>
      <point x="474.7105263157895" y="17.05263157894737" type="curve"/>
      <point x="684.4736842105264" y="17.05263157894737" type="line"/>
      <point x="681.0263157894738" y="91.57894736842105"/>
      <point x="677.7631578947369" y="147.55263157894737"/>
      <point x="675.1315789473684" y="205.71052631578948" type="curve"/>
      <point x="681.0263157894738" y="272.2368421052631"/>
      <point x="685.9210526315791" y="320.7631578947368"/>
      <point x="691.0" y="375.10526315789474" type="curve"/>
      <point x="466.3684210526316" y="375.10526315789474" type="line"/>
      <point x="471.44736842105266" y="320.7631578947368"/>
      <point x="476.5263157894737" y="272.2368421052631"/>
      <point x="482.42105263157896" y="205.71052631578948" type="curve"/>
      <point x="479.7894736842105" y="147.55263157894737"/>
      <point x="478.1578947368421" y="93.21052631578948"/>
    </contour>
  </outline>
</glyph>
<glyph name="I" format="2">
  <advance width="342.7368421052632"/>
  <unicode hex="0049"/>
  <anchor x="167.60526315789474" y="0.0" name="bottom"/>
  <anchor x="288.578947368421" y="0.0" name="ogonek"/>
  <anchor x="167.60526315789474" y="713.0" name="top"/>
  <anchor x="32.10526315789474" y="713.0" name="topleft"/>
  <outline>
    <contour>
      <point x="50.078947368421055" y="0.0" type="curve"/>
      <point x="292.6578947368421" y="0.0" type="line"/>
      <point x="287.578947368421" y="75.28947368421052"/>
      <point x="282.49999999999994" y="140.39473684210526"/>
      <point x="276.6052631578947" y="230.6578947368421" type="curve"/>
      <point x="276.6052631578947" y="474.1842105263158" type="line"/>
      <point x="283.31578947368416" y="570.1578947368421"/>
      <point x="287.578947368421" y="635.2631578947369"/>
      <point x="292.6578947368421" y="713.0" type="curve"/>
      <point x="50.078947368421055" y="713.0" type="line"/>
      <point x="55.15789473684211" y="635.2631578947369"/>
      <point x="59.23684210526316" y="570.1578947368421"/>
      <point x="65.94736842105263" y="474.1842105263158" type="curve"/>
      <point x="65.94736842105263" y="230.6578947368421" type="line"/>
      <point x="60.05263157894737" y="139.57894736842104"/>
      <point x="55.15789473684211" y="74.47368421052632"/>
    </contour>
  </outline>
</glyph>
<glyph name="J" format="2">
  <advance width="341.1578947368421"/>
  <unicode hex="004A"/>
  <anchor x="169.10526315789474" y="0.0" name="bottom"/>
  <anchor x="169.10526315789474" y="713.0" name="top"/>
  <outline>
    <contour>
      <point x="14.868421052631579" y="-153.47368421052633" type="curve"/>
      <point x="196.8157894736842" y="-153.47368421052633" type="line"/>
      <point x="226.89473684210523" y="-105.55263157894737"/>
      <point x="286.63157894736844" y="5.947368421052634"/>
      <point x="286.63157894736844" y="70.89473684210527" type="curve" smooth="yes"/>
      <point x="286.63157894736844" y="159.31578947368422"/>
      <point x="275.0263157894737" y="253.18421052631578"/>
      <point x="275.0263157894737" y="348.9473684210526" type="curve"/>
      <point x="275.0263157894737" y="474.1842105263158" type="line"/>
      <point x="281.5526315789474" y="570.1578947368421"/>
      <point x="285.63157894736844" y="635.2631578947369"/>
      <point x="291.07894736842104" y="713.0" type="curve"/>
      <point x="52.578947368421055" y="713.0" type="line"/>
      <point x="57.842105263157904" y="635.2631578947369"/>
      <point x="61.921052631578945" y="570.1578947368421"/>
      <point x="68.44736842105263" y="474.1842105263158" type="curve"/>
      <point x="68.44736842105263" y="343.2368421052631" type="line"/>
      <point x="64.81578947368422" y="71.42105263157895" type="line"/>
      <point x="47.13157894736841" y="-8.18421052631579"/>
      <point x="31.0" y="-81.23684210526316"/>
    </contour>
  </outline>
</glyph>
<glyph name="K" format="2">
  <advance width="717.9736842105264"/>
  <unicode hex="004B"/>
  <anchor x="367.89473684210526" y="0.0" name="bottom"/>
  <anchor x="367.89473684210526" y="713.0" name="top"/>
  <outline>
    <contour>
      <point x="442.7105263157895" y="0.0" type="curve"/>
      <point x="720.421052631579" y="0.0" type="line"/>
      <point x="672.1842105263157" y="68.78947368421052"/>
      <point x="595.7368421052631" y="178.92105263157893"/>
      <point x="539.578947368421" y="260.3421052631579" type="curve"/>
      <point x="425.42105263157896" y="440.89473684210526" type="line"/>
      <point x="429.5" y="350.2105263157895" type="line"/>
      <point x="532.1842105263158" y="490.92105263157896" type="line"/>
      <point x="590.1578947368422" y="565.1842105263158"/>
      <point x="646.6842105263158" y="637.0"/>
      <point x="707.3947368421052" y="713.0" type="curve"/>
      <point x="440.47368421052636" y="713.0" type="line"/>
      <point x="407.94736842105266" y="650.9473684210526"/>
      <point x="385.2894736842105" y="605.7368421052631"/>
      <point x="358.89473684210526" y="554.3421052631579" type="curve"/>
      <point x="292.6578947368421" y="451.5263157894737" type="line"/>
      <point x="253.10526315789474" y="451.5263157894737" type="line"/>
      <point x="253.10526315789474" y="291.63157894736844" type="line"/>
      <point x="295.7368421052631" y="291.63157894736844" type="line"/>
      <point x="367.39473684210526" y="163.3684210526316" type="line"/>
      <point x="390.9736842105263" y="112.34210526315789"/>
      <point x="414.7368421052631" y="60.94736842105264"/>
    </contour>
    <contour>
      <point x="46.0" y="0.0" type="curve"/>
      <point x="283.68421052631584" y="0.0" type="line"/>
      <point x="278.60526315789474" y="75.28947368421052"/>
      <point x="273.5263157894737" y="140.39473684210526"/>
      <point x="267.63157894736844" y="230.6578947368421" type="curve"/>
      <point x="267.63157894736844" y="474.1842105263158" type="line"/>
      <point x="274.3421052631579" y="570.1578947368421"/>
      <point x="278.60526315789474" y="635.2631578947369"/>
      <point x="283.68421052631584" y="713.0" type="curve"/>
      <point x="46.0" y="713.0" type="line"/>
      <point x="51.078947368421055" y="635.2631578947369"/>
      <point x="55.15789473684211" y="570.1578947368421"/>
      <point x="61.86842105263158" y="474.1842105263158" type="curve"/>
      <point x="61.86842105263158" y="230.6578947368421" type="line"/>
      <point x="55.97368421052632" y="139.57894736842104"/>
      <point x="51.078947368421055" y="74.47368421052632"/>
    </contour>
  </outline>
</glyph>
<glyph name="L" format="2">
  <advance width="576.6052631578948"/>
  <unicode hex="004C"/>
  <anchor x="301.86842105263156" y="0.0" name="bottom"/>
  <anchor x="447.07894736842104" y="359.44736842105266" name="center"/>
  <anchor x="243.18421052631578" y="713.0" name="top"/>
  <anchor x="315.3157894736842" y="500.5263157894737" name="topright"/>
  <outline>
    <contour>
      <point x="46.0" y="0.0" type="curve"/>
      <point x="284.5" y="0.0" type="line"/>
      <point x="284.5" y="33.18421052631579" type="line"/>
      <point x="279.4210526315789" y="108.47368421052632"/>
      <point x="274.34210526315786" y="173.57894736842107"/>
      <point x="268.4473684210526" y="263.8421052631579" type="curve"/>
      <point x="268.4473684210526" y="474.1842105263158" type="line"/>
      <point x="275.1578947368421" y="570.1578947368421"/>
      <point x="279.4210526315789" y="635.2631578947369"/>
      <point x="284.5" y="713.0" type="curve"/>
      <point x="46.0" y="713.0" type="line"/>
      <point x="51.078947368421055" y="635.2631578947369"/>
      <point x="55.15789473684211" y="570.1578947368421"/>
      <point x="61.86842105263158" y="474.1842105263158" type="curve"/>
      <point x="61.86842105263158" y="230.6578947368421" type="line"/>
      <point x="55.97368421052632" y="139.57894736842104"/>
      <point x="51.078947368421055" y="74.47368421052632"/>
    </contour>
    <contour>
      <point x="241.23684210526315" y="0.0" type="line"/>
      <point x="550.0263157894736" y="0.0" type="line"/>
      <point x="550.0263157894736" y="199.78947368421052" type="line"/>
      <point x="483.1578947368421" y="193.07894736842107"/>
      <point x="426.84210526315786" y="188.0"/>
      <point x="330.7631578947368" y="178.6578947368421" type="curve"/>
      <point x="241.23684210526315" y="178.6578947368421" type="line"/>
    </contour>
  </outline>
</glyph>
<glyph name="M" format="2">
  <advance width="967.1315789473684"/>
  <unicode hex="004D"/>
  <anchor x="483.15789473684214" y="0.0" name="bottom"/>
  <anchor x="483.15789473684214" y="713.0" name="top"/>
  <outline>
    <contour>
      <point x="26.23684210526316" y="0.0" type="curve"/>
      <point x="252.86842105263156" y="0.0" type="line"/>
      <point x="255.18421052631578" y="85.36842105263158"/>
      <point x="257.1315789473684" y="161.89473684210526"/>
      <point x="258.7105263157895" y="228.76315789473685" type="curve"/>
      <point x="276.47368421052636" y="373.15789473684214" type="line"/>
      <point x="290.07894736842104" y="373.15789473684214" type="line"/>
      <point x="345.15789473684214" y="218.18421052631578" type="line"/>
      <point x="365.3421052631579" y="144.39473684210523"/>
      <point x="386.8157894736842" y="65.65789473684211"/>
      <point x="404.5263157894737" y="0.0" type="curve"/>
      <point x="570.9473684210526" y="0.0" type="line"/>
      <point x="586.7631578947369" y="67.13157894736842"/>
      <point x="605.8684210526316" y="143.84210526315786"/>
      <point x="623.9736842105264" y="218.55263157894737" type="curve"/>
      <point x="670.078947368421" y="373.15789473684214" type="line"/>
      <point x="683.6842105263158" y="373.15789473684214" type="line"/>
      <point x="701.4473684210526" y="228.76315789473685" type="line"/>
      <point x="703.0263157894738" y="161.71052631578948"/>
      <point x="705.7894736842104" y="84.0"/>
      <point x="707.921052631579" y="0.0" type="curve"/>
      <point x="940.8947368421052" y="0.0" type="line"/>
      <point x="926.8157894736842" y="74.47368421052632"/>
      <point x="912.7368421052631" y="143.8421052631579"/>
      <point x="896.0263157894736" y="230.6578947368421" type="curve"/>
      <point x="864.7631578947369" y="472.1842105263158" type="line"/>
      <point x="858.0263157894738" y="558.5526315789474"/>
      <point x="852.4736842105264" y="634.4473684210527"/>
      <point x="846.7368421052632" y="713.0" type="curve"/>
      <point x="611.1315789473684" y="713.0" type="line"/>
      <point x="591.8684210526316" y="639.421052631579"/>
      <point x="576.2368421052631" y="579.8157894736842"/>
      <point x="559.1578947368421" y="518.3157894736842" type="curve"/>
      <point x="493.5" y="334.0" type="line"/>
      <point x="480.5263157894737" y="334.0" type="line"/>
      <point x="410.7894736842105" y="518.3157894736842" type="line"/>
      <point x="392.89473684210526" y="580.0"/>
      <point x="375.63157894736844" y="640.2368421052632"/>
      <point x="355.5526315789474" y="713.0" type="curve"/>
      <point x="115.68421052631578" y="713.0" type="line"/>
      <point x="109.94736842105263" y="633.2631578947369"/>
      <point x="105.21052631578948" y="557.6315789473684"/>
      <point x="99.47368421052632" y="472.1842105263158" type="curve"/>
      <point x="69.65789473684211" y="230.6578947368421" type="line"/>
      <point x="53.57894736842105" y="145.28947368421055"/>
      <point x="39.68421052631579" y="72.84210526315789"/>
    </contour>
  </outline>
</glyph>
<glyph name="N" format="2">
  <advance width="756.3684210526316"/>
  <unicode hex="004E"/>
  <anchor x="379.0" y="0.0" name="bottom"/>
  <anchor x="379.0" y="713.0" name="top"/>
  <outline>
    <contour>
      <point x="46.0" y="0.0" type="curve"/>
      <point x="270.63157894736844" y="0.0" type="line"/>
      <point x="265.55263157894734" y="75.28947368421052"/>
      <point x="260.4736842105263" y="140.39473684210526"/>
      <point x="254.57894736842104" y="230.6578947368421" type="curve"/>
      <point x="254.57894736842104" y="368.65789473684214" type="line"/>
      <point x="268.36842105263156" y="368.65789473684214" type="line"/>
      <point x="365.2631578947368" y="226.31578947368422" type="line"/>
      <point x="416.5263157894737" y="140.6578947368421"/>
      <point x="458.2105263157895" y="70.31578947368422"/>
      <point x="499.60526315789474" y="0.0" type="curve"/>
      <point x="710.3684210526316" y="0.0" type="line"/>
      <point x="705.2894736842105" y="75.28947368421052"/>
      <point x="700.2105263157895" y="140.39473684210526"/>
      <point x="694.3157894736842" y="230.6578947368421" type="curve"/>
      <point x="694.3157894736842" y="474.1842105263158" type="line"/>
      <point x="701.0263157894736" y="570.1578947368421"/>
      <point x="705.2894736842105" y="635.2631578947369"/>
      <point x="710.3684210526316" y="713.0" type="curve"/>
      <point x="485.7368421052632" y="713.0" type="line"/>
      <point x="490.8157894736842" y="635.2631578947369"/>
      <point x="494.89473684210526" y="570.1578947368421"/>
      <point x="501.60526315789474" y="474.1842105263158" type="curve"/>
      <point x="501.60526315789474" y="345.07894736842104" type="line"/>
      <point x="487.0" y="345.07894736842104" type="line"/>
      <point x="392.55263157894734" y="486.2368421052631" type="line"/>
      <point x="352.3157894736842" y="556.1315789473683"/>
      <point x="310.89473684210526" y="628.8421052631579"/>
      <point x="263.4736842105263" y="713.0" type="curve"/>
      <point x="46.0" y="713.0" type="line"/>
      <point x="51.078947368421055" y="635.2631578947369"/>
      <point x="55.15789473684211" y="570.1578947368421"/>
      <point x="61.86842105263158" y="474.1842105263158" type="curve"/>
      <point x="61.86842105263158" y="230.6578947368421" type="line"/>
      <point x="55.97368421052632" y="139.57894736842104"/>
      <point x="51.078947368421055" y="74.47368421052632"/>
    </contour>
  </outline>
</glyph>
<glyph name="R" format="2">
  <advance width="709.1067961165048"/>
  <unicode hex="0052"/>
  <anchor x="355.2233009708738" y="0.0" name="bottom"/>
  <anchor x="338.7184466019417" y="713.0" name="top"/>
  <outline>
    <contour>
      <point x="445.8640776699029" y="0.0" type="curve"/>
      <point x="709.6116504854369" y="0.0" type="line"/>
      <point x="670.5533980582525" y="57.0"/>
      <point x="612.1553398058252" y="143.64077669902912"/>
      <point x="567.0970873786407" y="209.3009708737864" type="curve"/>
      <point x="478.94174757281553" y="353.9417475728156" type="line"/>
      <point x="396.2912621359223" y="286.07766990291265" type="line"/>
      <point x="565.0291262135921" y="286.41747572815535"/>
      <point x="637.9514563106795" y="372.53398058252424"/>
      <point x="637.9514563106795" y="499.79611650485435" type="curve" smooth="yes"/>
      <point x="637.9514563106795" y="664.3009708737864"/>
      <point x="534.766990291262" y="718.9805825242718"/>
      <point x="353.8834951456311" y="718.9805825242718" type="curve"/>
      <point x="250.24271844660194" y="717.3203883495145"/>
      <point x="128.47572815533982" y="714.6601941747573"/>
      <point x="45.93203883495146" y="713.0" type="curve"/>
      <point x="199.36893203883494" y="555.8446601941747" type="line"/>
      <point x="347.5631067961165" y="555.8446601941747" type="line" smooth="yes"/>
      <point x="389.3980582524272" y="555.8446601941747"/>
      <point x="425.7281553398058" y="535.9223300970874"/>
      <point x="425.7281553398058" y="475.55339805825247" type="curve" smooth="yes"/>
      <point x="425.7281553398058" y="407.6407766990291"/>
      <point x="390.5728155339806" y="389.50485436893206"/>
      <point x="336.4466019417476" y="389.50485436893206" type="curve" smooth="yes"/>
      <point x="226.61165048543688" y="389.50485436893206" type="line"/>
      <point x="226.61165048543688" y="256.77669902912623" type="line"/>
      <point x="393.5922330097087" y="256.77669902912623" type="line"/>
      <point x="272.0194174757281" y="339.3009708737864" type="line"/>
      <point x="378.8543689320388" y="148.1359223300971" type="line"/>
      <point x="398.97087378640776" y="103.73786407766991"/>
      <point x="421.08737864077676" y="55.35922330097087"/>
    </contour>
    <contour>
      <point x="45.93203883495146" y="0.0" type="curve"/>
      <point x="280.4174757281553" y="0.0" type="line"/>
      <point x="275.4368932038835" y="75.35922330097087"/>
      <point x="270.11650485436894" y="140.37864077669903"/>
      <point x="264.4757281553398" y="230.6990291262136" type="curve"/>
      <point x="264.4757281553398" y="441.13592233009706" type="line"/>
      <point x="270.11650485436894" y="534.4368932038834"/>
      <point x="275.4368932038835" y="602.1165048543689"/>
      <point x="280.4174757281553" y="679.7961165048544" type="curve"/>
      <point x="45.93203883495146" y="713.0" type="line"/>
      <point x="50.9126213592233" y="635.3203883495146"/>
      <point x="55.23300970873786" y="570.3009708737864"/>
      <point x="61.873786407766985" y="474.3398058252427" type="curve"/>
      <point x="61.873786407766985" y="230.6990291262136" type="line"/>
      <point x="55.89320388349514" y="139.71844660194174"/>
      <point x="50.9126213592233" y="74.35922330097087"/>
    </contour>
  </outline>
</glyph>
<glyph name="S" format="2">
  <advance width="608.5242718446602"/>
  <unicode hex="0053"/>
  <anchor x="305.2815533980583" y="0.0" name="bottom"/>
  <anchor x="305.2815533980583" y="713.0" name="top"/>
  <outline>
    <contour>
      <point x="296.0194174757282" y="-14.640776699029125" type="curve" smooth="yes"/>
      <point x="498.4854368932039" y="-14.640776699029125"/>
      <point x="584.0873786407767" y="70.37864077669903"/>
      <point x="584.0873786407767" y="210.2233009708738" type="curve" smooth="yes"/>
      <point x="584.0873786407767" y="331.16504854368935"/>
      <point x="528.4271844660194" y="381.80582524271847"/>
      <point x="358.0873786407767" y="430.18446601941747" type="curve" smooth="yes"/>
      <point x="283.79611650485435" y="451.621359223301"/>
      <point x="250.01941747572815" y="467.378640776699"/>
      <point x="250.01941747572815" y="506.5533980582524" type="curve" smooth="yes"/>
      <point x="250.01941747572815" y="545.4271844660195"/>
      <point x="281.25242718446606" y="560.5436893203884"/>
      <point x="321.1650485436893" y="563.2038834951456" type="curve"/>
      <point x="340.1844660194175" y="563.2038834951456"/>
      <point x="438.1456310679612" y="538.5242718446601"/>
      <point x="529.7669902912621" y="509.18446601941747" type="curve"/>
      <point x="543.7281553398059" y="692.2427184466021" type="line"/>
      <point x="469.1650485436893" y="706.2621359223302"/>
      <point x="350.8834951456311" y="728.3203883495146"/>
      <point x="293.3009708737864" y="728.3203883495146" type="curve" smooth="yes"/>
      <point x="114.79611650485437" y="728.3203883495146"/>
      <point x="32.47572815533981" y="639.3592233009709"/>
      <point x="32.47572815533981" y="506.495145631068" type="curve" smooth="yes"/>
      <point x="32.47572815533981" y="377.8932038834952"/>
      <point x="107.49514563106797" y="326.2718446601942"/>
      <point x="233.23300970873788" y="292.2135922330097" type="curve" smooth="yes"/>
      <point x="314.7864077669903" y="269.79611650485435"/>
      <point x="367.54368932038835" y="252.03883495145632"/>
      <point x="367.54368932038835" y="207.50485436893206" type="curve" smooth="yes"/>
      <point x="367.54368932038835" y="166.5922330097087"/>
      <point x="335.31067961165047" y="150.15533980582524"/>
      <point x="293.6990291262136" y="147.49514563106794" type="curve"/>
      <point x="268.92233009708735" y="147.49514563106794"/>
      <point x="163.03883495145632" y="172.1553398058252"/>
      <point x="58.75728155339806" y="202.49514563106797" type="curve"/>
      <point x="44.79611650485437" y="19.097087378640776" type="line"/>
      <point x="135.09708737864077" y="2.0582524271844687"/>
      <point x="246.01941747572818" y="-14.640776699029125"/>
    </contour>
  </outline>
</glyph>
<glyph name="V" format="2">
  <advance width="726.7368421052632"/>
  <unicode hex="0056"/>
  <anchor x="363.5526315789474" y="0.0" name="bottom"/>
  <anchor x="363.5526315789474" y="713.0" name="top"/>
  <outline>
    <contour>
      <point x="210.4736842105263" y="0.0" type="curve"/>
      <point x="512.921052631579" y="0.0" type="line"/>
      <point x="529.5" y="73.1842105263158"/>
      <point x="548.2631578947369" y="155.1842105263158"/>
      <point x="564.4736842105264" y="225.81578947368422" type="curve"/>
      <point x="629.4473684210526" y="450.0" type="line"/>
      <point x="657.1842105263158" y="525.3684210526316"/>
      <point x="694.5526315789474" y="626.8157894736842"/>
      <point x="726.2894736842105" y="713.0" type="curve"/>
      <point x="465.8421052631579" y="713.0" type="line"/>
      <point x="452.02631578947364" y="628.8157894736842"/>
      <point x="436.8421052631579" y="529.7368421052632"/>
      <point x="423.2105263157895" y="447.5526315789474" type="curve"/>
      <point x="369.1842105263158" y="208.1315789473684" type="line"/>
      <point x="355.0263157894737" y="208.1315789473684" type="line"/>
      <point x="305.7105263157895" y="446.5526315789474" type="line"/>
      <point x="292.89473684210526" y="529.1842105263158"/>
      <point x="276.9736842105263" y="628.7368421052632"/>
      <point x="263.34210526315786" y="713.0" type="curve"/>
      <point x="-0.5526315789473664" y="713.0" type="line"/>
      <point x="32.0" y="623.7368421052632"/>
      <point x="68.10526315789475" y="525.1842105263157"/>
      <point x="95.8421052631579" y="450.0" type="curve"/>
      <point x="159.55263157894737" y="226.0" type="line"/>
      <point x="174.94736842105263" y="157.18421052631578"/>
      <point x="195.07894736842107" y="70.63157894736841"/>
    </contour>
  </outline>
</glyph>
<glyph name="W" format="2">
  <advance width="1061.8157894736842"/>
  <unicode hex="0057"/>
  <anchor x="525.921052631579" y="0.0" name="bottom"/>
  <anchor x="525.921052631579" y="713.0" name="top"/>
  <outline>
    <contour>
      <point x="184.81578947368422" y="0.0" type="curve"/>
      <point x="445.9473684210526" y="0.0" type="line"/>
      <point x="454.7368421052632" y="68.8421052631579"/>
      <point x="465.8157894736842" y="150.8157894736842"/>
      <point x="474.7894736842105" y="218.39473684210526" type="curve"/>
      <point x="513.1315789473684" y="415.8421052631579" type="line"/>
      <point x="527.2894736842105" y="415.8421052631579" type="line"/>
      <point x="567.4473684210526" y="219.21052631578948" type="line"/>
      <point x="576.421052631579" y="151.6315789473684"/>
      <point x="588.3157894736842" y="69.39473684210526"/>
      <point x="597.2894736842105" y="0.0" type="curve"/>
      <point x="873.1052631578947" y="0.0" type="line"/>
      <point x="886.3947368421053" y="68.63157894736841"/>
      <point x="903.2368421052631" y="153.99999999999997"/>
      <point x="917.7105263157895" y="225.18421052631578" type="curve"/>
      <point x="976.1052631578948" y="450.0" type="line"/>
      <point x="1001.1052631578947" y="525.7368421052631"/>
      <point x="1035.3684210526317" y="626.8157894736842"/>
      <point x="1065.0" y="713.0" type="curve"/>
      <point x="799.6578947368422" y="713.0" type="line"/>
      <point x="790.3157894736842" y="635.2631578947369"/>
      <point x="779.8684210526316" y="542.421052631579"/>
      <point x="771.3421052631579" y="467.3157894736842" type="curve"/>
      <point x="736.1578947368421" y="245.02631578947367" type="line"/>
      <point x="722.0" y="245.02631578947367" type="line"/>
      <point x="681.8421052631579" y="466.3157894736842" type="line"/>
      <point x="672.5" y="542.7894736842105"/>
      <point x="660.9736842105264" y="634.8947368421052"/>
      <point x="651.6315789473684" y="713.0" type="curve"/>
      <point x="409.0" y="713.0" type="line"/>
      <point x="399.2105263157895" y="634.6315789473686"/>
      <point x="388.13157894736844" y="542.0526315789474"/>
      <point x="379.1578947368421" y="467.3157894736842" type="curve"/>
      <point x="340.8157894736842" y="245.02631578947367" type="line"/>
      <point x="326.6578947368421" y="245.02631578947367" type="line"/>
      <point x="291.6578947368421" y="465.94736842105266" type="line"/>
      <point x="282.94736842105266" y="542.6052631578948"/>
      <point x="271.86842105263156" y="635.5263157894736"/>
      <point x="263.15789473684214" y="713.0" type="curve"/>
      <point x="-3.0" y="713.0" type="line"/>
      <point x="26.447368421052637" y="625.5526315789474"/>
      <point x="59.44736842105263" y="526.0000000000001"/>
      <point x="84.44736842105263" y="449.63157894736844" type="curve"/>
      <point x="141.0263157894737" y="225.0" type="line"/>
      <point x="154.5" y="156.81578947368422"/>
      <point x="171.1578947368421" y="71.81578947368422"/>
    </contour>
  </outline>
</glyph>
<glyph name="X" format="2">
  <advance width="739.7631578947369"/>
  <unicode hex="0058"/>
  <outline>
    <contour>
      <point x="7.7368421052631575" y="0.0" type="curve"/>
      <point x="269.92105263157896" y="0.0" type="line"/>
      <point x="284.4736842105263" y="46.3421052631579"/>
      <point x="297.55263157894734" y="90.6578947368421"/>
      <point x="309.99999999999994" y="131.26315789473685" type="curve"/>
      <point x="352.07894736842104" y="230.57894736842104" type="line"/>
      <point x="366.2368421052631" y="230.57894736842104" type="line"/>
      <point x="411.2368421052631" y="131.44736842105263" type="line"/>
      <point x="425.68421052631584" y="90.39473684210526"/>
      <point x="442.13157894736844" y="45.526315789473685"/>
      <point x="458.86842105263156" y="0.0" type="curve"/>
      <point x="734.4736842105262" y="0.0" type="line"/>
      <point x="684.6315789473686" y="76.0"/>
      <point x="640.9736842105264" y="142.0"/>
      <point x="590.1315789473684" y="219.81578947368422" type="curve"/>
      <point x="502.86842105263156" y="376.44736842105266" type="line"/>
      <point x="502.86842105263156" y="324.36842105263156" type="line"/>
      <point x="588.578947368421" y="497.86842105263156" type="line"/>
      <point x="623.8684210526316" y="556.5"/>
      <point x="667.9736842105264" y="629.3947368421052"/>
      <point x="718.5263157894738" y="713.0" type="curve"/>
      <point x="456.1578947368421" y="713.0" type="line"/>
      <point x="439.3421052631579" y="660.5"/>
      <point x="423.9736842105263" y="610.8947368421052"/>
      <point x="409.7105263157895" y="567.6578947368421" type="curve"/>
      <point x="374.02631578947364" y="482.10526315789474" type="line"/>
      <point x="359.86842105263156" y="482.10526315789474" type="line"/>
      <point x="322.1842105263158" y="567.4736842105264" type="line"/>
      <point x="307.10526315789474" y="610.3421052631579"/>
      <point x="290.1052631578948" y="661.3947368421053"/>
      <point x="271.9210526315789" y="713.0" type="curve"/>
      <point x="5.473684210526317" y="713.0" type="line"/>
      <point x="56.31578947368421" y="630.5526315789474"/>
      <point x="97.78947368421052" y="562.921052631579"/>
      <point x="139.44736842105263" y="495.2894736842105" type="curve"/>
      <point x="217.5263157894737" y="346.8421052631579" type="line"/>
      <point x="217.5263157894737" y="392.39473684210526" type="line"/>
      <point x="129.3421052631579" y="211.23684210526315" type="line"/>
      <point x="85.6842105263158" y="135.34210526315792"/>
      <point x="48.65789473684211" y="71.15789473684211"/>
    </contour>
  </outline>
</glyph>
<glyph name="Y" format="2">
  <advance width="699.1578947368421"/>
  <unicode hex="0059"/>
  <anchor x="352.5263157894737" y="0.0" name="bottom"/>
  <anchor x="352.5263157894737" y="713.0" name="top"/>
  <anchor x="20.0" y="713.0" name="topleft"/>
  <outline>
    <contour>
      <point x="253.5" y="236.3684210526316" type="line"/>
      <point x="450.7368421052632" y="236.3684210526316" type="line"/>
      <point x="591.7105263157895" y="525.7105263157895" type="line"/>
      <point x="627.3421052631579" y="585.6842105263158"/>
      <point x="661.0789473684212" y="643.3157894736843"/>
      <point x="701.9736842105264" y="713.0" type="curve"/>
      <point x="436.8947368421053" y="713.0" type="line"/>
      <point x="418.2105263157895" y="637.3684210526316"/>
      <point x="408.6842105263158" y="597.2368421052631"/>
      <point x="393.8421052631579" y="540.7894736842105" type="curve"/>
      <point x="360.42105263157896" y="449.13157894736844" type="line"/>
      <point x="344.63157894736844" y="449.13157894736844" type="line"/>
      <point x="311.47368421052636" y="542.5263157894736" type="line"/>
      <point x="297.1842105263158" y="598.2368421052632"/>
      <point x="287.8421052631579" y="636.5526315789474"/>
      <point x="269.1578947368421" y="713.0" type="curve"/>
      <point x="-3.263157894736839" y="713.0" type="line"/>
      <point x="43.631578947368425" y="636.7631578947368"/>
      <point x="75.63157894736842" y="584.6842105263158"/>
      <point x="111.07894736842105" y="525.7105263157895" type="curve"/>
    </contour>
    <contour>
      <point x="233.3684210526316" y="0.0" type="curve"/>
      <point x="471.86842105263156" y="0.0" type="line"/>
      <point x="466.7894736842105" y="75.28947368421052"/>
      <point x="461.7105263157895" y="140.39473684210526"/>
      <point x="455.8157894736842" y="230.6578947368421" type="curve"/>
      <point x="455.8157894736842" y="410.0263157894737" type="line"/>
      <point x="249.23684210526315" y="410.0263157894737" type="line"/>
      <point x="249.23684210526315" y="230.6578947368421" type="line"/>
      <point x="243.3421052631579" y="139.57894736842104"/>
      <point x="238.44736842105266" y="74.47368421052632"/>
    </contour>
  </outline>
</glyph>
<glyph name="Z" format="2">
  <advance width="695.7105263157895"/>
  <unicode hex="005A"/>
  <anchor x="347.9473684210526" y="0.0" name="bottom"/>
  <anchor x="347.9473684210526" y="357.0" name="center"/>
  <anchor x="347.9473684210526" y="713.0" name="top"/>
  <outline>
    <contour>
      <point x="34.60526315789474" y="0.0" type="line"/>
      <point x="660.1842105263158" y="0.0" type="line"/>
      <point x="660.1842105263158" y="191.8157894736842" type="line"/>
      <point x="594.2105263157896" y="185.92105263157893"/>
      <point x="491.1842105263158" y="176.57894736842104"/>
      <point x="418.4736842105263" y="169.68421052631578" type="curve"/>
      <point x="268.3157894736842" y="169.68421052631578" type="line"/>
      <point x="280.6842105263158" y="107.78947368421052" type="line"/>
      <point x="509.39473684210526" y="393.89473684210526" type="line"/>
      <point x="560.8947368421053" y="452.34210526315786"/>
      <point x="608.9473684210527" y="507.52631578947376"/>
      <point x="653.921052631579" y="559.4473684210526" type="curve"/>
      <point x="653.921052631579" y="713.0" type="line"/>
      <point x="46.31578947368421" y="713.0" type="line"/>
      <point x="46.31578947368421" y="518.1052631578947" type="line"/>
      <point x="130.39473684210526" y="527.2631578947368"/>
      <point x="206.6578947368421" y="535.7894736842105"/>
      <point x="275.0" y="543.3157894736842" type="curve"/>
      <point x="440.89473684210526" y="543.3157894736842" type="line"/>
      <point x="422.7894736842105" y="603.7368421052631" type="line"/>
      <point x="199.57894736842104" y="317.5263157894737" type="line"/>
      <point x="145.0" y="255.1842105263158"/>
      <point x="74.02631578947368" y="174.3421052631579"/>
      <point x="34.60526315789474" y="129.1578947368421" type="curve"/>
    </contour>
  </outline>
</glyph>
<glyph name="bracketleft" format="2">
  <advance width="426.57894736842104"/>
  <unicode hex="005B"/>
  <outline>
    <contour>
      <point x="51.894736842105274" y="-126.6842105263158" type="curve"/>
      <point x="250.23684210526315" y="-126.6842105263158" type="line"/>
      <point x="250.23684210526315" y="-93.5" type="line"/>
      <point x="245.15789473684208" y="-18.210526315789476"/>
      <point x="240.07894736842104" y="47.078947368421055"/>
      <point x="234.18421052631578" y="137.3421052631579" type="curve"/>
      <point x="234.18421052631578" y="506.7631578947368" type="line"/>
      <point x="240.07894736842104" y="600.2894736842105"/>
      <point x="245.15789473684208" y="667.8421052631579"/>
      <point x="250.23684210526315" y="745.578947368421" type="curve"/>
      <point x="250.23684210526315" y="778.7631578947369" type="line"/>
      <point x="51.894736842105274" y="778.7631578947369" type="line"/>
      <point x="56.15789473684212" y="699.3947368421052"/>
      <point x="59.42105263157896" y="635.921052631579"/>
      <point x="65.31578947368422" y="539.9473684210526" type="curve"/>
      <point x="65.31578947368422" y="103.97368421052632" type="line"/>
      <point x="60.236842105263165" y="13.710526315789473"/>
      <point x="56.15789473684212" y="-53.02631578947368"/>
    </contour>
    <contour>
      <point x="211.86842105263156" y="-126.6842105263158" type="line"/>
      <point x="400.07894736842104" y="-126.6842105263158" type="line"/>
      <point x="400.07894736842104" y="30.763157894736842" type="line"/>
      <point x="355.1578947368421" y="27.499999999999996"/>
      <point x="309.5" y="24.052631578947366"/>
      <point x="253.7631578947368" y="19.973684210526315" type="curve"/>
      <point x="211.86842105263156" y="19.973684210526315" type="line"/>
    </contour>
    <contour>
      <point x="198.81578947368422" y="632.1052631578948" type="line"/>
      <point x="243.42105263157896" y="632.1052631578948" type="line"/>
      <point x="308.52631578947364" y="628.0263157894738"/>
      <point x="353.6315789473684" y="624.578947368421"/>
      <point x="396.1842105263158" y="621.3157894736843" type="curve"/>
      <point x="396.1842105263158" y="778.7631578947369" type="line"/>
      <point x="198.81578947368422" y="778.7631578947369" type="line"/>
    </contour>
  </outline>
</glyph>
<glyph name="backslash" format="2">
  <advance width="476.3421052631579"/>
  <unicode hex="005C"/>
  <outline>
    <contour>
      <point x="266.7368421052632" y="0.0" type="curve"/>
      <point x="472.60526315789474" y="0.0" type="line"/>
      <point x="440.2368421052632" y="76.26315789473684"/>
      <point x="413.6842105263157" y="138.44736842105263"/>
      <point x="374.7631578947368" y="228.0" type="curve"/>
      <point x="282.9736842105263" y="476.0" type="line"/>
      <point x="253.02631578947367" y="571.1842105263158"/>
      <point x="232.99999999999997" y="636.1842105263158"/>
      <point x="208.78947368421052" y="713.0" type="curve"/>
      <point x="3.7368421052631597" y="713.0" type="line"/>
      <point x="38.28947368421053" y="632.1842105263158"/>
      <point x="65.02631578947368" y="569.0"/>
      <point x="104.94736842105263" y="474.0" type="curve"/>
      <point x="195.73684210526315" y="228.0" type="line"/>
      <point x="224.50000000000003" y="136.0"/>
      <point x="243.5263157894737" y="74.0"/>
    </contour>
  </outline>
</glyph>
<glyph name="asciicircum" format="2">
  <advance width="645.4736842105264"/>
  <unicode hex="005E"/>
  <outline>
    <contour>
      <point x="444.2105263157895" y="349.13157894736844" type="curve"/>
      <point x="604.3947368421052" y="350.9473684210526" type="line"/>
      <point x="552.078947368421" y="463.2631578947368"/>
      <point x="500.5789473684211" y="576.578947368421"/>
      <point x="448.2631578947368" y="688.8947368421053" type="curve"/>
      <point x="197.21052631578945" y="688.8947368421053" type="line"/>
      <point x="144.8947368421053" y="576.578947368421"/>
      <point x="93.39473684210527" y="465.2631578947368"/>
      <point x="41.07894736842105" y="352.9473684210526" type="curve"/>
      <point x="202.07894736842107" y="352.9473684210526" type="line"/>
      <point x="239.60526315789474" y="412.0263157894737"/>
      <point x="278.1315789473684" y="472.10526315789474"/>
      <point x="315.6578947368421" y="531.1842105263158" type="curve"/>
      <point x="329.8157894736842" y="531.1842105263158" type="line"/>
      <point x="368.15789473684214" y="470.2894736842105"/>
      <point x="405.8684210526316" y="410.0263157894737"/>
    </contour>
  </outline>
</glyph>
<glyph name="underscore" format="2">
  <advance width="445.2631578947368"/>
  <unicode hex="005F"/>
  <outline>
    <contour>
      <point x="-10.0" y="-192.78947368421052" type="line"/>
      <point x="61.868421052631575" y="-190.15789473684208"/>
      <point x="136.21052631578948" y="-187.52631578947367"/>
      <point x="189.1578947368421" y="-185.89473684210526" type="curve"/>
      <point x="256.10526315789474" y="-185.89473684210526" type="line"/>
      <point x="309.0526315789474" y="-187.52631578947367"/>
      <point x="383.39473684210526" y="-190.15789473684208"/>
      <point x="455.2631578947368" y="-192.78947368421052" type="curve"/>
      <point x="455.2631578947368" y="-28.63157894736842" type="line"/>
      <point x="383.39473684210526" y="-31.263157894736842"/>
      <point x="309.0526315789474" y="-33.89473684210527"/>
      <point x="256.10526315789474" y="-35.526315789473685" type="curve"/>
      <point x="189.1578947368421" y="-35.526315789473685" type="line"/>
      <point x="136.21052631578948" y="-33.89473684210527"/>
      <point x="61.868421052631575" y="-31.263157894736842"/>
      <point x="-10.0" y="-28.63157894736842" type="curve"/>
    </contour>
  </outline>
</glyph>
<glyph name="a" format="2">
  <advance width="533.0"/>
  <unicode hex="0061"/>
  <anchor x="264.66019417475724" y="0.0" name="bottom"/>
  <anchor x="484.80582524271847" y="0.0" name="ogonek"/>
  <anchor x="264.66019417475724" y="500.6407766990291" name="top"/>
  <outline>
    <contour>
      <point x="161.9514563106796" y="-12.980582524271846" type="curve" smooth="yes"/>
      <point x="197.27184466019418" y="-12.980582524271846"/>
      <point x="258.9902912621359" y="22.262135922330103"/>
      <point x="311.40776699029124" y="63.640776699029125" type="curve"/>
      <point x="323.7087378640777" y="63.640776699029125" type="line"/>
      <point x="340.7281553398058" y="0.0" type="line"/>
      <point x="515.4854368932039" y="0.0" type="line"/>
      <point x="502.4854368932039" y="64.92233009708737"/>
      <point x="491.8252427184466" y="123.14563106796115"/>
      <point x="483.4854368932039" y="177.4271844660194" type="curve"/>
      <point x="483.4854368932039" y="211.6601941747573" type="line" smooth="yes"/>
      <point x="483.4854368932039" y="246.37864077669903"/>
      <point x="487.1456310679612" y="299.3592233009708"/>
      <point x="487.1456310679612" y="333.3398058252427" type="curve" smooth="yes"/>
      <point x="487.1456310679612" y="461.9611650485437"/>
      <point x="404.14563106796123" y="515.2815533980582"/>
      <point x="277.94174757281553" y="515.2815533980582" type="curve" smooth="yes"/>
      <point x="247.58252427184465" y="515.2815533980582"/>
      <point x="97.4757281553398" y="491.621359223301"/>
      <point x="47.83495145631068" y="480.96116504854365" type="curve"/>
      <point x="54.815533980582536" y="315.8252427184466" type="line"/>
      <point x="115.2135922330097" y="334.5048543689321"/>
      <point x="218.4368932038835" y="363.80582524271847"/>
      <point x="231.4757281553398" y="363.80582524271847" type="curve" smooth="yes"/>
      <point x="282.87378640776694" y="363.80582524271847"/>
      <point x="317.02912621359224" y="347.4271844660194"/>
      <point x="315.34951456310677" y="311.73786407766994" type="curve"/>
      <point x="181.9126213592233" y="288.75728155339806" type="line" smooth="yes"/>
      <point x="120.39805825242718" y="278.0776699029126"/>
      <point x="25.174757281553397" y="245.6990291262136"/>
      <point x="25.174757281553397" y="130.07766990291262" type="curve" smooth="yes"/>
      <point x="25.174757281553397" y="48.601941747572816"/>
      <point x="73.99029126213593" y="-12.980582524271846"/>
    </contour>
    <contour>
      <point x="244.2038834951456" y="128.87378640776697" type="curve" smooth="yes"/>
      <point x="222.72815533980582" y="128.87378640776697"/>
      <point x="201.2912621359223" y="140.9126213592233"/>
      <point x="201.2912621359223" y="171.3883495145631" type="curve" smooth="yes"/>
      <point x="201.2912621359223" y="201.16504854368932"/>
      <point x="221.00970873786406" y="216.94174757281553"/>
      <point x="246.20388349514562" y="223.62135922330097" type="curve" smooth="yes"/>
      <point x="288.252427184466" y="234.32038834951456"/>
      <point x="300.33009708737865" y="239.98058252427185"/>
      <point x="310.36893203883494" y="248.98058252427185" type="curve"/>
      <point x="310.36893203883494" y="169.48543689320388" type="line"/>
      <point x="287.873786407767" y="149.00970873786406"/>
      <point x="252.9417475728155" y="128.87378640776697"/>
    </contour>
  </outline>
</glyph>
<glyph name="c" format="2">
  <advance width="479.1578947368421"/>
  <unicode hex="0063"/>
  <anchor x="276.94736842105266" y="0.0" name="bottom"/>
  <anchor x="275.2894736842105" y="500.5263157894737" name="top"/>
  <outline>
    <contour>
      <point x="295.0263157894737" y="-11.447368421052632" type="curve" smooth="yes"/>
      <point x="322.3157894736842" y="-11.447368421052632"/>
      <point x="409.2631578947369" y="0.3947368421052637"/>
      <point x="450.63157894736844" y="10.68421052631579" type="curve"/>
      <point x="442.8157894736842" y="166.6052631578947" type="line"/>
      <point x="409.13157894736844" y="154.21052631578948"/>
      <point x="357.0" y="139.6578947368421"/>
      <point x="343.9736842105263" y="139.6578947368421" type="curve" smooth="yes"/>
      <point x="264.7894736842106" y="141.0263157894737"/>
      <point x="216.18421052631578" y="184.0"/>
      <point x="216.18421052631578" y="254.52631578947367" type="curve" smooth="yes"/>
      <point x="216.18421052631578" y="318.10526315789474"/>
      <point x="253.76315789473685" y="355.60526315789474"/>
      <point x="305.7894736842105" y="358.60526315789474" type="curve"/>
      <point x="318.07894736842104" y="358.60526315789474"/>
      <point x="382.2631578947368" y="341.42105263157896"/>
      <point x="439.36842105263156" y="320.86842105263156" type="curve"/>
      <point x="452.5263157894737" y="480.05263157894734" type="line"/>
      <point x="395.7631578947368" y="496.9473684210526"/>
      <point x="311.3157894736843" y="514.6052631578947"/>
      <point x="283.57894736842104" y="514.6052631578947" type="curve" smooth="yes"/>
      <point x="112.47368421052632" y="514.6052631578947"/>
      <point x="26.10526315789474" y="401.9736842105263"/>
      <point x="26.10526315789474" y="248.81578947368422" type="curve" smooth="yes"/>
      <point x="26.10526315789474" y="96.65789473684211"/>
      <point x="125.3421052631579" y="-11.447368421052632"/>
    </contour>
  </outline>
</glyph>
<glyph name="d" format="2">
  <advance width="589.9473684210526"/>
  <unicode hex="0064"/>
  <anchor x="319.05263157894734" y="0.0" name="bottom"/>
  <anchor x="294.7105263157895" y="250.26315789473685" name="center"/>
  <anchor x="319.05263157894734" y="731.1578947368421" name="top"/>
  <anchor x="571.1052631578947" y="500.5263157894737" name="topright"/>
  <outline>
    <contour>
      <point x="221.81578947368422" y="-14.710526315789473" type="curve" smooth="yes"/>
      <point x="259.2105263157895" y="-14.710526315789473"/>
      <point x="304.7368421052632" y="6.157894736842106"/>
      <point x="363.7105263157895" y="55.5" type="curve"/>
      <point x="375.42105263157896" y="55.5" type="line"/>
      <point x="388.02631578947364" y="0.0" type="line"/>
      <point x="559.9736842105262" y="0.0" type="line"/>
      <point x="554.8947368421053" y="70.92105263157895"/>
      <point x="550.6315789473684" y="131.0263157894737"/>
      <point x="544.7368421052631" y="214.47368421052633" type="curve"/>
      <point x="544.7368421052631" y="493.1842105263158" type="line"/>
      <point x="552.2631578947368" y="587.1578947368421"/>
      <point x="558.9736842105264" y="671.8684210526316"/>
      <point x="564.8684210526316" y="749.7894736842105" type="curve"/>
      <point x="328.44736842105266" y="731.4473684210526" type="line"/>
      <point x="339.42105263157896" y="650.4736842105264"/>
      <point x="349.57894736842104" y="573.2894736842105"/>
      <point x="358.10526315789474" y="493.1842105263158" type="curve"/>
      <point x="358.10526315789474" y="452.8421052631579" type="line"/>
      <point x="343.9473684210526" y="452.8421052631579" type="line"/>
      <point x="302.65789473684214" y="488.4736842105263"/>
      <point x="253.63157894736844" y="515.421052631579"/>
      <point x="223.0" y="515.421052631579" type="curve" smooth="yes"/>
      <point x="92.97368421052632" y="515.421052631579"/>
      <point x="27.736842105263158" y="399.2631578947368"/>
      <point x="27.736842105263158" y="250.6315789473684" type="curve" smooth="yes"/>
      <point x="27.736842105263158" y="111.63157894736842"/>
      <point x="88.05263157894737" y="-14.710526315789473"/>
    </contour>
    <contour>
      <point x="296.05263157894734" y="142.10526315789474" type="curve"/>
      <point x="246.07894736842104" y="145.10526315789474"/>
      <point x="218.63157894736844" y="194.6315789473684"/>
      <point x="218.63157894736844" y="249.0" type="curve" smooth="yes"/>
      <point x="218.63157894736844" y="306.7368421052632"/>
      <point x="247.81578947368422" y="353.1578947368421"/>
      <point x="296.42105263157896" y="356.1578947368421" type="curve"/>
      <point x="314.9473684210526" y="353.52631578947364"/>
      <point x="339.89473684210526" y="342.2894736842105"/>
      <point x="358.10526315789474" y="325.2631578947368" type="curve"/>
      <point x="358.10526315789474" y="182.07894736842104" type="line"/>
      <point x="341.7368421052631" y="161.18421052631578"/>
      <point x="315.97368421052636" y="144.92105263157896"/>
    </contour>
  </outline>
</glyph>
<glyph name="e" format="2">
  <advance width="526.3398058252427"/>
  <unicode hex="0065"/>
  <anchor x="276.7184466019417" y="0.0" name="bottom"/>
  <anchor x="426.4271844660194" y="0.0" name="ogonek"/>
  <anchor x="275.0194174757282" y="500.6407766990291" name="top"/>
  <outline>
    <contour>
      <point x="312.32038834951453" y="-14.640776699029125" type="curve" smooth="yes"/>
      <point x="355.28155339805824" y="-14.640776699029125"/>
      <point x="441.56310679611653" y="0.3786407766990292"/>
      <point x="492.2038834951456" y="14.718446601941748" type="curve"/>
      <point x="486.22330097087377" y="169.2135922330097" type="line"/>
      <point x="427.242718446602" y="154.1747572815534"/>
      <point x="357.5631067961165" y="137.1747572815534"/>
      <point x="335.88349514563106" y="137.1747572815534" type="curve" smooth="yes"/>
      <point x="243.36893203883494" y="137.1747572815534"/>
      <point x="203.9126213592233" y="176.38834951456312"/>
      <point x="203.9126213592233" y="248.3398058252427" type="curve"/>
      <point x="203.9126213592233" y="272.2427184466019" type="line"/>
      <point x="203.9126213592233" y="345.3980582524272"/>
      <point x="236.06796116504853" y="387.2718446601942"/>
      <point x="276.3592233009709" y="391.2718446601942" type="curve"/>
      <point x="310.5922330097087" y="388.93203883495147"/>
      <point x="337.0873786407767" y="355.5145631067961"/>
      <point x="337.0873786407767" y="299.9805825242718" type="curve" smooth="yes"/>
      <point x="337.0873786407767" y="292.3009708737864"/>
      <point x="337.0873786407767" y="284.62135922330094"/>
      <point x="336.0873786407767" y="276.2815533980583" type="curve"/>
      <point x="495.22330097087377" y="221.39805825242718" type="line"/>
      <point x="498.22330097087377" y="242.05825242718447"/>
      <point x="499.88349514563106" y="261.7184466019417"/>
      <point x="499.88349514563106" y="289.6990291262136" type="curve" smooth="yes"/>
      <point x="499.88349514563106" y="444.92233009708735"/>
      <point x="416.92233009708735" y="515.2815533980582"/>
      <point x="274.6990291262136" y="515.2815533980582" type="curve" smooth="yes"/>
      <point x="106.19417475728156" y="515.2815533980582"/>
      <point x="26.155339805825246" y="406.3009708737864"/>
      <point x="26.155339805825246" y="251.0" type="curve" smooth="yes"/>
      <point x="26.155339805825246" y="95.35922330097087"/>
      <point x="110.4757281553398" y="-14.640776699029125"/>
    </contour>
    <contour>
      <point x="96.92233009708737" y="221.39805825242718" type="line"/>
      <point x="495.22330097087377" y="221.39805825242718" type="line"/>
      <point x="495.22330097087377" y="292.56310679611653" type="line"/>
      <point x="387.59223300970876" y="311.3592233009709" type="line"/>
      <point x="96.92233009708737" y="303.05825242718447" type="line"/>
    </contour>
  </outline>
</glyph>
<glyph name="g" format="2">
  <advance width="557.242718446602"/>
  <unicode hex="0067"/>
  <anchor x="278.94174757281553" y="-192.0" name="bottom"/>
  <anchor x="278.94174757281553" y="500.6407766990291" name="top"/>
  <outline>
    <contour>
      <point x="236.37864077669903" y="-205.32038834951456" type="curve" smooth="yes"/>
      <point x="374.242718446602" y="-205.32038834951456"/>
      <point x="533.4271844660194" y="-155.62135922330097"/>
      <point x="533.4271844660194" y="-6.83495145631068" type="curve" smooth="yes"/>
      <point x="533.4271844660194" y="102.33009708737863"/>
      <point x="449.242718446602" y="129.3495145631068"/>
      <point x="328.46601941747576" y="129.3495145631068" type="curve" smooth="yes"/>
      <point x="309.4466019417476" y="129.3495145631068" type="line" smooth="yes"/>
      <point x="261.6116504854369" y="129.3495145631068"/>
      <point x="240.5533980582524" y="133.36893203883494"/>
      <point x="240.5533980582524" y="150.74757281553397" type="curve" smooth="yes"/>
      <point x="240.5533980582524" y="169.4271844660194"/>
      <point x="262.63106796116506" y="175.44660194174756"/>
      <point x="310.7669902912622" y="185.48543689320388" type="curve" smooth="yes"/>
      <point x="396.18446601941747" y="203.18446601941747"/>
      <point x="472.1067961165049" y="247.24271844660194"/>
      <point x="472.1067961165049" y="339.66019417475724" type="curve" smooth="yes"/>
      <point x="472.1067961165049" y="390.71844660194176"/>
      <point x="454.7281553398058" y="431.09708737864077"/>
      <point x="420.5728155339806" y="459.09708737864077" type="curve"/>
      <point x="372.7281553398058" y="391.6699029126213" type="line"/>
      <point x="428.4466019417476" y="381.0291262135922"/>
      <point x="479.84466019417476" y="371.0679611650485"/>
      <point x="539.8834951456312" y="358.44660194174753" type="curve"/>
      <point x="539.8834951456312" y="503.62135922330094" type="line"/>
      <point x="412.0485436893204" y="503.62135922330094" type="line" smooth="yes"/>
      <point x="337.504854368932" y="503.62135922330094"/>
      <point x="310.8640776699029" y="515.2815533980582"/>
      <point x="250.28155339805824" y="515.2815533980582" type="curve" smooth="yes"/>
      <point x="91.21359223300972" y="515.2815533980582"/>
      <point x="25.815533980582526" y="442.98058252427177"/>
      <point x="25.815533980582526" y="334.11650485436894" type="curve" smooth="yes"/>
      <point x="25.815533980582526" y="282.9223300970874"/>
      <point x="75.9514563106796" y="236.24271844660194"/>
      <point x="138.83495145631068" y="192.99999999999997" type="curve"/>
      <point x="138.83495145631068" y="181.6990291262136" type="line"/>
      <point x="90.1359223300971" y="163.6601941747573"/>
      <point x="70.81553398058253" y="130.0388349514563"/>
      <point x="70.81553398058253" y="97.03883495145631" type="curve" smooth="yes"/>
      <point x="70.81553398058253" y="53.33980582524272"/>
      <point x="104.83495145631069" y="27.737864077669897"/>
      <point x="132.73786407766988" y="21.398058252427184" type="curve"/>
      <point x="132.73786407766988" y="9.757281553398059" type="line"/>
      <point x="74.5728155339806" y="-21.485436893203882"/>
      <point x="36.43689320388349" y="-56.52427184466019"/>
      <point x="36.43689320388349" y="-91.3009708737864" type="curve" smooth="yes"/>
      <point x="36.43689320388349" y="-151.94174757281553"/>
      <point x="84.07766990291262" y="-205.32038834951456"/>
    </contour>
    <contour>
      <point x="271.22330097087377" y="-87.25242718446603" type="curve"/>
      <point x="217.0291262135922" y="-84.59223300970875"/>
      <point x="188.33009708737862" y="-65.21359223300972"/>
      <point x="188.33009708737862" y="-48.11650485436893" type="curve" smooth="yes"/>
      <point x="188.33009708737862" y="-34.71844660194175"/>
      <point x="230.12621359223297" y="-16.961165048543688"/>
      <point x="253.56310679611653" y="-8.5631067961165" type="curve"/>
      <point x="269.0582524271845" y="-8.5631067961165" type="line" smooth="yes"/>
      <point x="333.68932038834953" y="-8.5631067961165"/>
      <point x="359.70873786407776" y="-21.92233009708738"/>
      <point x="359.70873786407776" y="-41.359223300970875" type="curve" smooth="yes"/>
      <point x="359.70873786407776" y="-61.796116504854375"/>
      <point x="318.9126213592233" y="-81.57281553398059"/>
    </contour>
    <contour>
      <point x="244.92233009708738" y="266.44660194174753" type="curve"/>
      <point x="219.10679611650485" y="283.86407766990294"/>
      <point x="195.5533980582524" y="305.3203883495146"/>
      <point x="195.5533980582524" y="321.4757281553398" type="curve" smooth="yes"/>
      <point x="195.5533980582524" y="349.02912621359224"/>
      <point x="219.42718446601944" y="366.1067961165049"/>
      <point x="248.28155339805826" y="369.1067961165049" type="curve"/>
      <point x="285.3980582524271" y="366.7669902912622"/>
      <point x="316.2330097087379" y="351.02912621359224"/>
      <point x="316.2330097087379" y="320.09708737864077" type="curve" smooth="yes"/>
      <point x="316.2330097087379" y="287.86407766990294"/>
      <point x="272.7378640776699" y="271.8252427184466"/>
    </contour>
  </outline>
</glyph>
<glyph name="k" format="2">
  <advance width="598.3947368421053"/>
  <unicode hex="006B"/>
  <anchor x="297.36842105263156" y="0.0" name="bottom"/>
  <anchor x="297.36842105263156" y="731.1578947368421" name="top"/>
  <outline>
    <contour>
      <point x="352.1578947368421" y="0.0" type="curve"/>
      <point x="603.7631578947369" y="0.0" type="line"/>
      <point x="557.2368421052631" y="61.89473684210526"/>
      <point x="510.2631578947369" y="124.42105263157895"/>
      <point x="463.7368421052632" y="186.31578947368422" type="curve"/>
      <point x="381.4736842105263" y="309.57894736842104" type="line"/>
      <point x="390.44736842105266" y="228.57894736842104" type="line"/>
      <point x="453.1842105263158" y="318.10526315789474" type="line"/>
      <point x="499.3421052631579" y="379.1842105263158"/>
      <point x="544.7631578947368" y="439.2631578947369"/>
      <point x="591.9210526315788" y="500.5263157894737" type="curve"/>
      <point x="354.55263157894734" y="500.5263157894737" type="line"/>
      <point x="336.0789473684211" y="458.86842105263156"/>
      <point x="318.2368421052632" y="417.8421052631579"/>
      <point x="299.7631578947368" y="376.1842105263158" type="curve"/>
      <point x="262.2368421052632" y="308.42105263157896" type="line"/>
      <point x="224.07894736842104" y="308.42105263157896" type="line"/>
      <point x="224.07894736842104" y="187.42105263157896" type="line"/>
      <point x="260.94736842105266" y="187.42105263157896" type="line"/>
      <point x="301.34210526315786" y="115.1842105263158" type="line"/>
      <point x="318.5526315789474" y="76.78947368421052"/>
      <point x="335.7631578947369" y="38.39473684210526"/>
    </contour>
    <contour>
      <point x="36.736842105263165" y="0.0" type="curve"/>
      <point x="253.6578947368421" y="0.0" type="line"/>
      <point x="248.57894736842107" y="60.31578947368421"/>
      <point x="243.5" y="113.07894736842105"/>
      <point x="238.42105263157896" y="176.13157894736844" type="curve"/>
      <point x="238.42105263157896" y="493.1842105263158" type="line"/>
      <point x="245.94736842105263" y="587.1578947368421"/>
      <point x="252.65789473684214" y="671.8684210526316"/>
      <point x="258.55263157894734" y="749.7894736842105" type="curve"/>
      <point x="22.131578947368425" y="731.4473684210526" type="line"/>
      <point x="33.10526315789474" y="650.4736842105264"/>
      <point x="43.26315789473684" y="573.2894736842105"/>
      <point x="51.78947368421053" y="493.1842105263158" type="curve"/>
      <point x="51.78947368421053" y="214.47368421052633" type="line"/>
      <point x="45.89473684210527" y="131.0263157894737"/>
      <point x="41.81578947368421" y="70.92105263157895"/>
    </contour>
  </outline>
</glyph>
<glyph name="n" format="2">
  <advance width="596.8421052631578"/>
  <unicode hex="006E"/>
  <anchor x="298.07894736842104" y="0.0" name="bottom"/>
  <anchor x="298.07894736842104" y="500.5263157894737" name="top"/>
  <outline>
    <contour>
      <point x="41.10526315789474" y="0.0" type="curve"/>
      <point x="258.0263157894737" y="0.0" type="line"/>
      <point x="252.94736842105266" y="70.10526315789474"/>
      <point x="247.8684210526316" y="131.0263157894737"/>
      <point x="242.78947368421055" y="203.8684210526316" type="curve"/>
      <point x="242.78947368421055" y="302.05263157894734" type="line"/>
      <point x="265.10526315789474" y="324.7368421052631"/>
      <point x="301.0526315789474" y="346.36842105263156"/>
      <point x="313.05263157894734" y="346.36842105263156" type="curve" smooth="yes"/>
      <point x="349.7631578947368" y="346.36842105263156"/>
      <point x="361.8157894736842" y="316.7631578947368"/>
      <point x="361.8157894736842" y="254.21052631578948" type="curve"/>
      <point x="361.8157894736842" y="203.8684210526316" type="line"/>
      <point x="357.5526315789474" y="131.0263157894737"/>
      <point x="353.4736842105263" y="70.10526315789474"/>
      <point x="349.2105263157895" y="0.0" type="curve"/>
      <point x="564.5" y="0.0" type="line"/>
      <point x="559.421052631579" y="70.10526315789474"/>
      <point x="554.342105263158" y="131.0263157894737"/>
      <point x="548.4473684210527" y="214.47368421052633" type="curve"/>
      <point x="548.4473684210527" y="251.07894736842104"/>
      <point x="552.7105263157895" y="294.42105263157896"/>
      <point x="552.7105263157895" y="338.2368421052631" type="curve" smooth="yes"/>
      <point x="552.7105263157895" y="457.13157894736844"/>
      <point x="495.2105263157895" y="515.421052631579"/>
      <point x="396.4473684210526" y="515.421052631579" type="curve" smooth="yes"/>
      <point x="356.02631578947364" y="515.421052631579"/>
      <point x="290.60526315789474" y="476.9736842105263"/>
      <point x="234.92105263157896" y="433.2631578947368" type="curve"/>
      <point x="219.94736842105263" y="433.2631578947368" type="line"/>
      <point x="210.6842105263158" y="509.2368421052632" type="line"/>
      <point x="30.842105263157897" y="500.5263157894737" type="line"/>
      <point x="40.36842105263159" y="423.42105263157896"/>
      <point x="48.44736842105264" y="350.8421052631579"/>
      <point x="56.15789473684211" y="277.55263157894734" type="curve"/>
      <point x="56.15789473684211" y="214.47368421052633" type="line"/>
      <point x="50.26315789473685" y="131.0263157894737"/>
      <point x="46.184210526315795" y="70.92105263157895"/>
    </contour>
  </outline>
</glyph>
<glyph name="p" format="2">
  <advance width="600.8947368421053"/>
  <unicode hex="0070"/>
  <outline>
    <contour>
      <point x="40.92105263157895" y="-197.26315789473685" type="curve"/>
      <point x="262.10526315789474" y="-192.0" type="line"/>
      <point x="255.39473684210526" y="-121.89473684210526"/>
      <point x="250.31578947368422" y="-60.973684210526315"/>
      <point x="242.78947368421055" y="11.868421052631579" type="curve"/>
      <point x="242.78947368421055" y="44.89473684210527" type="line"/>
      <point x="252.8684210526316" y="44.89473684210527" type="line"/>
      <point x="305.3157894736842" y="3.7105263157894743"/>
      <point x="346.57894736842104" y="-14.710526315789473"/>
      <point x="379.07894736842104" y="-14.710526315789473" type="curve" smooth="yes"/>
      <point x="512.8421052631579" y="-14.710526315789473"/>
      <point x="573.1578947368421" y="111.63157894736842"/>
      <point x="573.1578947368421" y="250.6315789473684" type="curve" smooth="yes"/>
      <point x="573.1578947368421" y="399.2631578947368"/>
      <point x="507.9210526315789" y="515.421052631579"/>
      <point x="377.89473684210526" y="515.421052631579" type="curve" smooth="yes"/>
      <point x="344.0" y="515.421052631579"/>
      <point x="287.2631578947369" y="483.39473684210526"/>
      <point x="240.26315789473682" y="441.05263157894734" type="curve"/>
      <point x="226.10526315789474" y="441.05263157894734" type="line"/>
      <point x="217.21052631578945" y="509.2368421052632" type="line"/>
      <point x="30.842105263157897" y="500.5263157894737" type="line"/>
      <point x="40.36842105263159" y="423.42105263157896"/>
      <point x="48.44736842105264" y="350.8421052631579"/>
      <point x="56.15789473684211" y="277.55263157894734" type="curve"/>
      <point x="56.15789473684211" y="22.473684210526315" type="line"/>
      <point x="50.26315789473685" y="-60.973684210526315"/>
      <point x="46.00000000000001" y="-127.15789473684211"/>
    </contour>
    <contour>
      <point x="304.84210526315786" y="142.10526315789474" type="curve"/>
      <point x="284.9210526315789" y="144.92105263157896"/>
      <point x="259.1578947368421" y="161.18421052631578"/>
      <point x="242.78947368421055" y="182.07894736842104" type="curve"/>
      <point x="242.78947368421055" y="325.2631578947368" type="line"/>
      <point x="261.00000000000006" y="342.2894736842105"/>
      <point x="285.94736842105266" y="353.52631578947364"/>
      <point x="304.4736842105263" y="356.1578947368421" type="curve"/>
      <point x="353.07894736842104" y="353.1578947368421"/>
      <point x="382.2631578947368" y="306.7368421052632"/>
      <point x="382.2631578947368" y="249.0" type="curve" smooth="yes"/>
      <point x="382.2631578947368" y="194.6315789473684"/>
      <point x="354.81578947368416" y="145.10526315789474"/>
    </contour>
  </outline>
</glyph>
<glyph name="q" format="2">
  <advance width="589.2631578947369"/>
  <unicode hex="0071"/>
  <outline>
    <contour>
      <point x="342.86842105263156" y="-197.26315789473685" type="curve"/>
      <point x="559.9736842105262" y="-192.0" type="line"/>
      <point x="554.8947368421053" y="-121.07894736842105"/>
      <point x="550.6315789473684" y="-60.973684210526315"/>
      <point x="544.7368421052631" y="22.473684210526315" type="curve"/>
      <point x="544.7368421052631" y="277.55263157894734" type="line"/>
      <point x="551.6315789473684" y="353.4736842105263"/>
      <point x="558.078947368421" y="429.5"/>
      <point x="565.9736842105262" y="509.2368421052632" type="curve"/>
      <point x="383.6842105263158" y="500.5263157894737" type="line"/>
      <point x="374.7894736842105" y="441.05263157894734" type="line"/>
      <point x="360.63157894736844" y="441.05263157894734" type="line"/>
      <point x="313.63157894736844" y="483.39473684210526"/>
      <point x="256.8947368421052" y="515.421052631579"/>
      <point x="223.0" y="515.421052631579" type="curve" smooth="yes"/>
      <point x="92.97368421052632" y="515.421052631579"/>
      <point x="27.736842105263158" y="399.2631578947368"/>
      <point x="27.736842105263158" y="250.6315789473684" type="curve" smooth="yes"/>
      <point x="27.736842105263158" y="111.63157894736842"/>
      <point x="88.05263157894737" y="-14.710526315789473"/>
      <point x="221.81578947368422" y="-14.710526315789473" type="curve" smooth="yes"/>
      <point x="254.31578947368416" y="-14.710526315789473"/>
      <point x="295.57894736842104" y="3.7105263157894743"/>
      <point x="348.0263157894737" y="44.89473684210527" type="curve"/>
      <point x="358.10526315789474" y="44.89473684210527" type="line"/>
      <point x="358.10526315789474" y="11.868421052631579" type="line"/>
      <point x="353.0263157894737" y="-60.973684210526315"/>
      <point x="347.9473684210526" y="-127.15789473684211"/>
    </contour>
    <contour>
      <point x="296.05263157894734" y="142.10526315789474" type="curve"/>
      <point x="246.07894736842104" y="145.10526315789474"/>
      <point x="218.63157894736844" y="194.6315789473684"/>
      <point x="218.63157894736844" y="249.0" type="curve" smooth="yes"/>
      <point x="218.63157894736844" y="306.7368421052632"/>
      <point x="247.81578947368422" y="353.1578947368421"/>
      <point x="296.42105263157896" y="356.1578947368421" type="curve"/>
      <point x="314.9473684210526" y="353.52631578947364"/>
      <point x="339.89473684210526" y="342.2894736842105"/>
      <point x="358.10526315789474" y="325.2631578947368" type="curve"/>
      <point x="358.10526315789474" y="182.07894736842104" type="line"/>
      <point x="341.7368421052631" y="161.18421052631578"/>
      <point x="315.97368421052636" y="144.92105263157896"/>
    </contour>
  </outline>
</glyph>
<glyph name="r" format="2">
  <advance width="429.89473684210526"/>
  <unicode hex="0072"/>
  <anchor x="141.21052631578948" y="0.0" name="bottom"/>
  <anchor x="236.07894736842104" y="500.5263157894737" name="top"/>
  <outline>
    <contour>
      <point x="41.10526315789474" y="0.0" type="curve"/>
      <point x="258.0263157894737" y="0.0" type="line"/>
      <point x="252.94736842105266" y="70.10526315789474"/>
      <point x="247.8684210526316" y="131.0263157894737"/>
      <point x="242.78947368421055" y="203.8684210526316" type="curve"/>
      <point x="242.78947368421055" y="280.0789473684211" type="line"/>
      <point x="275.5" y="311.2894736842105"/>
      <point x="314.2368421052632" y="327.60526315789474"/>
      <point x="328.02631578947364" y="327.60526315789474" type="curve" smooth="yes"/>
      <point x="334.2105263157895" y="327.60526315789474"/>
      <point x="362.10526315789474" y="320.7894736842105"/>
      <point x="400.1578947368421" y="311.5263157894737" type="curve"/>
      <point x="416.2105263157894" y="505.9736842105263" type="line"/>
      <point x="399.02631578947364" y="511.42105263157885"/>
      <point x="375.55263157894734" y="515.421052631579"/>
      <point x="364.5526315789474" y="515.421052631579" type="curve" smooth="yes"/>
      <point x="337.1578947368421" y="515.421052631579"/>
      <point x="296.9473684210526" y="494.0263157894737"/>
      <point x="234.36842105263156" y="430.86842105263156" type="curve"/>
      <point x="219.57894736842104" y="430.86842105263156" type="line"/>
      <point x="210.50000000000003" y="509.2368421052632" type="line"/>
      <point x="30.842105263157897" y="500.5263157894737" type="line"/>
      <point x="40.36842105263159" y="423.42105263157896"/>
      <point x="48.44736842105264" y="350.8421052631579"/>
      <point x="56.15789473684211" y="277.55263157894734" type="curve"/>
      <point x="56.15789473684211" y="214.47368421052633" type="line"/>
      <point x="50.26315789473685" y="131.0263157894737"/>
      <point x="46.184210526315795" y="70.92105263157895"/>
    </contour>
  </outline>
</glyph>
<glyph name="s" format="2">
  <advance width="472.22330097087377"/>
  <unicode hex="0073"/>
  <anchor x="239.2621359223301" y="0.0" name="bottom"/>
  <anchor x="239.2621359223301" y="500.6407766990291" name="top"/>
  <outline>
    <contour>
      <point x="226.67961165048544" y="-14.640776699029125" type="curve" smooth="yes"/>
      <point x="385.1456310679611" y="-14.640776699029125"/>
      <point x="451.0679611650486" y="51.67961165048544"/>
      <point x="451.0679611650486" y="150.64077669902915" type="curve" smooth="yes"/>
      <point x="451.0679611650486" y="229.4368932038835"/>
      <point x="408.9514563106796" y="261.3592233009709"/>
      <point x="295.3883495145631" y="291.0194174757281" type="curve" smooth="yes"/>
      <point x="238.17475728155335" y="305.75728155339806"/>
      <point x="226.13592233009706" y="318.11650485436894"/>
      <point x="226.13592233009706" y="339.5339805825243" type="curve" smooth="yes"/>
      <point x="226.13592233009706" y="361.02912621359224"/>
      <point x="246.65048543689318" y="369.06796116504853"/>
      <point x="266.4660194174757" y="371.06796116504853" type="curve"/>
      <point x="279.1456310679611" y="371.06796116504853"/>
      <point x="346.78640776699035" y="351.4077669902913"/>
      <point x="410.4271844660194" y="327.747572815534" type="curve"/>
      <point x="421.7281553398058" y="487.24271844660194" type="line"/>
      <point x="363.48543689320394" y="497.9223300970874"/>
      <point x="272.56310679611653" y="514.6213592233009"/>
      <point x="227.3009708737864" y="514.6213592233009" type="curve" smooth="yes"/>
      <point x="105.47572815533981" y="514.6213592233009"/>
      <point x="34.49514563106796" y="453.66019417475724"/>
      <point x="34.49514563106796" y="351.3592233009709" type="curve" smooth="yes"/>
      <point x="34.49514563106796" y="270.9223300970874"/>
      <point x="75.6116504854369" y="228.67961165048544"/>
      <point x="170.8349514563107" y="204.6990291262136" type="curve" smooth="yes"/>
      <point x="239.3495145631068" y="187.64077669902915"/>
      <point x="261.74757281553394" y="180.60194174757282"/>
      <point x="261.74757281553394" y="157.18446601941747" type="curve" smooth="yes"/>
      <point x="261.74757281553394" y="130.31067961165047"/>
      <point x="239.25242718446603" y="124.31067961165049"/>
      <point x="213.39805825242723" y="122.31067961165049" type="curve"/>
      <point x="195.32038834951456" y="122.31067961165049"/>
      <point x="119.7378640776699" y="144.63106796116506"/>
      <point x="45.77669902912622" y="170.95145631067962" type="curve"/>
      <point x="35.13592233009709" y="14.398058252427187" type="line"/>
      <point x="104.09708737864077" y="0.3786407766990312"/>
      <point x="189.01941747572815" y="-14.640776699029125"/>
    </contour>
  </outline>
</glyph>
<glyph name="t" format="2">
  <advance width="429.36842105263156"/>
  <unicode hex="0074"/>
  <anchor x="232.92105263157896" y="0.0" name="bottom"/>
  <anchor x="220.5" y="250.26315789473685" name="center"/>
  <anchor x="211.31578947368422" y="669.6842105263158" name="top"/>
  <anchor x="290.0526315789474" y="500.5263157894737" name="topright"/>
  <outline>
    <contour>
      <point x="275.44736842105266" y="-14.710526315789473" type="curve" smooth="yes"/>
      <point x="288.7631578947369" y="-14.710526315789473"/>
      <point x="356.2368421052631" y="-5.789473684210526"/>
      <point x="407.7894736842105" y="7.657894736842106" type="curve"/>
      <point x="398.5263157894737" y="157.86842105263156" type="line"/>
      <point x="370.0526315789474" y="145.94736842105263"/>
      <point x="338.9473684210526" y="135.57894736842104"/>
      <point x="330.4736842105263" y="135.57894736842104" type="curve" smooth="yes"/>
      <point x="290.92105263157896" y="135.57894736842104"/>
      <point x="272.0526315789474" y="164.78947368421052"/>
      <point x="272.0526315789474" y="219.68421052631578" type="curve" smooth="yes"/>
      <point x="272.0526315789474" y="455.5263157894737" type="line"/>
      <point x="277.13157894736844" y="550.0"/>
      <point x="281.2105263157895" y="616.0263157894738"/>
      <point x="287.10526315789474" y="696.0" type="curve"/>
      <point x="72.63157894736844" y="661.3421052631579" type="line"/>
      <point x="78.71052631578948" y="594.0"/>
      <point x="82.78947368421053" y="535.4736842105264"/>
      <point x="87.86842105263159" y="455.5263157894737" type="curve"/>
      <point x="87.86842105263159" y="308.7631578947369"/>
      <point x="83.60526315789475" y="228.5263157894737"/>
      <point x="83.60526315789475" y="157.23684210526315" type="curve" smooth="yes"/>
      <point x="83.60526315789475" y="30.13157894736842"/>
      <point x="150.3684210526316" y="-14.710526315789473"/>
    </contour>
    <contour>
      <point x="15.131578947368421" y="347.1578947368421" type="line"/>
      <point x="144.26315789473685" y="366.0263157894737" type="line"/>
      <point x="228.94736842105263" y="366.0263157894737" type="line"/>
      <point x="284.7105263157895" y="360.9473684210526"/>
      <point x="347.10526315789474" y="354.05263157894734"/>
      <point x="406.5" y="347.1578947368421" type="curve"/>
      <point x="406.5" y="500.5263157894737" type="line"/>
      <point x="15.131578947368421" y="500.5263157894737" type="line"/>
    </contour>
  </outline>
</glyph>
<glyph name="u" format="2">
  <advance width="586.5263157894738"/>
  <unicode hex="0075"/>
  <anchor x="288.86842105263156" y="0.0" name="bottom"/>
  <anchor x="544.3947368421053" y="0.0" name="ogonek"/>
  <anchor x="288.86842105263156" y="500.5263157894737" name="top"/>
  <anchor x="564.5" y="500.5263157894737" name="topright"/>
  <outline>
    <contour>
      <point x="194.68421052631578" y="-14.710526315789473" type="curve" smooth="yes"/>
      <point x="244.78947368421052" y="-14.710526315789473"/>
      <point x="308.5789473684211" y="24.55263157894737"/>
      <point x="351.2105263157894" y="75.60526315789474" type="curve"/>
      <point x="366.1842105263158" y="75.60526315789474" type="line"/>
      <point x="374.89473684210526" y="0.0" type="line"/>
      <point x="549.2894736842105" y="0.0" type="line"/>
      <point x="544.2105263157895" y="70.92105263157895"/>
      <point x="539.9473684210527" y="131.0263157894737"/>
      <point x="534.0526315789474" y="214.47368421052633" type="curve"/>
      <point x="534.0526315789474" y="272.63157894736844" type="line"/>
      <point x="540.7631578947369" y="369.3157894736842"/>
      <point x="545.8421052631579" y="430.2368421052632"/>
      <point x="550.921052631579" y="500.5263157894737" type="curve"/>
      <point x="333.8157894736842" y="500.5263157894737" type="line"/>
      <point x="338.89473684210526" y="430.42105263157896"/>
      <point x="343.15789473684214" y="369.3157894736842"/>
      <point x="347.42105263157896" y="297.10526315789474" type="curve"/>
      <point x="347.42105263157896" y="194.57894736842104" type="line"/>
      <point x="325.92105263157896" y="171.89473684210526"/>
      <point x="292.42105263157896" y="150.26315789473682"/>
      <point x="278.07894736842104" y="150.26315789473682" type="curve" smooth="yes"/>
      <point x="241.36842105263156" y="150.26315789473682"/>
      <point x="229.3157894736842" y="179.8684210526316"/>
      <point x="229.3157894736842" y="242.42105263157896" type="curve"/>
      <point x="229.3157894736842" y="297.10526315789474" type="line"/>
      <point x="233.57894736842104" y="369.5"/>
      <point x="237.84210526315786" y="435.5"/>
      <point x="242.1052631578947" y="505.7894736842105" type="curve"/>
      <point x="25.815789473684212" y="500.5263157894737" type="line"/>
      <point x="31.710526315789476" y="430.42105263157896"/>
      <point x="35.973684210526315" y="369.3157894736842"/>
      <point x="42.68421052631579" y="272.63157894736844" type="curve"/>
      <point x="42.68421052631579" y="235.47368421052633"/>
      <point x="40.05263157894737" y="206.28947368421052"/>
      <point x="40.05263157894737" y="162.47368421052633" type="curve" smooth="yes"/>
      <point x="40.05263157894737" y="43.578947368421055"/>
      <point x="95.92105263157895" y="-14.710526315789473"/>
    </contour>
  </outline>
</glyph>
<glyph name="v" format="2">
  <advance width="566.9736842105264"/>
  <unicode hex="0076"/>
  <outline>
    <contour>
      <point x="176.05263157894737" y="0.0" type="curve"/>
      <point x="391.36842105263156" y="0.0" type="line"/>
      <point x="410.4736842105263" y="62.81578947368421"/>
      <point x="428.5789473684211" y="124.63157894736842"/>
      <point x="447.5" y="188.26315789473685" type="curve"/>
      <point x="478.2368421052632" y="277.89473684210526" type="line"/>
      <point x="507.42105263157896" y="351.7105263157895"/>
      <point x="536.4210526315788" y="426.3421052631579"/>
      <point x="564.9736842105262" y="500.5263157894737" type="curve"/>
      <point x="348.94736842105266" y="500.5263157894737" type="line"/>
      <point x="338.4210526315789" y="443.42105263157896"/>
      <point x="328.07894736842104" y="381.7894736842105"/>
      <point x="317.3684210526316" y="318.60526315789474" type="curve"/>
      <point x="292.42105263157896" y="200.60526315789474" type="line"/>
      <point x="278.2631578947369" y="200.60526315789474" type="line"/>
      <point x="253.3157894736842" y="318.60526315789474" type="line"/>
      <point x="242.6052631578947" y="381.7894736842105"/>
      <point x="231.6315789473684" y="443.2368421052632"/>
      <point x="221.73684210526315" y="505.7894736842105" type="curve"/>
      <point x="2.000000000000001" y="500.5263157894737" type="line"/>
      <point x="31.0" y="426.89473684210526"/>
      <point x="60.0" y="351.89473684210526"/>
      <point x="89.00000000000001" y="278.2631578947368" type="curve"/>
      <point x="119.73684210526316" y="189.44736842105263" type="line"/>
      <point x="138.65789473684208" y="126.1842105263158"/>
      <point x="156.94736842105263" y="63.631578947368425"/>
    </contour>
  </outline>
</glyph>
<glyph name="w" format="2">
  <advance width="850.2631578947368"/>
  <unicode hex="0077"/>
  <anchor x="424.1842105263158" y="0.0" name="bottom"/>
  <anchor x="424.1842105263158" y="500.5263157894737" name="top"/>
  <outline>
    <contour>
      <point x="154.8684210526316" y="0.0" type="curve"/>
      <point x="367.7368421052632" y="0.0" type="line"/>
      <point x="375.5263157894737" y="51.026315789473685"/>
      <point x="384.5" y="106.78947368421052"/>
      <point x="391.92105263157896" y="155.89473684210526" type="curve"/>
      <point x="411.8421052631579" y="252.6578947368421" type="line"/>
      <point x="424.36842105263156" y="252.6578947368421" type="line"/>
      <point x="445.10526315789474" y="157.07894736842104" type="line"/>
      <point x="454.34210526315786" y="107.60526315789474"/>
      <point x="464.49999999999994" y="50.8421052631579"/>
      <point x="473.92105263157896" y="0.0" type="curve"/>
      <point x="695.9473684210527" y="0.0" type="line"/>
      <point x="711.8684210526316" y="61.0"/>
      <point x="728.6052631578948" y="126.44736842105263"/>
      <point x="745.5263157894736" y="191.44736842105263" type="curve"/>
      <point x="772.8947368421052" y="279.2631578947368" type="line"/>
      <point x="798.7105263157895" y="352.89473684210526"/>
      <point x="824.7105263157895" y="425.89473684210526"/>
      <point x="851.5263157894738" y="500.5263157894737" type="curve"/>
      <point x="630.7894736842105" y="500.5263157894737" type="line"/>
      <point x="623.3684210526316" y="444.4473684210526"/>
      <point x="614.8421052631579" y="374.89473684210526"/>
      <point x="606.0526315789474" y="313.07894736842104" type="curve"/>
      <point x="583.7631578947369" y="191.81578947368422" type="line"/>
      <point x="570.6052631578947" y="191.81578947368422" type="line"/>
      <point x="548.3157894736842" y="311.2631578947368" type="line"/>
      <point x="538.7105263157895" y="374.2631578947368"/>
      <point x="528.921052631579" y="439.89473684210526"/>
      <point x="519.5" y="500.5263157894737" type="curve"/>
      <point x="335.47368421052636" y="500.5263157894737" type="line"/>
      <point x="325.86842105263156" y="437.3421052631579"/>
      <point x="316.2631578947368" y="374.3421052631579"/>
      <point x="306.8421052631579" y="310.89473684210526" type="curve"/>
      <point x="284.92105263157896" y="191.81578947368422" type="line"/>
      <point x="271.7631578947368" y="191.81578947368422" type="line"/>
      <point x="248.8421052631579" y="309.9736842105263" type="line"/>
      <point x="239.23684210526315" y="372.60526315789474"/>
      <point x="228.89473684210526" y="443.15789473684214"/>
      <point x="219.28947368421052" y="505.7894736842105" type="curve"/>
      <point x="-1.2631578947368407" y="500.5263157894737" type="line"/>
      <point x="25.552631578947373" y="425.7105263157895"/>
      <point x="51.36842105263158" y="353.89473684210526"/>
      <point x="78.1842105263158" y="279.2631578947368" type="curve"/>
      <point x="104.92105263157895" y="190.44736842105263" type="line"/>
      <point x="121.84210526315789" y="125.8157894736842"/>
      <point x="137.94736842105263" y="62.81578947368421"/>
    </contour>
  </outline>
</glyph>
<glyph name="x" format="2">
  <advance width="594.0263157894736"/>
  <unicode hex="0078"/>
  <outline>
    <contour>
      <point x="6.447368421052633" y="0.0" type="curve"/>
      <point x="230.73684210526315" y="0.0" type="line"/>
      <point x="240.6315789473684" y="35.94736842105263"/>
      <point x="247.8684210526316" y="60.526315789473685"/>
      <point x="257.7631578947368" y="95.65789473684211" type="curve"/>
      <point x="282.07894736842104" y="161.73684210526318" type="line"/>
      <point x="293.60526315789474" y="161.73684210526318" type="line"/>
      <point x="321.6578947368421" y="91.65789473684211" type="line"/>
      <point x="332.55263157894734" y="59.34210526315789"/>
      <point x="341.15789473684214" y="32.76315789473684"/>
      <point x="351.6842105263158" y="0.0" type="curve"/>
      <point x="591.6578947368421" y="0.0" type="line"/>
      <point x="545.3684210526316" y="67.07894736842105"/>
      <point x="516.6315789473684" y="109.34210526315789"/>
      <point x="482.7105263157895" y="158.60526315789474" type="curve"/>
      <point x="408.39473684210526" y="279.57894736842104" type="line"/>
      <point x="418.36842105263156" y="241.92105263157896" type="line"/>
      <point x="485.13157894736844" y="351.0" type="line"/>
      <point x="518.2368421052631" y="402.44736842105266"/>
      <point x="539.7894736842105" y="434.07894736842104"/>
      <point x="583.2631578947369" y="500.5263157894737" type="curve"/>
      <point x="357.9736842105263" y="500.5263157894737" type="line"/>
      <point x="347.2631578947368" y="463.7631578947368"/>
      <point x="339.2105263157895" y="437.55263157894734"/>
      <point x="328.2368421052632" y="402.3421052631579" type="curve"/>
      <point x="303.0263157894737" y="338.8157894736842" type="line"/>
      <point x="290.0526315789474" y="338.8157894736842" type="line"/>
      <point x="263.2105263157895" y="403.7894736842105" type="line"/>
      <point x="252.23684210526315" y="437.36842105263156"/>
      <point x="242.36842105263156" y="468.4736842105263"/>
      <point x="229.65789473684208" y="505.7894736842105" type="curve"/>
      <point x="3.105263157894739" y="500.5263157894737" type="line"/>
      <point x="43.94736842105263" y="437.7105263157895"/>
      <point x="68.6842105263158" y="399.2631578947369"/>
      <point x="101.15789473684211" y="349.44736842105266" type="curve"/>
      <point x="163.8421052631579" y="241.18421052631578" type="line"/>
      <point x="163.6578947368421" y="279.2105263157895" type="line"/>
      <point x="102.05263157894737" y="161.23684210526315" type="line"/>
      <point x="70.57894736842105" y="108.15789473684211"/>
      <point x="48.28947368421053" y="70.52631578947368"/>
    </contour>
  </outline>
</glyph>
<glyph name="y" format="2">
  <advance width="567.7105263157895"/>
  <unicode hex="0079"/>
  <anchor x="467.4736842105263" y="0.0" name="bottom"/>
  <anchor x="285.89473684210526" y="500.5263157894737" name="top"/>
  <outline>
    <contour>
      <point x="86.36842105263159" y="-197.26315789473685" type="curve"/>
      <point x="307.2894736842105" y="-192.0" type="line"/>
      <point x="332.2105263157895" y="-120.0"/>
      <point x="360.9473684210526" y="-36.55263157894737"/>
      <point x="405.2368421052631" y="91.26315789473684" type="curve"/>
      <point x="458.7894736842105" y="231.89473684210526" type="line"/>
      <point x="509.15789473684214" y="357.7105263157895"/>
      <point x="533.3421052631578" y="419.5263157894737"/>
      <point x="565.7105263157894" y="500.5263157894737" type="curve"/>
      <point x="351.3157894736842" y="500.5263157894737" type="line"/>
      <point x="340.60526315789474" y="437.5263157894737"/>
      <point x="330.07894736842104" y="377.7105263157895"/>
      <point x="318.36842105263156" y="314.5263157894737" type="curve"/>
      <point x="291.0526315789474" y="194.07894736842104" type="line"/>
      <point x="276.89473684210526" y="194.07894736842104" type="line"/>
      <point x="252.31578947368422" y="315.1578947368421" type="line"/>
      <point x="241.78947368421052" y="380.1578947368421"/>
      <point x="231.4473684210526" y="440.7894736842105"/>
      <point x="220.92105263157896" y="505.7894736842105" type="curve"/>
      <point x="2.000000000000001" y="500.5263157894737" type="line"/>
      <point x="29.184210526315795" y="429.5263157894737"/>
      <point x="59.184210526315795" y="353.5263157894737"/>
      <point x="87.1842105263158" y="280.89473684210526" type="curve"/>
      <point x="117.92105263157895" y="190.89473684210526" type="line"/>
      <point x="138.02631578947367" y="124.89473684210526"/>
      <point x="160.1315789473684" y="53.89473684210527"/>
      <point x="180.8684210526316" y="-15.736842105263158" type="curve"/>
      <point x="189.39473684210526" y="16.394736842105264" type="line"/>
      <point x="155.86842105263156" y="-52.94736842105264"/>
      <point x="119.89473684210526" y="-127.73684210526316"/>
    </contour>
  </outline>
</glyph>
<glyph name="z" format="2">
  <advance width="526.0526315789474"/>
  <unicode hex="007A"/>
  <anchor x="261.8421052631579" y="0.0" name="bottom"/>
  <anchor x="261.8421052631579" y="250.26315789473685" name="center"/>
  <anchor x="261.8421052631579" y="500.5263157894737" name="top"/>
  <outline>
    <contour>
      <point x="27.68421052631579" y="0.0" type="line"/>
      <point x="499.10526315789474" y="0.0" type="line"/>
      <point x="499.10526315789474" y="156.6315789473684" type="line"/>
      <point x="442.2368421052632" y="149.10526315789474"/>
      <point x="372.4210526315789" y="140.76315789473682"/>
      <point x="329.5526315789474" y="135.68421052631578" type="curve"/>
      <point x="233.26315789473685" y="135.68421052631578" type="line"/>
      <point x="252.1315789473684" y="95.6842105263158" type="line"/>
      <point x="365.2368421052631" y="242.76315789473685" type="line"/>
      <point x="403.921052631579" y="286.02631578947364"/>
      <point x="451.3421052631579" y="338.7631578947368"/>
      <point x="485.36842105263156" y="376.8157894736842" type="curve"/>
      <point x="485.36842105263156" y="500.5263157894737" type="line"/>
      <point x="33.39473684210526" y="500.5263157894737" type="line"/>
      <point x="33.39473684210526" y="339.8157894736842" type="line"/>
      <point x="92.81578947368422" y="348.1578947368421"/>
      <point x="167.07894736842104" y="358.13157894736844"/>
      <point x="210.57894736842104" y="364.0263157894737" type="curve"/>
      <point x="299.57894736842104" y="364.0263157894737" type="line"/>
      <point x="276.2631578947369" y="412.2105263157895" type="line"/>
      <point x="155.18421052631578" y="253.07894736842104" type="line"/>
      <point x="117.05263157894736" y="209.73684210526312"/>
      <point x="74.1842105263158" y="161.10526315789477"/>
      <point x="27.68421052631579" y="108.65789473684211" type="curve"/>
    </contour>
  </outline>
</glyph>
<glyph name="braceleft" format="2">
  <advance width="468.2631578947368"/>
  <unicode hex="007B"/>
  <outline>
    <contour>
      <point x="333.9473684210526" y="-126.6842105263158" type="curve" smooth="yes"/>
      <point x="441.9473684210526" y="-126.6842105263158" type="line"/>
      <point x="441.9473684210526" y="24.236842105263158" type="line"/>
      <point x="409.7894736842105" y="22.605263157894733"/>
      <point x="381.13157894736844" y="20.789473684210524"/>
      <point x="364.13157894736844" y="19.973684210526315" type="curve"/>
      <point x="323.57894736842104" y="23.421052631578945"/>
      <point x="306.1578947368421" y="42.368421052631575"/>
      <point x="304.5263157894737" y="83.97368421052632" type="curve" smooth="yes"/>
      <point x="297.8157894736842" y="226.6842105263158" type="line" smooth="yes"/>
      <point x="297.0" y="242.0263157894737"/>
      <point x="243.02631578947367" y="291.39473684210526"/>
      <point x="203.07894736842107" y="319.36842105263156" type="curve"/>
      <point x="203.07894736842107" y="332.7105263157895" type="line"/>
      <point x="243.02631578947367" y="361.3157894736842"/>
      <point x="297.0" y="407.60526315789474"/>
      <point x="297.8157894736842" y="425.2105263157895" type="curve" smooth="yes"/>
      <point x="304.5263157894737" y="568.1052631578948" type="line" smooth="yes"/>
      <point x="306.1578947368421" y="609.7105263157895"/>
      <point x="323.57894736842104" y="628.6578947368422"/>
      <point x="364.13157894736844" y="632.1052631578948" type="curve"/>
      <point x="381.3157894736842" y="631.2894736842106"/>
      <point x="409.3421052631579" y="629.4736842105265"/>
      <point x="437.86842105263156" y="627.8421052631579" type="curve"/>
      <point x="437.86842105263156" y="778.7631578947369" type="line"/>
      <point x="333.9473684210526" y="778.7631578947369" type="line" smooth="yes"/>
      <point x="208.23684210526315" y="778.7631578947369"/>
      <point x="127.13157894736842" y="715.8157894736842"/>
      <point x="127.13157894736842" y="603.1842105263158" type="curve"/>
      <point x="127.13157894736842" y="597.2631578947369"/>
      <point x="132.21052631578948" y="479.6578947368421"/>
      <point x="132.21052631578948" y="473.7368421052632" type="curve"/>
      <point x="132.21052631578948" y="421.89473684210526"/>
      <point x="102.94736842105263" y="391.0263157894737"/>
      <point x="62.68421052631579" y="391.0263157894737" type="curve" smooth="yes"/>
      <point x="18.157894736842103" y="391.0263157894737" type="line"/>
      <point x="18.157894736842103" y="260.86842105263156" type="line"/>
      <point x="62.68421052631579" y="260.86842105263156" type="line" smooth="yes"/>
      <point x="102.94736842105263" y="260.86842105263156"/>
      <point x="132.21052631578948" y="230.0"/>
      <point x="132.21052631578948" y="178.1578947368421" type="curve"/>
      <point x="132.21052631578948" y="172.23684210526315"/>
      <point x="127.13157894736842" y="54.815789473684205"/>
      <point x="127.13157894736842" y="48.89473684210526" type="curve"/>
      <point x="127.13157894736842" y="-63.73684210526316"/>
      <point x="208.23684210526315" y="-126.6842105263158"/>
    </contour>
  </outline>
</glyph>
<glyph name="cent" format="2">
  <advance width="479.1578947368421"/>
  <unicode hex="00A2"/>
  <outline>
    <contour>
      <point x="206.3421052631579" y="-137.0" type="curve"/>
      <point x="354.36842105263156" y="-137.0" type="line"/>
      <point x="351.92105263157896" y="-61.078947368421055"/>
      <point x="349.2894736842105" y="19.921052631578945"/>
      <point x="346.8421052631579" y="82.42105263157895" type="curve"/>
      <point x="213.86842105263156" y="82.42105263157895" type="line"/>
      <point x="211.42105263157896" y="19.921052631578945"/>
      <point x="208.78947368421052" y="-61.078947368421055"/>
    </contour>
    <contour>
      <point x="213.05263157894737" y="425.7105263157895" type="curve"/>
      <point x="347.65789473684214" y="425.7105263157895" type="line"/>
      <point x="349.2894736842105" y="484.57894736842104"/>
      <point x="351.92105263157896" y="558.0526315789474"/>
      <point x="354.3684210526316" y="627.078947368421" type="curve"/>
      <point x="206.3421052631579" y="627.078947368421" type="line"/>
      <point x="208.78947368421052" y="558.0526315789474"/>
      <point x="211.42105263157896" y="484.57894736842104"/>
    </contour>
    <contour>
      <point x="295.0263157894737" y="-11.447368421052632" type="curve" smooth="yes"/>
      <point x="322.3157894736842" y="-11.447368421052632"/>
      <point x="409.2631578947369" y="0.3947368421052637"/>
      <point x="450.63157894736844" y="10.68421052631579" type="curve"/>
      <point x="442.8157894736842" y="166.6052631578947" type="line"/>
      <point x="409.13157894736844" y="154.21052631578948"/>
      <point x="357.0" y="139.6578947368421"/>
      <point x="343.9736842105263" y="139.6578947368421" type="curve" smooth="yes"/>
      <point x="264.7894736842106" y="141.0263157894737"/>
      <point x="216.18421052631578" y="184.0"/>
      <point x="216.18421052631578" y="254.52631578947367" type="curve" smooth="yes"/>
      <point x="216.18421052631578" y="318.10526315789474"/>
      <point x="253.76315789473685" y="355.60526315789474"/>
      <point x="305.7894736842105" y="358.60526315789474" type="curve"/>
      <point x="318.07894736842104" y="358.60526315789474"/>
      <point x="382.2631578947368" y="341.42105263157896"/>
      <point x="439.36842105263156" y="320.86842105263156" type="curve"/>
      <point x="452.5263157894737" y="480.05263157894734" type="line"/>
      <point x="395.7631578947368" y="496.9473684210526"/>
      <point x="311.3157894736843" y="514.6052631578947"/>
      <point x="283.57894736842104" y="514.6052631578947" type="curve" smooth="yes"/>
      <point x="112.47368421052632" y="514.6052631578947"/>
      <point x="26.10526315789474" y="401.9736842105263"/>
      <point x="26.10526315789474" y="248.81578947368422" type="curve" smooth="yes"/>
      <point x="26.10526315789474" y="96.65789473684211"/>
      <point x="125.3421052631579" y="-11.447368421052632"/>
    </contour>
  </outline>
</glyph>
<glyph name="sterling" format="2">
  <advance width="614.8947368421052"/>
  <unicode hex="00A3"/>
  <outline>
    <contour>
      <point x="42.36842105263158" y="0.0" type="line"/>
      <point x="583.9736842105264" y="0.0" type="line"/>
      <point x="583.9736842105264" y="186.36842105263156" type="line"/>
      <point x="510.50000000000006" y="181.28947368421052"/>
      <point x="403.15789473684214" y="174.57894736842104"/>
      <point x="316.60526315789474" y="168.68421052631578" type="curve"/>
      <point x="185.73684210526315" y="168.68421052631578" type="line"/>
      <point x="223.36842105263156" y="140.71052631578948" type="line"/>
      <point x="295.0" y="245.42105263157893"/>
      <point x="310.8157894736842" y="276.89473684210526"/>
      <point x="310.8157894736842" y="309.5526315789474" type="curve" smooth="yes"/>
      <point x="310.8157894736842" y="426.1842105263158" type="line" smooth="yes"/>
      <point x="310.8157894736842" y="503.7368421052632"/>
      <point x="347.60526315789474" y="537.3684210526316"/>
      <point x="411.9473684210526" y="540.8157894736842" type="curve"/>
      <point x="433.2105263157895" y="540.8157894736842"/>
      <point x="481.89473684210526" y="528.5263157894738"/>
      <point x="543.8947368421053" y="502.2631578947369" type="curve"/>
      <point x="561.9473684210526" y="670.2368421052631" type="line"/>
      <point x="520.6842105263158" y="684.8684210526316"/>
      <point x="455.0" y="704.1578947368421"/>
      <point x="395.4473684210526" y="704.1578947368421" type="curve" smooth="yes"/>
      <point x="201.10526315789474" y="704.1578947368421"/>
      <point x="109.94736842105263" y="607.3157894736842"/>
      <point x="109.94736842105263" y="432.63157894736844" type="curve" smooth="yes"/>
      <point x="109.94736842105263" y="370.39473684210526"/>
      <point x="113.39473684210526" y="309.1578947368421"/>
      <point x="113.39473684210526" y="247.73684210526315" type="curve"/>
      <point x="113.39473684210526" y="225.07894736842104"/>
      <point x="101.02631578947368" y="194.68421052631578"/>
      <point x="42.36842105263158" y="102.86842105263158" type="curve"/>
    </contour>
    <contour>
      <point x="47.23684210526316" y="291.13157894736844" type="line"/>
      <point x="119.10526315789474" y="293.7631578947368"/>
      <point x="193.44736842105263" y="296.39473684210526"/>
      <point x="246.39473684210526" y="298.0263157894737" type="curve"/>
      <point x="287.8157894736842" y="298.0263157894737" type="line"/>
      <point x="340.7631578947369" y="296.39473684210526"/>
      <point x="415.10526315789474" y="293.7631578947368"/>
      <point x="486.9736842105263" y="291.13157894736844" type="curve"/>
      <point x="486.9736842105263" y="432.4473684210526" type="line"/>
      <point x="415.10526315789474" y="429.8157894736842"/>
      <point x="340.7631578947369" y="427.1842105263158"/>
      <point x="287.8157894736842" y="425.55263157894734" type="curve"/>
      <point x="246.39473684210526" y="425.55263157894734" type="line"/>
      <point x="193.44736842105263" y="427.1842105263158"/>
      <point x="119.10526315789474" y="429.8157894736842"/>
      <point x="47.23684210526316" y="432.4473684210526" type="curve"/>
    </contour>
  </outline>
</glyph>
<glyph name="currency" format="2">
  <advance width="668.5263157894736"/>
  <unicode hex="00A4"/>
  <outline>
    <contour>
      <point x="333.07894736842104" y="86.76315789473685" type="curve" smooth="yes"/>
      <point x="479.42105263157896" y="86.76315789473685"/>
      <point x="581.6315789473684" y="167.28947368421052"/>
      <point x="581.6315789473684" y="321.63157894736844" type="curve" smooth="yes"/>
      <point x="581.6315789473684" y="457.4736842105263"/>
      <point x="479.60526315789474" y="553.421052631579"/>
      <point x="335.07894736842104" y="553.421052631579" type="curve" smooth="yes"/>
      <point x="188.55263157894737" y="553.421052631579"/>
      <point x="86.52631578947368" y="461.36842105263156"/>
      <point x="86.52631578947368" y="321.63157894736844" type="curve" smooth="yes"/>
      <point x="86.52631578947368" y="168.10526315789474"/>
      <point x="188.55263157894737" y="86.76315789473685"/>
    </contour>
    <contour>
      <point x="144.26315789473685" y="3.394736842105263" type="line"/>
      <point x="193.23684210526315" y="55.81578947368421"/>
      <point x="243.49999999999997" y="110.34210526315789"/>
      <point x="279.7368421052631" y="149.21052631578948" type="curve"/>
      <point x="163.28947368421052" y="265.6578947368421" type="line"/>
      <point x="124.42105263157896" y="229.42105263157896"/>
      <point x="69.89473684210526" y="179.1578947368421"/>
      <point x="17.47368421052632" y="130.18421052631578" type="curve"/>
    </contour>
    <contour>
      <point x="333.89473684210526" y="236.23684210526315" type="curve"/>
      <point x="286.2368421052632" y="241.5"/>
      <point x="250.68421052631578" y="268.2894736842105"/>
      <point x="250.68421052631578" y="320.8157894736842" type="curve" smooth="yes"/>
      <point x="250.68421052631578" y="367.3421052631579"/>
      <point x="286.42105263157896" y="399.50000000000006"/>
      <point x="334.2631578947368" y="404.7631578947369" type="curve"/>
      <point x="382.7368421052631" y="399.50000000000006"/>
      <point x="417.4736842105263" y="365.7105263157895"/>
      <point x="417.4736842105263" y="320.8157894736842" type="curve" smooth="yes"/>
      <point x="417.4736842105263" y="268.2894736842105"/>
      <point x="381.92105263157896" y="241.5"/>
    </contour>
    <contour>
      <point x="164.92105263157896" y="376.3421052631579" type="curve"/>
      <point x="278.10526315789474" y="489.5263157894737" type="line"/>
      <point x="241.86842105263162" y="528.3947368421052"/>
      <point x="191.60526315789474" y="582.921052631579"/>
      <point x="142.6315789473684" y="635.3421052631579" type="curve"/>
      <point x="19.10526315789474" y="511.8157894736842" type="line"/>
      <point x="71.52631578947368" y="462.84210526315786"/>
      <point x="126.05263157894737" y="412.57894736842104"/>
    </contour>
    <contour>
      <point x="525.8947368421052" y="5.026315789473688" type="curve"/>
      <point x="649.421052631579" y="128.55263157894737" type="line"/>
      <point x="597.0" y="177.52631578947367"/>
      <point x="542.4736842105262" y="227.78947368421055"/>
      <point x="503.60526315789474" y="264.0263157894737" type="curve"/>
      <point x="390.42105263157896" y="150.8421052631579" type="line"/>
      <point x="426.6578947368421" y="111.97368421052633"/>
      <point x="476.9210526315789" y="57.44736842105264"/>
    </contour>
    <contour>
      <point x="505.2368421052631" y="374.7105263157895" type="line"/>
      <point x="544.1052631578948" y="410.9473684210526"/>
      <point x="598.6315789473684" y="461.2105263157894"/>
      <point x="651.0526315789474" y="510.1842105263158" type="curve"/>
      <point x="524.2631578947368" y="636.9736842105262" type="line"/>
      <point x="475.2894736842105" y="584.5526315789473"/>
      <point x="425.02631578947364" y="530.0263157894736"/>
      <point x="388.7894736842105" y="491.1578947368421" type="curve"/>
    </contour>
  </outline>
</glyph>
<glyph name="yen" format="2">
  <advance width="668.2631578947369"/>
  <unicode hex="00A5"/>
  <outline>
    <contour>
      <point x="241.3157894736842" y="232.5263157894737" type="line"/>
      <point x="430.2105263157895" y="232.5263157894737" type="line"/>
      <point x="563.8157894736843" y="510.0526315789474" type="line"/>
      <point x="597.6315789473686" y="569.0263157894736"/>
      <point x="632.9999999999999" y="629.921052631579"/>
      <point x="666.8157894736842" y="688.8947368421053" type="curve"/>
      <point x="421.6842105263158" y="688.8947368421053" type="line"/>
      <point x="401.92105263157896" y="616.6315789473684"/>
      <point x="392.7631578947369" y="586.2105263157895"/>
      <point x="377.2105263157895" y="528.6052631578948" type="curve"/>
      <point x="343.97368421052636" y="435.3157894736842" type="line"/>
      <point x="328.1842105263158" y="435.3157894736842" type="line"/>
      <point x="296.7631578947369" y="527.6052631578948" type="line"/>
      <point x="282.6578947368421" y="580.6842105263158"/>
      <point x="273.86842105263156" y="614.8157894736843"/>
      <point x="254.73684210526315" y="688.8947368421053" type="curve"/>
      <point x="-0.1842105263157876" y="688.8947368421053" type="line"/>
      <point x="53.26315789473684" y="598.6578947368421"/>
      <point x="75.26315789473685" y="561.578947368421"/>
      <point x="106.07894736842105" y="509.2368421052632" type="curve"/>
    </contour>
    <contour>
      <point x="222.8157894736842" y="0.0" type="curve"/>
      <point x="449.7105263157895" y="0.0" type="line"/>
      <point x="444.6315789473685" y="73.10526315789473"/>
      <point x="440.3684210526316" y="135.21052631578948"/>
      <point x="434.47368421052636" y="221.47368421052633" type="curve"/>
      <point x="434.47368421052636" y="392.9473684210526" type="line"/>
      <point x="237.86842105263156" y="392.9473684210526" type="line"/>
      <point x="237.86842105263156" y="221.47368421052633" type="line"/>
      <point x="231.9736842105263" y="135.21052631578948"/>
      <point x="227.89473684210526" y="73.10526315789473"/>
    </contour>
    <contour>
      <point x="67.42105263157895" y="101.34210526315789" type="line"/>
      <point x="139.28947368421052" y="103.97368421052632"/>
      <point x="213.6315789473684" y="106.60526315789473"/>
      <point x="266.57894736842104" y="108.23684210526315" type="curve"/>
      <point x="404.3157894736842" y="108.23684210526315" type="line"/>
      <point x="457.2631578947369" y="106.60526315789473"/>
      <point x="531.6052631578948" y="103.97368421052632"/>
      <point x="603.4736842105264" y="101.34210526315789" type="curve"/>
      <point x="603.4736842105264" y="222.26315789473685" type="line"/>
      <point x="531.6052631578948" y="221.26315789473685"/>
      <point x="457.2631578947369" y="220.26315789473685"/>
      <point x="404.3157894736842" y="219.44736842105263" type="curve"/>
      <point x="266.57894736842104" y="219.44736842105263" type="line"/>
      <point x="213.6315789473684" y="220.26315789473685"/>
      <point x="139.28947368421052" y="221.26315789473685"/>
      <point x="67.42105263157895" y="222.26315789473685" type="curve"/>
    </contour>
    <contour>
      <point x="67.42105263157895" y="275.39473684210526" type="line"/>
      <point x="139.28947368421052" y="276.39473684210526"/>
      <point x="213.6315789473684" y="277.39473684210526"/>
      <point x="266.57894736842104" y="278.2105263157895" type="curve"/>
      <point x="404.3157894736842" y="278.2105263157895" type="line"/>
      <point x="457.2631578947369" y="277.39473684210526"/>
      <point x="531.6052631578948" y="276.39473684210526"/>
      <point x="603.4736842105264" y="275.39473684210526" type="curve"/>
      <point x="603.4736842105264" y="396.3157894736842" type="line"/>
      <point x="531.6052631578948" y="393.68421052631584"/>
      <point x="457.2631578947369" y="391.0526315789474"/>
      <point x="404.3157894736842" y="389.42105263157896" type="curve"/>
      <point x="266.57894736842104" y="389.42105263157896" type="line"/>
      <point x="213.6315789473684" y="391.0526315789474"/>
      <point x="139.28947368421052" y="393.68421052631584"/>
      <point x="67.42105263157895" y="396.3157894736842" type="curve"/>
    </contour>
  </outline>
</glyph>
<glyph name="brokenbar" format="2">
  <advance width="292.42105263157896"/>
  <unicode hex="00A6"/>
  <outline>
    <contour>
      <point x="65.94736842105263" y="357.8421052631579" type="line"/>
      <point x="226.4736842105263" y="357.8421052631579" type="line"/>
      <point x="226.4736842105263" y="448.8421052631579" type="line"/>
      <point x="227.28947368421052" y="486.8421052631579"/>
      <point x="232.36842105263156" y="639.8421052631579"/>
      <point x="236.6315789473684" y="777.8421052631579" type="curve"/>
      <point x="55.78947368421053" y="777.8421052631579" type="line"/>
      <point x="60.05263157894737" y="639.8421052631579"/>
      <point x="65.13157894736842" y="486.8421052631579"/>
      <point x="65.94736842105263" y="448.8421052631579" type="curve"/>
    </contour>
    <contour>
      <point x="55.78947368421053" y="-162.1578947368421" type="curve"/>
      <point x="236.6315789473684" y="-162.1578947368421" type="line"/>
      <point x="232.36842105263156" y="-24.157894736842103"/>
      <point x="227.28947368421052" y="128.8421052631579"/>
      <point x="226.4736842105263" y="166.8421052631579" type="curve"/>
      <point x="226.4736842105263" y="257.8421052631579" type="line"/>
      <point x="65.94736842105263" y="257.8421052631579" type="line"/>
      <point x="65.94736842105263" y="166.8421052631579" type="line"/>
      <point x="65.13157894736842" y="128.8421052631579"/>
      <point x="60.05263157894737" y="-24.157894736842103"/>
    </contour>
  </outline>
</glyph>
<glyph name="copyright" format="2">
  <advance width="794.7368421052631"/>
  <unicode hex="00A9"/>
  <outline>
    <contour>
      <point x="400.86842105263156" y="-14.710526315789473" type="curve" smooth="yes"/>
      <point x="637.078947368421" y="-14.710526315789473"/>
      <point x="764.1052631578947" y="137.92105263157896"/>
      <point x="764.1052631578947" y="344.8157894736842" type="curve" smooth="yes"/>
      <point x="764.1052631578947" y="543.2631578947369"/>
      <point x="643.8947368421053" y="704.1578947368421"/>
      <point x="395.60526315789474" y="704.1578947368421" type="curve" smooth="yes"/>
      <point x="150.5" y="704.1578947368421"/>
      <point x="30.63157894736842" y="544.6315789473684"/>
      <point x="30.63157894736842" y="344.0" type="curve" smooth="yes"/>
      <point x="30.63157894736842" y="155.07894736842104"/>
      <point x="142.57894736842104" y="-14.710526315789473"/>
    </contour>
    <contour>
      <point x="410.3157894736842" y="155.18421052631578" type="curve" smooth="yes"/>
      <point x="433.7368421052632" y="155.18421052631578"/>
      <point x="493.7631578947368" y="163.84210526315792"/>
      <point x="522.2105263157895" y="171.39473684210526" type="curve"/>
      <point x="516.2105263157895" y="283.8947368421052" type="line"/>
      <point x="492.44736842105266" y="274.6842105263158"/>
      <point x="457.63157894736844" y="264.5"/>
      <point x="445.39473684210526" y="264.5" type="curve"/>
      <point x="389.3684210526316" y="265.6842105263158"/>
      <point x="354.6842105263158" y="294.6842105263158"/>
      <point x="354.6842105263158" y="346.63157894736844" type="curve" smooth="yes"/>
      <point x="354.6842105263158" y="392.5263157894737"/>
      <point x="381.86842105263156" y="417.60526315789474"/>
      <point x="418.1842105263158" y="420.42105263157896" type="curve"/>
      <point x="428.2105263157895" y="420.42105263157896"/>
      <point x="472.4736842105263" y="408.1578947368421"/>
      <point x="513.7631578947369" y="392.5" type="curve"/>
      <point x="523.4736842105264" y="508.2631578947368" type="line"/>
      <point x="482.4210526315789" y="520.8947368421052"/>
      <point x="425.0" y="533.0"/>
      <point x="401.8684210526316" y="533.0" type="curve" smooth="yes"/>
      <point x="279.36842105263156" y="533.0"/>
      <point x="217.6315789473684" y="451.8157894736842"/>
      <point x="217.6315789473684" y="342.55263157894734" type="curve" smooth="yes"/>
      <point x="217.6315789473684" y="233.28947368421052"/>
      <point x="288.1578947368421" y="155.18421052631578"/>
    </contour>
    <contour>
      <point x="400.0526315789474" y="83.36842105263158" type="curve"/>
      <point x="214.28947368421052" y="90.63157894736841"/>
      <point x="135.23684210526315" y="197.47368421052633"/>
      <point x="135.23684210526315" y="344.0" type="curve" smooth="yes"/>
      <point x="135.23684210526315" y="497.7631578947368"/>
      <point x="219.10526315789474" y="598.8157894736842"/>
      <point x="396.42105263157896" y="606.078947368421" type="curve"/>
      <point x="575.5526315789474" y="598.8157894736842"/>
      <point x="659.5" y="497.3157894736842"/>
      <point x="659.5" y="344.8157894736842" type="curve" smooth="yes"/>
      <point x="659.5" y="188.05263157894737"/>
      <point x="571.2894736842105" y="90.63157894736841"/>
    </contour>
  </outline>
</glyph>
<glyph name="ordfeminine" format="2">
  <advance width="409.24271844660194"/>
  <unicode hex="00AA"/>
  <outline>
    <contour>
      <point x="132.11650485436894" y="327.6990291262136" type="curve" smooth="yes"/>
      <point x="161.15533980582526" y="327.6990291262136"/>
      <point x="209.5145631067961" y="358.37864077669894"/>
      <point x="246.87378640776697" y="389.3980582524272" type="curve"/>
      <point x="256.8543689320388" y="389.3980582524272" type="line"/>
      <point x="269.53398058252424" y="337.0194174757281" type="line"/>
      <point x="396.7864077669903" y="337.0194174757281" type="line"/>
      <point x="386.7864077669903" y="391.60194174757277"/>
      <point x="380.4466019417476" y="426.92233009708735"/>
      <point x="372.7864077669903" y="470.18446601941747" type="curve"/>
      <point x="372.7864077669903" y="498.0194174757282" type="line" smooth="yes"/>
      <point x="372.7864077669903" y="524.7184466019417"/>
      <point x="375.4466019417476" y="565.0388349514562"/>
      <point x="375.4466019417476" y="590.3592233009708" type="curve" smooth="yes"/>
      <point x="375.4466019417476" y="687.6601941747573"/>
      <point x="315.8252427184466" y="728.3203883495146"/>
      <point x="220.24271844660194" y="728.3203883495146" type="curve" smooth="yes"/>
      <point x="198.2233009708738" y="728.3203883495146"/>
      <point x="84.71844660194175" y="710.3203883495146"/>
      <point x="46.398058252427184" y="700.9805825242719" type="curve"/>
      <point x="51.71844660194175" y="578.990291262136" type="line"/>
      <point x="113.03883495145631" y="599.0097087378641"/>
      <point x="178.01941747572818" y="616.6699029126213"/>
      <point x="186.378640776699" y="616.6699029126213" type="curve" smooth="yes"/>
      <point x="224.77669902912618" y="616.6699029126213"/>
      <point x="252.53398058252424" y="605.6504854368932"/>
      <point x="250.85436893203885" y="575.7766990291261" type="curve"/>
      <point x="146.07766990291262" y="555.4174757281554" type="line" smooth="yes"/>
      <point x="106.96116504854369" y="548.0582524271845"/>
      <point x="29.39805825242719" y="523.9805825242719"/>
      <point x="29.39805825242719" y="433.0194174757281" type="curve" smooth="yes"/>
      <point x="29.39805825242719" y="375.3398058252427"/>
      <point x="63.4368932038835" y="327.6990291262136"/>
    </contour>
    <contour>
      <point x="193.8640776699029" y="432.04854368932035" type="curve" smooth="yes"/>
      <point x="174.72815533980582" y="432.04854368932035"/>
      <point x="156.65048543689318" y="443.0873786407767"/>
      <point x="156.65048543689318" y="467.86407766990294" type="curve" smooth="yes"/>
      <point x="156.65048543689318" y="493.9805825242718"/>
      <point x="178.10679611650485" y="505.0194174757282"/>
      <point x="198.9029126213592" y="510.69902912621353" type="curve" smooth="yes"/>
      <point x="230.45631067961165" y="519.3980582524272"/>
      <point x="238.51456310679612" y="523.4174757281554"/>
      <point x="247.53398058252426" y="531.0776699029127" type="curve"/>
      <point x="247.53398058252424" y="463.88349514563106" type="line"/>
      <point x="228.09708737864077" y="445.78640776699035"/>
      <point x="203.621359223301" y="432.04854368932035"/>
    </contour>
  </outline>
</glyph>
<glyph name="logicalnot" format="2">
  <advance width="584.4736842105264"/>
  <unicode hex="00AC"/>
  <outline>
    <contour>
      <point x="366.63157894736844" y="47.868421052631575" type="curve"/>
      <point x="545.8421052631579" y="47.868421052631575" type="line"/>
      <point x="543.2105263157894" y="119.73684210526316"/>
      <point x="540.578947368421" y="194.07894736842104"/>
      <point x="538.9473684210526" y="247.0263157894737" type="curve"/>
      <point x="538.9473684210526" y="393.57894736842104" type="line"/>
      <point x="467.07894736842104" y="390.94736842105266"/>
      <point x="392.7368421052632" y="388.3157894736842"/>
      <point x="339.7894736842105" y="386.6842105263158" type="curve"/>
      <point x="244.68421052631578" y="386.6842105263158" type="line"/>
      <point x="191.73684210526315" y="388.3157894736842"/>
      <point x="117.39473684210526" y="390.94736842105266"/>
      <point x="45.526315789473685" y="393.57894736842104" type="curve"/>
      <point x="45.526315789473685" y="219.26315789473685" type="line"/>
      <point x="117.39473684210526" y="221.89473684210526"/>
      <point x="191.73684210526315" y="224.5263157894737"/>
      <point x="244.68421052631578" y="226.1578947368421" type="curve"/>
      <point x="339.7894736842105" y="226.1578947368421" type="line"/>
      <point x="385.8421052631579" y="224.5263157894737"/>
      <point x="450.4736842105263" y="221.89473684210526"/>
      <point x="512.6315789473684" y="219.26315789473685" type="curve"/>
      <point x="373.5263157894737" y="340.7894736842105" type="line"/>
      <point x="373.5263157894737" y="247.0263157894737" type="line"/>
      <point x="371.89473684210526" y="194.07894736842104"/>
      <point x="369.2631578947368" y="119.73684210526316"/>
    </contour>
  </outline>
</glyph>
<glyph name="registered" format="2">
  <advance width="583.2105263157895"/>
  <unicode hex="00AE"/>
  <outline>
    <contour>
      <point x="294.42105263157896" y="232.55263157894737" type="curve" smooth="yes"/>
      <point x="465.89473684210526" y="232.55263157894737"/>
      <point x="555.4473684210526" y="342.7105263157895"/>
      <point x="555.4473684210526" y="491.13157894736844" type="curve" smooth="yes"/>
      <point x="555.4473684210526" y="632.2894736842105"/>
      <point x="472.3421052631579" y="748.078947368421"/>
      <point x="289.3421052631579" y="748.078947368421" type="curve" smooth="yes"/>
      <point x="109.78947368421052" y="748.078947368421"/>
      <point x="27.763157894736842" y="633.4736842105264"/>
      <point x="27.763157894736842" y="490.3157894736842" type="curve" smooth="yes"/>
      <point x="27.763157894736842" y="356.2368421052632"/>
      <point x="105.23684210526315" y="232.55263157894737"/>
    </contour>
    <contour>
      <point x="175.57894736842107" y="356.57894736842104" type="curve"/>
      <point x="263.86842105263156" y="356.57894736842104" type="line"/>
      <point x="261.2368421052632" y="391.2368421052631"/>
      <point x="259.60526315789474" y="413.7368421052631"/>
      <point x="256.9736842105263" y="450.57894736842104" type="curve"/>
      <point x="256.9736842105263" y="542.578947368421" type="line"/>
      <point x="259.60526315789474" y="580.0526315789473"/>
      <point x="261.2368421052632" y="602.921052631579"/>
      <point x="263.05263157894734" y="629.421052631579" type="curve"/>
      <point x="173.13157894736844" y="641.578947368421" type="line"/>
      <point x="175.76315789473685" y="605.2894736842105"/>
      <point x="177.3947368421053" y="583.2368421052631"/>
      <point x="180.0263157894737" y="546.578947368421" type="curve"/>
      <point x="180.0263157894737" y="450.57894736842104" type="line"/>
      <point x="178.21052631578948" y="412.10526315789474"/>
      <point x="177.39473684210526" y="393.6842105263158"/>
    </contour>
    <contour>
      <point x="293.60526315789474" y="286.2105263157895" type="curve"/>
      <point x="138.94736842105263" y="290.65789473684214"/>
      <point x="87.13157894736842" y="383.7894736842105"/>
      <point x="87.13157894736842" y="490.3157894736842" type="curve" smooth="yes"/>
      <point x="87.13157894736842" y="606.078947368421"/>
      <point x="143.39473684210526" y="690.7894736842105"/>
      <point x="290.1578947368421" y="695.2368421052631" type="curve"/>
      <point x="438.55263157894734" y="690.7894736842105"/>
      <point x="495.89473684210526" y="604.0"/>
      <point x="495.89473684210526" y="491.13157894736844" type="curve" smooth="yes"/>
      <point x="495.89473684210526" y="372.7368421052631"/>
      <point x="432.0263157894737" y="290.65789473684214"/>
    </contour>
    <contour>
      <point x="333.8157894736842" y="356.57894736842104" type="curve"/>
      <point x="434.5526315789474" y="356.57894736842104" type="line"/>
      <point x="417.1842105263158" y="381.84210526315786"/>
      <point x="397.5263157894737" y="410.57894736842104"/>
      <point x="377.60526315789474" y="440.2105263157895" type="curve"/>
      <point x="341.39473684210526" y="497.8421052631579" type="line"/>
      <point x="310.1842105263158" y="472.2368421052632" type="line"/>
      <point x="382.63157894736844" y="472.2368421052632"/>
      <point x="407.1842105263158" y="511.0526315789474"/>
      <point x="407.1842105263158" y="559.5" type="curve" smooth="yes"/>
      <point x="407.1842105263158" y="617.9473684210526"/>
      <point x="368.1842105263158" y="644.2105263157895"/>
      <point x="293.42105263157896" y="644.2105263157895" type="curve"/>
      <point x="244.44736842105263" y="644.2105263157895"/>
      <point x="205.92105263157896" y="641.578947368421"/>
      <point x="173.13157894736844" y="641.578947368421" type="curve"/>
      <point x="232.4736842105263" y="581.9473684210526" type="line"/>
      <point x="289.9736842105263" y="581.9473684210526" type="line" smooth="yes"/>
      <point x="303.55263157894734" y="581.9473684210526"/>
      <point x="326.7894736842105" y="580.7631578947369"/>
      <point x="326.7894736842105" y="549.7105263157895" type="curve" smooth="yes"/>
      <point x="326.7894736842105" y="520.8421052631579"/>
      <point x="308.6578947368421" y="511.7368421052632"/>
      <point x="282.6842105263158" y="511.7368421052632" type="curve" smooth="yes"/>
      <point x="241.3684210526316" y="511.7368421052632" type="line"/>
      <point x="241.3684210526316" y="463.7105263157895" type="line"/>
      <point x="309.63157894736844" y="463.7105263157895" type="line"/>
      <point x="263.07894736842104" y="492.0263157894737" type="line"/>
      <point x="301.2105263157895" y="426.39473684210526" type="line"/>
      <point x="311.6842105263158" y="403.57894736842104"/>
      <point x="321.15789473684214" y="383.39473684210526"/>
    </contour>
  </outline>
</glyph>
<glyph name="degree" format="2">
  <advance width="526.6052631578948"/>
  <unicode hex="00B0"/>
  <outline>
    <contour>
      <point x="262.89473684210526" y="289.6578947368421" type="curve" smooth="yes"/>
      <point x="405.9736842105263" y="289.6578947368421"/>
      <point x="494.7631578947368" y="366.7368421052632"/>
      <point x="494.7631578947368" y="498.57894736842104" type="curve" smooth="yes"/>
      <point x="494.7631578947368" y="615.1842105263158"/>
      <point x="405.9736842105263" y="704.1578947368421"/>
      <point x="263.89473684210526" y="704.1578947368421" type="curve" smooth="yes"/>
      <point x="120.81578947368422" y="704.1578947368421"/>
      <point x="31.842105263157897" y="615.1842105263158"/>
      <point x="31.842105263157897" y="498.57894736842104" type="curve" smooth="yes"/>
      <point x="31.842105263157897" y="366.7368421052632"/>
      <point x="120.81578947368422" y="289.6578947368421"/>
    </contour>
    <contour>
      <point x="262.89473684210526" y="416.92105263157896" type="curve"/>
      <point x="217.6578947368421" y="422.1842105263158"/>
      <point x="185.21052631578948" y="450.2631578947369"/>
      <point x="185.21052631578948" y="496.94736842105266" type="curve" smooth="yes"/>
      <point x="185.21052631578948" y="539.8157894736842"/>
      <point x="216.8421052631579" y="571.6315789473683"/>
      <point x="263.89473684210526" y="576.8947368421052" type="curve"/>
      <point x="310.7631578947368" y="570.8157894736842"/>
      <point x="341.39473684210526" y="537.3684210526316"/>
      <point x="341.39473684210526" y="496.94736842105266" type="curve" smooth="yes"/>
      <point x="341.39473684210526" y="450.2631578947369"/>
      <point x="309.13157894736844" y="422.1842105263158"/>
    </contour>
  </outline>
</glyph>
<glyph name="plusminus" format="2">
  <advance width="584.4736842105264"/>
  <unicode hex="00B1"/>
  <outline>
    <contour>
      <point x="45.526315789473685" y="-6.894736842105263" type="line"/>
      <point x="117.39473684210526" y="-4.2631578947368425"/>
      <point x="191.73684210526315" y="-1.631578947368421"/>
      <point x="244.68421052631578" y="0.0" type="curve"/>
      <point x="339.7894736842105" y="0.0" type="line"/>
      <point x="392.7368421052632" y="-1.631578947368421"/>
      <point x="467.07894736842104" y="-4.2631578947368425"/>
      <point x="538.9473684210526" y="-6.894736842105263" type="curve"/>
      <point x="538.9473684210526" y="167.42105263157893" type="line"/>
      <point x="467.07894736842104" y="164.78947368421052"/>
      <point x="392.7368421052632" y="162.15789473684208"/>
      <point x="339.7894736842105" y="160.52631578947367" type="curve"/>
      <point x="244.68421052631578" y="160.52631578947367" type="line"/>
      <point x="191.73684210526315" y="162.15789473684208"/>
      <point x="117.39473684210526" y="164.78947368421052"/>
      <point x="45.526315789473685" y="167.42105263157893" type="curve"/>
    </contour>
    <contour>
      <point x="45.526315789473685" y="363.2368421052632" type="line"/>
      <point x="117.39473684210526" y="365.86842105263156"/>
      <point x="191.73684210526315" y="368.5"/>
      <point x="244.68421052631578" y="370.13157894736844" type="curve"/>
      <point x="339.7894736842105" y="370.13157894736844" type="line"/>
      <point x="392.7368421052632" y="368.5"/>
      <point x="467.07894736842104" y="365.86842105263156"/>
      <point x="538.9473684210526" y="363.2368421052632" type="curve"/>
      <point x="538.9473684210526" y="537.5526315789474" type="line"/>
      <point x="467.07894736842104" y="534.9210526315788"/>
      <point x="392.7368421052632" y="532.2894736842105"/>
      <point x="339.7894736842105" y="530.6578947368421" type="curve"/>
      <point x="244.68421052631578" y="530.6578947368421" type="line"/>
      <point x="191.73684210526315" y="532.2894736842105"/>
      <point x="117.39473684210526" y="534.9210526315788"/>
      <point x="45.526315789473685" y="537.5526315789474" type="curve"/>
    </contour>
    <contour>
      <point x="202.63157894736844" y="208.1578947368421" type="curve"/>
      <point x="381.84210526315786" y="208.1578947368421" type="line"/>
      <point x="379.2105263157895" y="280.0263157894737"/>
      <point x="376.57894736842104" y="354.36842105263156"/>
      <point x="374.9473684210526" y="407.3157894736842" type="curve"/>
      <point x="374.9473684210526" y="493.4736842105263" type="line"/>
      <point x="376.57894736842104" y="546.421052631579"/>
      <point x="379.2105263157895" y="620.7631578947369"/>
      <point x="381.84210526315786" y="692.6315789473684" type="curve"/>
      <point x="202.63157894736844" y="692.6315789473684" type="line"/>
      <point x="205.26315789473685" y="620.7631578947369"/>
      <point x="207.8947368421053" y="546.421052631579"/>
      <point x="209.5263157894737" y="493.4736842105263" type="curve"/>
      <point x="209.5263157894737" y="407.3157894736842" type="line"/>
      <point x="207.8947368421053" y="354.36842105263156"/>
      <point x="205.26315789473685" y="280.0263157894737"/>
    </contour>
  </outline>
</glyph>
<glyph name="micro" format="2">
  <advance width="583.2631578947369"/>
  <unicode hex="00B5"/>
  <outline>
    <contour>
      <point x="27.447368421052637" y="-197.26315789473685" type="curve"/>
      <point x="248.6315789473684" y="-192.0" type="line"/>
      <point x="241.92105263157893" y="-121.89473684210526"/>
      <point x="236.84210526315786" y="-60.973684210526315"/>
      <point x="229.3157894736842" y="11.868421052631579" type="curve" smooth="yes"/>
      <point x="229.3157894736842" y="24.526315789473685" type="line"/>
      <point x="144.73684210526315" y="24.526315789473685" type="line"/>
      <point x="164.6578947368421" y="-2.8684210526315788"/>
      <point x="193.05263157894737" y="-14.710526315789473"/>
      <point x="228.94736842105263" y="-14.710526315789473" type="curve" smooth="yes"/>
      <point x="270.89473684210526" y="-14.710526315789473"/>
      <point x="325.6315789473684" y="25.36842105263158"/>
      <point x="360.92105263157896" y="77.23684210526316" type="curve"/>
      <point x="373.4473684210526" y="77.23684210526316" type="line"/>
      <point x="392.5526315789474" y="0.0" type="line"/>
      <point x="565.8684210526316" y="0.0" type="line"/>
      <point x="553.6842105263158" y="66.39473684210526"/>
      <point x="544.0526315789474" y="121.42105263157895"/>
      <point x="534.0526315789474" y="177.28947368421052" type="curve"/>
      <point x="534.2368421052632" y="272.63157894736844" type="line"/>
      <point x="535.8684210526316" y="369.13157894736844"/>
      <point x="536.8684210526316" y="421.44736842105266"/>
      <point x="538.5" y="500.5263157894737" type="curve"/>
      <point x="333.8157894736842" y="500.5263157894737" type="line"/>
      <point x="338.89473684210526" y="430.42105263157896"/>
      <point x="343.1578947368421" y="367.6842105263158"/>
      <point x="347.4210526315789" y="297.10526315789474" type="curve"/>
      <point x="347.4210526315789" y="193.4736842105263" type="line"/>
      <point x="325.92105263157896" y="171.89473684210526"/>
      <point x="292.42105263157896" y="150.26315789473682"/>
      <point x="278.07894736842104" y="150.26315789473682" type="curve" smooth="yes"/>
      <point x="241.3684210526316" y="150.26315789473682"/>
      <point x="229.3157894736842" y="179.8684210526316"/>
      <point x="229.3157894736842" y="242.42105263157896" type="curve"/>
      <point x="229.49999999999997" y="297.10526315789474" type="line"/>
      <point x="231.1315789473684" y="361.7894736842105"/>
      <point x="233.57894736842104" y="447.92105263157896"/>
      <point x="235.39473684210523" y="505.7894736842105" type="curve"/>
      <point x="25.815789473684216" y="500.5263157894737" type="line"/>
      <point x="31.710526315789476" y="430.42105263157896"/>
      <point x="35.97368421052632" y="369.3157894736843"/>
      <point x="42.684210526315795" y="272.63157894736844" type="curve"/>
      <point x="42.684210526315795" y="22.473684210526315" type="line"/>
      <point x="36.789473684210535" y="-60.973684210526315"/>
      <point x="32.52631578947369" y="-127.15789473684211"/>
    </contour>
  </outline>
</glyph>
<glyph name="paragraph" format="2">
  <advance width="597.0526315789474"/>
  <unicode hex="00B6"/>
  <outline>
    <contour>
      <point x="215.21052631578948" y="273.0263157894737" type="curve" smooth="yes"/>
      <point x="236.0263157894737" y="273.0263157894737" type="line"/>
      <point x="236.0263157894737" y="713.0" type="line"/>
      <point x="215.21052631578948" y="713.0" type="line"/>
      <point x="91.52631578947368" y="713.0"/>
      <point x="19.605263157894736" y="622.0263157894736"/>
      <point x="19.605263157894736" y="496.42105263157896" type="curve" smooth="yes"/>
      <point x="19.605263157894736" y="377.8157894736842"/>
      <point x="83.71052631578948" y="273.0263157894737"/>
    </contour>
    <contour>
      <point x="211.57894736842104" y="-186.21052631578948" type="curve"/>
      <point x="341.0263157894737" y="-186.21052631578948" type="line"/>
      <point x="337.5789473684211" y="-48.21052631578948"/>
      <point x="334.13157894736844" y="104.78947368421053"/>
      <point x="333.3157894736842" y="142.78947368421052" type="curve"/>
      <point x="333.3157894736842" y="384.0" type="line"/>
      <point x="334.13157894736844" y="422.0"/>
      <point x="339.2105263157895" y="575.0"/>
      <point x="343.4736842105263" y="713.0" type="curve"/>
      <point x="221.73684210526315" y="713.0" type="line"/>
      <point x="221.73684210526315" y="575.0"/>
      <point x="221.73684210526315" y="422.0"/>
      <point x="221.73684210526315" y="384.0" type="curve"/>
      <point x="221.73684210526315" y="142.78947368421052" type="line"/>
      <point x="220.92105263157893" y="104.78947368421053"/>
      <point x="215.8421052631579" y="-48.21052631578948"/>
    </contour>
    <contour>
      <point x="392.9736842105263" y="-186.21052631578948" type="curve"/>
      <point x="522.421052631579" y="-186.21052631578948" type="line"/>
      <point x="518.1578947368421" y="-48.21052631578948"/>
      <point x="513.078947368421" y="104.78947368421053"/>
      <point x="512.2631578947369" y="142.78947368421052" type="curve"/>
      <point x="512.2631578947369" y="384.0" type="line"/>
      <point x="513.078947368421" y="422.0"/>
      <point x="518.1578947368421" y="575.0"/>
      <point x="522.421052631579" y="713.0" type="curve"/>
      <point x="390.5263157894737" y="713.0" type="line"/>
      <point x="394.7894736842105" y="575.0"/>
      <point x="399.86842105263156" y="422.0"/>
      <point x="400.6842105263158" y="384.0" type="curve"/>
      <point x="400.6842105263158" y="142.78947368421052" type="line"/>
      <point x="399.86842105263156" y="104.78947368421053"/>
      <point x="396.4210526315789" y="-48.21052631578948"/>
    </contour>
    <contour>
      <point x="280.9473684210526" y="609.578947368421" type="line"/>
      <point x="376.0526315789474" y="609.578947368421" type="line"/>
      <point x="429.0" y="607.9473684210526"/>
      <point x="503.3421052631579" y="605.3157894736843"/>
      <point x="575.2105263157895" y="602.6842105263157" type="curve"/>
      <point x="575.2105263157895" y="713.0" type="line"/>
      <point x="503.3421052631579" y="713.0"/>
      <point x="429.0" y="713.0"/>
      <point x="376.0526315789474" y="713.0" type="curve"/>
      <point x="280.9473684210526" y="713.0" type="line"/>
    </contour>
  </outline>
</glyph>
<glyph name="ordmasculine" format="2">
  <advance width="461.7894736842105"/>
  <unicode hex="00BA"/>
  <outline>
    <contour>
      <point x="232.71052631578948" y="326.0263157894737" type="curve" smooth="yes"/>
      <point x="364.36842105263156" y="326.0263157894737"/>
      <point x="437.1842105263158" y="412.39473684210526"/>
      <point x="437.1842105263158" y="528.1052631578947" type="curve" smooth="yes"/>
      <point x="437.1842105263158" y="640.3684210526316"/>
      <point x="369.8157894736842" y="728.2631578947369"/>
      <point x="229.44736842105263" y="728.2631578947369" type="curve" smooth="yes"/>
      <point x="92.89473684210526" y="728.2631578947369"/>
      <point x="24.605263157894736" y="640.921052631579"/>
      <point x="24.605263157894736" y="528.1052631578947" type="curve" smooth="yes"/>
      <point x="24.605263157894736" y="421.4736842105263"/>
      <point x="88.34210526315789" y="326.0263157894737"/>
    </contour>
    <contour>
      <point x="231.89473684210526" y="436.7894736842105" type="curve"/>
      <point x="189.07894736842107" y="440.42105263157896"/>
      <point x="163.92105263157896" y="477.81578947368416"/>
      <point x="163.92105263157896" y="528.1052631578947" type="curve" smooth="yes"/>
      <point x="163.92105263157896" y="576.6842105263157"/>
      <point x="187.99999999999997" y="613.8684210526316"/>
      <point x="231.89473684210526" y="617.5" type="curve"/>
      <point x="274.68421052631584" y="612.2368421052631"/>
      <point x="297.0526315789474" y="578.6052631578947"/>
      <point x="297.0526315789474" y="528.1052631578947" type="curve" smooth="yes"/>
      <point x="297.0526315789474" y="478.0"/>
      <point x="273.89473684210526" y="440.42105263157896"/>
    </contour>
  </outline>
</glyph>
